<?xml version="1.0" encoding="UTF-8"?>
<svg width="1050pt" height="825pt" preserveAspectRatio="xMidYMid" version="1.0" viewBox="0 0 1050 825" xml:space="preserve" xmlns="http://www.w3.org/2000/svg"><g transform="matrix(.1 0 0 -.1 35.733 1198.4)"><g><path d="m8051.5 6736.2c-8051.5 3503.8-8051.5 3503.8 0 0z" fill="#198641"/><path d="m7196 6806c296-45 410-82 706-229 125-61 227-114 228-117 0-3-143-3-317 1-253 4-350 10-473 27-286 41-690 46-995 12-49-5-135-14-190-20-145-16-658-22-1133-14-458 7-486 13-267 53 66 12 188 37 270 56 83 19 202 44 265 55s153 29 200 40c121 28 649 116 815 136 339 41 624 41 891 0z" fill="#188c00"/><path d="m3116.6 6739.5c188.02-91.49 50.476-32.121 337.1-143.25 170.42-66.077 226.97-88.972 274.97-113.97-21.423-67.935-553.59 120.5-621.59 140.5-75 22-116.45 39.193-148.07 68.193-3 14-29.467 74.872-33.467 126.87l-5.4256 143.81 32.659-58.85c20.415-66.897 101.28-103.6 163.83-163.3z" fill="#178a00" stop-color="#000000" stroke-width="12.214" style="-inkscape-stroke:none;font-variation-settings:normal"/><path d="m3173 7226c203-101 302-135 509-175 442-86 871-63 1568 83 146 30 363 76 484 101 504 105 878 147 1126 127 356-29 657-119 902-270 89-55 371.95-297.56 408.95-337.56l-130.83 9.9459c-136.33 69.741-545.48 203.17-695.12 234.61-196 40-246 43-560 38-170-3-327-8-347-11-21-3-53-8-70-10-18-2-87-13-153-24-464.77-56.515-1416-306-2065-306-235-1-254 1-475 37l-230 37-201 99c-110 55-209 110-220 122-10 11-36 30-56 40-43 22-58 60-58 154 0 33-5 91-10 130-5 38-6 73-4 77 3 5 28-9 55-31 28-22 128-78 222-125z" fill="#188c00"/><path d="m8436 7580c59-29 101-72 115-120 19-61-7-135-67-190-80-73-155-89-229-47-52 29-75 75-75 151 0 105 54 181 152 211 57 18 55 18 104-5z" fill="#178a00"/><path d="m3251 7805c61-32 86-115 55-189-20-49-60-76-114-76-39 0-50 5-88 44-36 36-44 50-44 81 0 41 22 95 49 119 10 9 38 20 62 25s45 9 47 10 16-6 33-14z" fill="#f6d732"/><path d="m1936 8030c89-84 83-205-14-274-55-39-112-40-176-2-79 46-99 138-49 223 38 66 74 85 150 81 49-3 68-9 89-28z" fill="#ffd969"/><path d="m2214 9288c3-13 6-48 6-78s7-109 16-176c8-67 14-137 12-155-3-32-5-33-118-71-63-21-122-38-131-38-32 0-31 110 1 230 20 75 86 194 140 253 29 32 56 57 60 57s10-10 14-22z" fill="#050514"/><path d="m2729 9391 7.0019-143c10-195 9.002-192.99 67.002-188.99 44 2 46.992 0.9981 46.992-22.002 0-36-41-89.001-90-116-24-14-92.999-45.997-154-71.997-140-59-480.99-202-563.99-236-34-14-61.004-31.002-59.004-37.002s49.004-41.003 104-78.003c66-43 116.99-86.995 147.99-125 52-63 128-213.01 146-290.01 9-34 12.001-212 11.001-601l-0.9961-554-30-46.992c-42-66-61.011-124-61.011-191 0-48 7.0078-72.006 43.008-141.01l41.997-83.994 158-3.0029c87-1 165 2.002 175 7.002 10 4.9998 35.005 42.006 55.005 81.006 31 61 36.987 81.992 36.987 136.99 0 71-10.99 100-69.99 179-25 34-35.004 54.996-29.004 60.996 7 7 6.0038 199-0.996 555-12 586-9.001 651 33.999 773 39 114 51 137.01 165 320.01 131 210 148 259.99 132 376.99-5.9998 42-19.996 99.994-30.996 128.99-30 82-113 204-162 239-24 18-60.006 41.006-81.006 51.006zm-92.856-694.98c1.5528 0.1132 2.8526 0.1103 3.8526-0.015 17-1 120-197.01 120-227.01 0-11-7.9922-21.99-16.992-24.99-35-11-189.01-77.005-234.01-100l-45.996-22.998-18.999 41.997c-11 23-42.009 78.995-69.009 125-56 97-56.99 96.012 50.01 132.01 39 13 79 27.999 90 33.999 11 6 39.995 17.997 64.995 26.997 21.875 7.875 45.278 14.222 56.147 15.015zm-41.924-87.319c-2.9531-0.3281-4.2187-6.6914-4.2187-18.691 0-29 23.993-82.009 42.993-99.009 25-20 22.002 2.002-7.998 67.002-16.25 35-25.854 51.245-30.776 50.698zm-70.547-32.153c-3.0454-0.356-3.6767-5.417-3.6767-15.542 0-27 36.995-101 49.995-101 15 0 12.001 36.994-3.999 68.994-8 15-22 33.005-30 40.005-6.125 5.2498-9.9507 7.8208-12.319 7.5439zm-72.349-24.756c-6.8313 0.1357-9.8008-8.878-5.332-28.784 6-28 59.013-91.002 68.013-82.002 3 3-6.0137 27.997-19.014 56.997-15.438 33.844-33.683 53.591-43.667 53.789zm89.678-1721.8c123 0 201-125 140-224-51-81-150-103-215-45.996-18 17-41.01 48.009-50.01 69.009-14 35-13.996 44.989-0.9961 88.989 10 33 26.995 61.006 49.995 81.006 27 24 45.011 30.996 76.011 30.996z" fill="#010114"/><path d="m5024 9438-118.01-124c-65-69-203.99-204.01-308.99-302.01-106-97-300-283-432-413-132-129-272-264-312-300l-71.001-63.999 0.9961-500c1-325 4.9971-500.01 11.997-501.01 6 0 30.009-3.9981 54.009-7.9981 33-6 45.987-5.0049 51.987 4.9951 7 11 9.0088 9.9971 9.0088-3.0029 0-14 7.998-17.988 37.998-17.988 27 0 33.002 2.9906 22.002 9.9902-11 7-11.007 10.005-2.0069 10.005 7 0 10.998 3.9981 7.9981 7.9981-6 10 123.01 35.997 132.01 26.997 3-3-1.0127-4.9951-8.0127-4.9951-9 0-6.9938-7.0058 6.0058-21.006 17-19 26.008-21 88.008-15 38 4 102.99 15.001 143.99 26.001 42 11 87.001 20.01 101 20.01 83 0 347.99 52.999 473.99 93.999 75 25 186.01 53.995 245.01 64.995 94 17 278.99 78.001 351.99 116 14 8 77.01 37.994 140.01 68.994 164 79 279 144.01 346 197.01 33 25 74.007 54.003 92.007 63.003s40.991 30.992 50.991 46.992c10 17 28.005 37 40.005 45 11 8 20.991 22 20.991 30s7 14.004 15 14.004c10 0 15 10 15 30 0 33-13.989 38.993-28.989 12.993-10-17-10.001-16.996-11.001-0.9961 0 9-7.0069 21.001-17.007 26.001-21 12-24.002 51.007-7.0019 77.007 25 35 16.002 51.991-52.998 99.99-38 26-77.996 59.996-90.996 75.996-13 16-29.002 29.004-37.002 29.004-7 0-27.992 16.998-46.992 37.998-19 20-58.001 58.005-86.001 85.005-65 60-39.004 63.002 30.996 3.0029 29-24 62.992-49.001 76.992-56.001 28-15 106.01-100 103.01-112-2-4 1.9984-7.9981 7.998-7.9981 6 0 38.997-25.005 71.997-55.005 56-50 97.002-68.996 97.002-45.996 0 4.9996 11.005 12 25.005 15 14 3.9996 24.99 10 24.99 15 0 17-529.99 523-729.99 698-180 157-273 243-329 305-28 31-85.994 88.006-128.99 126.01zm-242.99-960.78c86.198 0.5586 201.61-6.9141 213.98-17.227 12-10 15-36.999 15-124 0-61-2.9912-135.01-5.9912-163.01l-7.002-52.998h-178.01c-208 0-184-17.998-194 146-6 102 4.0117 176 27.012 190 6 4 24.997 11 41.997 15 14.688 4.0625 47.831 5.9717 87.012 6.2256zm541.48-0.9815c6.4277-0.037 12.626-0.124 18.501-0.249 129-1 129.01-0.9986 129.01-188 0-145-1.002-149-22.002-157-13-4-93.004-11.004-179-14.004-155-6-156.99-5.9892-162.99 16.011-12 44-6.998 302 7.002 320 8 11 31.992 16.995 76.992 19.995 31.5 1.75 87.501 3.5117 132.5 3.2519zm-508.24-474.49c87.5 0.25 176.24-5.2579 185.74-16.758 17-21 10.002-319-7.9981-337-9-9-57.001-13.996-146-15.996-148-4-188 5.9943-206 53.994-11 28-13.999 273.01-3.999 298.01 4.5 11.5 90.757 17.504 178.26 17.754zm305.74-1.7579h160c92 0 170-3.9902 181-9.9902 17-10 18.999-22.005 18.999-145 0-73-3.9903-145-9.9902-160-17-44-58.002-52.992-217-46.992-134 4-142 6.001-147 26.001-10 36-7.0009 282.99 3.9991 309.99z" fill="#ee6120"/><path d="m7255 9428c57-29 84-56 111-113 76-161-40-336-220-334-149 1-259 98-259 229-1 46 6 67 38 124 42 75 62 89 165 112 65 15 110 10 165-18z" fill="#ffe700"/></g><path d="m5250 9465c7-8 17-15 23-15 20 0 96-65 92-78-3-7 0-10 5-7 6 4 36-14 68-39 155-124 186-148 215-163 18-9 55-38 82-65 50-49 153-108 186-108 40 0 52 43 57 200 3 97 9 150 16 153 6 2 78 2 160-1l148-5-6-381c-6-376-8-436-14-436-2 0-67 59-145 132-78 72-203 183-277 247s-146 126-160 137c-14 12-79 69-146 125-161 138-342 302-343 312-2 13 26 7 39-8z"/><path d="m3603 9459c26-17 58-44 72-60 26-31 55-115 55-158 0-70-94-180-172-201-77-21-200 21-253 87-25 32-30 49-33 105-4 56-1 73 17 100 11 18 21 29 21 23 0-15 40 53 40 68 0 18 40 54 65 60 11 3 47 5 81 6 52 1 67-3 107-30z" fill="#0baa00"/><path d="m5078 9615c41-18 82-52 82-70 0-6 9-19 21-28 11-10 18-21 15-24-3-4-19 5-34 18-15 14-53 45-85 68l-57 43-57-46c-31-26-140-127-242-224-359-343-418-398-590-557-95-88-176-165-180-172-14-25-300-309-328-325-18-10-34-14-43-8-11 7-9 16 12 47 39 57 774 793 843 843 101 74 230 187 338 295 117 117 143 136 201 146 63 10 64 10 104-6z"/><path d="m5125 9968c323-297 535-472 551-455 10 10 23 87 24 137v45l457-3 458-3 6-237c4-130 7-363 8-517l1-281 133-125c151-144 178-163 207-154 19 6 20 2 20-78 0-100 20-212 49-280 23-53 27-87 10-87-5 0-40 4-77 9s-121 12-187 15l-120 6v-173c0-94-3-184-7-199-8-25-12-27-79-30-52-2-73 1-76 10-10 24 3 522 13 532 6 6 66 7 172 2l162-7v55c-1 74-15 101-81 152-64 49-217 186-266 237l-33 35v946h-284c-156 0-298 3-315 6l-31 7-1-129c0-127-9-218-23-231-3-4-40 28-82 70-41 42-108 101-147 131-40 30-130 103-201 163-71 59-154 129-185 154-31 26-85 74-120 108-35 33-67 61-71 61-16 0-234-191-450-395-124-116-423-407-665-646-243-239-491-478-552-532-116-102-143-133-143-165 0-17 5-18 58-10 31 4 121 7 200 6 135-1 143-3 148-22 2-12 3-203 2-426-3-353-5-405-18-403-45 7-115 24-121 31-4 4-9 152-11 330-2 222-6 321-14 318-13-5-437 11-514 20-51 6-59 10-65 31-3 13-1 41 5 63 8 31 20 45 63 71 28 17 126 104 217 193 91 88 273 264 405 391 132 126 357 344 500 485 395 389 918 870 944 870 9 0 66-46 126-102z"/><g transform="matrix(-.81173 .69165 -.39793 -.46701 10280 8726.3)"><path transform="matrix(0 .24097 -.18914 0 2246.9 1851.5)" d="m278 7166c-83-31-123-75-188-211-62-129-84-221-84-355 0-142 22-207 88-268 80-74 171-107 482-177 254-58 268-62 2814-905 696-230 1299-426 1340-434s253-53 471-100c218-48 403-86 412-86 8 0 17 6 20 13 2 6 8 8 13 4s-27-111-70-238c-43-126-76-232-73-236 5-4 258-60 452-98l30-6 34 138c19 76 36 144 39 150 2 8 27-4 69-34 54-38 68-44 82-35 46 34 62 28 107-44 47-73 100-130 184-197 46-37 74-66 72-76-9-49-59-204-93-293-48-122-96-213-152-287-40-52-198-186-219-186-6 0-30 72-54 160-23 88-46 159-50 159-50-8-470-97-474-101s18-74 109-336l48-139-31-19c-17-10-34-19-37-19-4 0-18 18-32 40l-27 39-132-45c-73-25-284-97-468-159-289-98-410-146-880-350-1275-554-2028-879-2500-1080-461-196-508-215-699-272-467-139-623-218-686-348-25-50-27-63-21-124 18-194 131-429 254-528 156-125 242-114 617 77 292 149 362 179 1365 590 124 51 299 123 390 160 91 38 469 192 840 343 1524 621 1333 537 1825 803 242 130 443 240 448 244 4 3-5 39-19 78-15 40-25 74-23 76s63 27 134 56c260 106 510 235 645 334 30 22 121 104 201 182 212 204 299 258 546 338l113 36 132-29c1233-274 2428-515 2883-581 407-59 1258-50 1915 21 272 29 360 53 360 99 0 76-480 262-1239 480-188 54-2294 577-2339 581-10 0 119 46 388 137 129 44 316 108 415 142 175 60 358 123 790 270s1385 480 1515 530c266 100 374 165 368 219-4 31-33 47-173 93l-100 33-275-1c-285 0-417-8-830-49-516-52-944-118-1222-189-320-82-1348-385-2342-690-172-53-296-86-323-86-67 0-232 36-339 75-188 67-305 153-406 297-94 134-383 310-798 487l-95 40v101l-462 185-462 184-978 301c-538 166-1108 342-1268 391-159 50-420 131-580 181-657 204-862 272-990 330-210 94-390 167-480 193-110 32-243 42-297 21zm267-121c86-24 232-81 360-140 165-77 267-115 495-188 428-137 1224-384 2485-772 512-157 936-287 943-290 10-4 9-13-4-42-100-227-120-297-150-533-9-74-18-136-19-138-2-2-716 233-1586 522-2238 742-2218 735-2514 801-281 62-391 110-421 182-43 101-39 220 12 372 30 91 101 218 129 234 58 31 138 29 270-8zm4770-1565 400-179-1-103c-1-57-6-128-13-158-11-54-104-253-139-298l-17-22-230 49c-127 28-304 66-395 85-91 20-174 38-186 41-16 3-20 11-17 32 27 228 57 393 84 468 24 68 108 265 113 265 1 0 181-81 401-180zm7214-162c62-20 118-41 125-48 24-25-95-89-336-181-151-57-1032-365-1568-547-113-39-286-98-385-132-345-118-896-306-1352-461-161-54-427-144-590-200-164-56-507-171-763-256-277-92-490-168-526-188-98-55-179-120-329-265-77-75-162-152-190-171-79-57-234-145-352-200-118-56-410-179-423-179-4 0-15 30-24 66-21 82-53 147-122 245l-53 77 29 12c25 10 34 10 55-4 64-42 277 5 341 76 40 44 57 88 52 140l-5 49 77 59c146 111 207 187 286 355 48 104 110 283 144 422 22 88 25 93 54 102 17 5 331 101 697 215 1578 487 2637 797 2924 856 325 67 939 144 1440 180 231 17 256 17 475 15 205-2 205-2 319-37zm-6604-139c281-123 561-282 664-374 22-21 65-72 94-114 30-42 76-94 102-115 111-92 280-167 470-211 55-13 93-25 85-28s-172-54-365-113c-192-59-355-111-361-116-7-5-15-24-18-44l-7-35-32 23c-66 47-168 152-197 204-49 84-98 112-151 84-16-9-30-4-78 30-58 41-59 42-49 73 24 79-4 166-70 214-81 60-276 89-321 49-12-11-24-16-27-13-4 4 16 77 45 164 52 161 71 250 71 337 0 34 4 47 13 43 6-2 66-28 132-58zm-61-529c42-11 90-29 107-41 32-23 59-67 59-97 0-17-88-363-93-368-3-3-351 69-356 73-6 4 129 404 146 431s38 28 137 2zm3577-774c167-41 455-111 639-156 1287-313 1655-413 2161-586 283-97 509-196 509-224 0-23-267-60-610-85-576-41-1226-43-1528-5-352 45-1235 217-2356 460-357 77-652 140-654 140-20 0 67 31 554 195 459 156 975 332 980 334 1 1 138-32 305-73zm-3462-463c5-21 26-101 46-178 42-161 41-189-10-234-41-36-158-73-217-69l-41 3-75 218c-41 119-72 220-69 223 7 7 300 71 334 73 18 1 24-7 32-36zm-330-653c75-108 120-229 146-395l6-40-278-150c-152-83-321-174-375-203l-98-53-94 143c-115 174-153 250-199 393-58 184-58 171 10 191 32 9 222 65 423 125l365 107 28-31c15-18 45-57 66-87zm-979-232c48-183 95-285 221-481 86-133 88-138 66-146-12-5-157-64-322-131s-408-166-540-220c-756-308-884-360-1420-580-104-43-289-118-410-168-855-350-1e3 -413-1242-538s-319-156-393-157c-43-1-64 4-96 25-120 77-220 257-253 455-11 61-10 75 3 101 51 99 226 181 646 302 189 54 367 128 1975 823 245 106 1458 632 1630 708 61 26 113 48 117 48 4 1 12-18 18-41z"/><path transform="matrix(0 .24097 -.18914 0 2246.9 1851.5)" d="m7426 4161-108-6-118-152 7-93 6-93 59-68 60-69h220l118 102v242l-56 73c-31 40-61 72-68 71-6-1-60-4-120-7zm162-96 42-55v-204l-84-86h-194l-50 58c-48 56-49 59-54 135l-5 78 50 65 49 64h203z"/><path transform="matrix(7.5,0,0,-7.5,0,10240)" d="m281.18 1107.8c-1.6472-2.5183-2.8034-5.9655-5.7029-17.003-2.7958-10.643-10.473-34.026-30.758-93.678l-9.5219-28.001 3.3464-1.3582c1.8405-0.74701 5.4443-2.939 8.0084-4.8712 2.5641-1.9321 4.7328-3.4156 4.8193-3.2967 0.0865 0.11892 1.2553 3.6896 2.5973 7.935 14.561 46.062 34.865 108.32 37.935 116.33 2.119 5.5247 4.0665 11.189 4.3278 12.588 0.87522 4.6848-1.9465 8.59-8.2838 11.465-3.5411 1.6063-5.6691 1.5731-6.7671-0.1055z" fill="#145d0f" stroke-width=".59375"/><g fill="#000100"><path transform="matrix(7.5,0,0,-7.5,0,10240)" d="m130.88 1114.5c-2.7285-0.6531-7.9773-3.6748-8.6872-5.0012-1.2321-2.3022-0.13069-8.7226 3.2736-19.083 3.6765-11.188 6.9727-24.131 21.473-84.312 5.429-22.533 9.9782-41.294 10.109-41.692 0.16597-0.50383 1.4081-0.17566 4.0959 1.0821 2.1217 0.99288 6.012 2.2296 8.645 2.7484 3.8352 0.75557 4.7346 1.1308 4.5223 1.8866-0.73091 2.603-27.3 105.44-29.159 112.87-1.1861 4.7352-2.9084 12.49-3.8273 17.233-2.0998 10.838-2.8993 12.824-5.6179 13.96-2.268 0.9477-2.1939 0.9429-4.8272 0.3126z" stroke-width=".59375"/><path d="m1704.2 3241.1c3.0832 29.869-8.113 71.03-21.958 80.728-5.4084 3.7881-14.422 6.8873-20.03 6.8873-7.4433 0-14.266 6.3618-25.266 23.557-27.234 42.572-54.468 62.188-124.75 89.85l-35.28 13.886-37.085 153.44c-94.662 391.67-156.75 663.06-168.27 735.49-7.6723 48.24-22.502 192.33-29.008 281.86-9.0137 124.02-4.7529 251.26 8.9224 266.49 1.8546 2.0653 7.7785-7.9542 13.164-22.266 17.418-46.28 116.9-410.7 280.39-1027.1 36.567-137.88 70.637-261.6 75.709-274.94s24.468-45.301 43.1-71.018c18.632-25.717 42.51-64.793 53.062-86.836 16.739-34.969 55.461-139.23 55.461-149.33 0-1.9871-6.7219-5.8313-14.938-8.5427-8.2164-2.7116-23.063-11.884-32.993-20.384-9.9305-8.5-19.094-15.454-20.365-15.454-1.2707 0-1.2089 10.671 0.1369 23.713zm-164.52 360.68c13.358 12.626 14.473 15.848 14.473 41.814 0 21.624-2.3185 31.713-10.019 43.603-9.4449 14.581-11.439 15.471-34.752 15.523-22.346 0.052-26.157-1.4151-39.506-15.187-14.231-14.683-14.706-16.316-12.911-44.5 1.6435-25.814 3.5896-31.038 16.537-44.396 13.18-13.599 16.557-14.905 33.189-12.838 12.452 1.5475 23.256 6.781 32.989 15.981z" stroke-width="4.4531"/><path transform="matrix(7.5,0,0,-7.5,0,10240)" d="m206.57 848.23-6.2604-23.393 2.8728-15.052c10.847-56.834 15.75-79.307 20.456-93.768 1.6634-5.1107 2.2848-6.4083 2.6265-5.4845 1.291 3.49 2.0284 19.21 2.0278 43.232l-6.1e-4 25.531-1.9108 12.766c-3.209 21.439-12.866 79.562-13.219 79.562-0.18256 0-3.1491-10.527-6.5924-23.393z" stroke-width=".59375"/><path transform="matrix(7.5,0,0,-7.5,0,10240)" d="m176.05 934.25c-1.9594-0.77654-4.4151-1.4257-5.4572-1.4425-1.042-0.0168-2.0521-0.28539-2.2445-0.59677-0.45494-0.73611 4.5096-13.814 7.5614-19.918 1.3342-2.6688 3.8132-6.306 5.6578-8.3012 3.8213-4.1333 5.6376-7.7859 7.3788-14.839l1.2547-5.0824 2.6401 10.846c1.4531 5.9693 3.0315 11.158 3.5105 11.539 1.1625 0.92634 0.41612 2.2765-3.7848 6.846-2.7 2.9369-3.196 3.804-2.8851 5.043 0.55666 2.2179-1.0536 4.3393-3.2938 4.3393-0.99363 0-2.2913 0.25939-2.8837 0.57642-1.5817 0.84652-3.105 5.1678-3.1979 9.072-0.0447 1.8777-0.21907 3.3952-0.38754 3.3722-0.16848-0.023-1.9094-0.6772-3.8688-1.4537z" stroke-width=".59375"/></g><g fill="#0caf00"><path d="m2109.3 1936.7c-9.1092 13.903-20.065 47.258-43.304 131.84-13.546 49.302-276.57 845.27-296.73 897.97-1.0792 2.8212 5.5262 7.5905 14.71 10.622 9.1683 3.0257 35.432 18.222 58.364 33.771 26.829 18.19 42.416 26.311 43.717 22.777 1.1109-3.0209 37.277-115.71 80.369-250.41 87.191-272.57 165.78-512.16 219.93-670.47 40.459-118.29 40.961-123.77 13.797-150.71-33.581-33.305-77.605-45.604-90.856-25.381z" stroke-width="4.4531"/><path transform="matrix(7.5,0,0,-7.5,0,10240)" d="m127.93 1112.8c-4.9558-2.3445-5.6205-3.1394-5.6205-6.7218 0-3.3973 0.71805-6.3928 4.7428-19.785 3.5904-11.948 6.2718-22.554 19.576-77.434 5.8912-24.301 10.785-44.258 10.875-44.348 0.0898-0.0898 1.3592 0.37534 2.8209 1.0337 1.4616 0.65839 5.0299 1.8349 7.9295 2.6144 2.8996 0.77955 5.3812 1.5267 5.5148 1.6603 0.1336 0.13359-5.9337 24.124-13.483 53.311-13.74 53.122-16.883 65.699-19.84 79.392-1.8825 8.7152-2.4158 10.015-4.5652 11.127-2.3651 1.223-3.9194 1.0569-7.9496-0.8498z" stroke-width=".59375"/><path d="m1747.7 3004.8c-1.691 7.9599-11.972 52.547-22.847 99.082l-19.771 84.609 22.263 20.655c20.537 19.053 53.28 35.009 71.847 35.009 5.4673 0 17.3-23.282 44.322-87.206 31.039-73.428 35.891-88.109 30.713-92.92-35.434-32.921-101.42-73.702-119.25-73.702-2.3078 0-5.5806 6.5127-7.2715 14.473z" stroke-width="4.4531"/></g><g><path transform="matrix(7.5,0,0,-7.5,0,10240)" d="m170.16 965.7c-2.2582-0.44851-6.0849-1.7553-8.5038-2.904-3.9659-1.8834-4.3564-2.2206-3.9758-3.4334 0.23213-0.73967 2.2185-6.4214 4.4141-12.626l3.9921-11.281 2.5551-0.18738c1.9508-0.14306 3.4451 0.26435 6.318 1.7225 2.0696 1.0504 4.0823 2.2948 4.4728 2.7653 0.55699 0.67114 0.35367 3.0498-0.94395 11.043-2.2035 13.574-2.7104 15.838-3.5296 15.773-0.38114-0.0307-2.5406-0.42276-4.7988-0.87128z" fill="#0cad00" stroke-width=".59375"/><path transform="matrix(7.5,0,0,-7.5,0,10240)" d="m189.41 937.28c-1.7961-0.73419-4.167-1.8032-5.2687-2.3756-1.9096-0.99219-1.9868-1.1594-1.6545-3.5838 0.43518-3.1749 1.466-5.4924 2.6441-5.9445 0.86577-0.33223 8.2471 1.7716 9.1839 2.6176 0.39005 0.35223-0.94461 9.9382-1.4534 10.439-0.1022 0.1005-1.6553-0.41797-3.4514-1.1522z" fill="#050505" stroke-width=".59375"/><path d="m1603.8 3239.4c-8.0526 48.76-8.6502 47.225 22.477 57.737 38.973 13.161 47.339 12.369 54.431-5.1576 8.9444-22.106 11.64-46.729 5.6104-51.252-6.8418-5.1322-68.771-32.244-73.652-32.244-2.0688 0-6.0587 13.912-8.8664 30.916z" fill="#050505" stroke-width="4.4531"/></g></g></g><script id="mesh_polyfill" type="text/javascript">
!function(){const t="http://www.w3.org/2000/svg",e="http://www.w3.org/1999/xlink",s="http://www.w3.org/1999/xhtml",r=2;if(document.createElementNS(t,"meshgradient").x)return;const n=(t,e,s,r)=&gt;{let n=new x(.5*(e.x+s.x),.5*(e.y+s.y)),o=new x(.5*(t.x+e.x),.5*(t.y+e.y)),i=new x(.5*(s.x+r.x),.5*(s.y+r.y)),a=new x(.5*(n.x+o.x),.5*(n.y+o.y)),h=new x(.5*(n.x+i.x),.5*(n.y+i.y)),l=new x(.5*(a.x+h.x),.5*(a.y+h.y));return[[t,o,a,l],[l,h,i,r]]},o=t=&gt;{let e=t[0].distSquared(t[1]),s=t[2].distSquared(t[3]),r=.25*t[0].distSquared(t[2]),n=.25*t[1].distSquared(t[3]),o=e&gt;s?e:s,i=r&gt;n?r:n;return 18*(o&gt;i?o:i)},i=(t,e)=&gt;Math.sqrt(t.distSquared(e)),a=(t,e)=&gt;t.scale(2/3).add(e.scale(1/3)),h=t=&gt;{let e,s,r,n,o,i,a,h=new g;return t.match(/(\w+\(\s*[^)]+\))+/g).forEach(t=&gt;{let l=t.match(/[\w.-]+/g),d=l.shift();switch(d){case"translate":2===l.length?e=new g(1,0,0,1,l[0],l[1]):(console.error("mesh.js: translate does not have 2 arguments!"),e=new g(1,0,0,1,0,0)),h=h.append(e);break;case"scale":1===l.length?s=new g(l[0],0,0,l[0],0,0):2===l.length?s=new g(l[0],0,0,l[1],0,0):(console.error("mesh.js: scale does not have 1 or 2 arguments!"),s=new g(1,0,0,1,0,0)),h=h.append(s);break;case"rotate":if(3===l.length&amp;&amp;(e=new g(1,0,0,1,l[1],l[2]),h=h.append(e)),l[0]){r=l[0]*Math.PI/180;let t=Math.cos(r),e=Math.sin(r);Math.abs(t)&lt;1e-16&amp;&amp;(t=0),Math.abs(e)&lt;1e-16&amp;&amp;(e=0),a=new g(t,e,-e,t,0,0),h=h.append(a)}else console.error("math.js: No argument to rotate transform!");3===l.length&amp;&amp;(e=new g(1,0,0,1,-l[1],-l[2]),h=h.append(e));break;case"skewX":l[0]?(r=l[0]*Math.PI/180,n=Math.tan(r),o=new g(1,0,n,1,0,0),h=h.append(o)):console.error("math.js: No argument to skewX transform!");break;case"skewY":l[0]?(r=l[0]*Math.PI/180,n=Math.tan(r),i=new g(1,n,0,1,0,0),h=h.append(i)):console.error("math.js: No argument to skewY transform!");break;case"matrix":6===l.length?h=h.append(new g(...l)):console.error("math.js: Incorrect number of arguments for matrix!");break;default:console.error("mesh.js: Unhandled transform type: "+d)}}),h},l=t=&gt;{let e=[],s=t.split(/[ ,]+/);for(let t=0,r=s.length-1;t&lt;r;t+=2)e.push(new x(parseFloat(s[t]),parseFloat(s[t+1])));return e},d=(t,e)=&gt;{for(let s in e)t.setAttribute(s,e[s])},c=(t,e,s,r,n)=&gt;{let o,i,a=[0,0,0,0];for(let h=0;h&lt;3;++h)e[h]&lt;t[h]&amp;&amp;e[h]&lt;s[h]||t[h]&lt;e[h]&amp;&amp;s[h]&lt;e[h]?a[h]=0:(a[h]=.5*((e[h]-t[h])/r+(s[h]-e[h])/n),o=Math.abs(3*(e[h]-t[h])/r),i=Math.abs(3*(s[h]-e[h])/n),a[h]&gt;o?a[h]=o:a[h]&gt;i&amp;&amp;(a[h]=i));return a},u=[[1,0,0,0,0,0,0,0,0,0,0,0,0,0,0,0],[0,0,0,0,1,0,0,0,0,0,0,0,0,0,0,0],[-3,3,0,0,-2,-1,0,0,0,0,0,0,0,0,0,0],[2,-2,0,0,1,1,0,0,0,0,0,0,0,0,0,0],[0,0,0,0,0,0,0,0,1,0,0,0,0,0,0,0],[0,0,0,0,0,0,0,0,0,0,0,0,1,0,0,0],[0,0,0,0,0,0,0,0,-3,3,0,0,-2,-1,0,0],[0,0,0,0,0,0,0,0,2,-2,0,0,1,1,0,0],[-3,0,3,0,0,0,0,0,-2,0,-1,0,0,0,0,0],[0,0,0,0,-3,0,3,0,0,0,0,0,-2,0,-1,0],[9,-9,-9,9,6,3,-6,-3,6,-6,3,-3,4,2,2,1],[-6,6,6,-6,-3,-3,3,3,-4,4,-2,2,-2,-2,-1,-1],[2,0,-2,0,0,0,0,0,1,0,1,0,0,0,0,0],[0,0,0,0,2,0,-2,0,0,0,0,0,1,0,1,0],[-6,6,6,-6,-4,-2,4,2,-3,3,-3,3,-2,-1,-2,-1],[4,-4,-4,4,2,2,-2,-2,2,-2,2,-2,1,1,1,1]],f=t=&gt;{let e=[];for(let s=0;s&lt;16;++s){e[s]=0;for(let r=0;r&lt;16;++r)e[s]+=u[s][r]*t[r]}return e},p=(t,e,s)=&gt;{const r=e*e,n=s*s,o=e*e*e,i=s*s*s;return t[0]+t[1]*e+t[2]*r+t[3]*o+t[4]*s+t[5]*s*e+t[6]*s*r+t[7]*s*o+t[8]*n+t[9]*n*e+t[10]*n*r+t[11]*n*o+t[12]*i+t[13]*i*e+t[14]*i*r+t[15]*i*o},y=t=&gt;{let e=[],s=[],r=[];for(let s=0;s&lt;4;++s)e[s]=[],e[s][0]=n(t[0][s],t[1][s],t[2][s],t[3][s]),e[s][1]=[],e[s][1].push(...n(...e[s][0][0])),e[s][1].push(...n(...e[s][0][1])),e[s][2]=[],e[s][2].push(...n(...e[s][1][0])),e[s][2].push(...n(...e[s][1][1])),e[s][2].push(...n(...e[s][1][2])),e[s][2].push(...n(...e[s][1][3]));for(let t=0;t&lt;8;++t){s[t]=[];for(let r=0;r&lt;4;++r)s[t][r]=[],s[t][r][0]=n(e[0][2][t][r],e[1][2][t][r],e[2][2][t][r],e[3][2][t][r]),s[t][r][1]=[],s[t][r][1].push(...n(...s[t][r][0][0])),s[t][r][1].push(...n(...s[t][r][0][1])),s[t][r][2]=[],s[t][r][2].push(...n(...s[t][r][1][0])),s[t][r][2].push(...n(...s[t][r][1][1])),s[t][r][2].push(...n(...s[t][r][1][2])),s[t][r][2].push(...n(...s[t][r][1][3]))}for(let t=0;t&lt;8;++t){r[t]=[];for(let e=0;e&lt;8;++e)r[t][e]=[],r[t][e][0]=s[t][0][2][e],r[t][e][1]=s[t][1][2][e],r[t][e][2]=s[t][2][2][e],r[t][e][3]=s[t][3][2][e]}return r};class x{constructor(t,e){this.x=t||0,this.y=e||0}toString(){return`(x=${this.x}, y=${this.y})`}clone(){return new x(this.x,this.y)}add(t){return new x(this.x+t.x,this.y+t.y)}scale(t){return void 0===t.x?new x(this.x*t,this.y*t):new x(this.x*t.x,this.y*t.y)}distSquared(t){let e=this.x-t.x,s=this.y-t.y;return e*e+s*s}transform(t){let e=this.x*t.a+this.y*t.c+t.e,s=this.x*t.b+this.y*t.d+t.f;return new x(e,s)}}class g{constructor(t,e,s,r,n,o){void 0===t?(this.a=1,this.b=0,this.c=0,this.d=1,this.e=0,this.f=0):(this.a=t,this.b=e,this.c=s,this.d=r,this.e=n,this.f=o)}toString(){return`affine: ${this.a} ${this.c} ${this.e} \n       ${this.b} ${this.d} ${this.f}`}append(t){t instanceof g||console.error("mesh.js: argument to Affine.append is not affine!");let e=this.a*t.a+this.c*t.b,s=this.b*t.a+this.d*t.b,r=this.a*t.c+this.c*t.d,n=this.b*t.c+this.d*t.d,o=this.a*t.e+this.c*t.f+this.e,i=this.b*t.e+this.d*t.f+this.f;return new g(e,s,r,n,o,i)}}class w{constructor(t,e){this.nodes=t,this.colors=e}paintCurve(t,e){if(o(this.nodes)&gt;r){const s=n(...this.nodes);let r=[[],[]],o=[[],[]];for(let t=0;t&lt;4;++t)r[0][t]=this.colors[0][t],r[1][t]=(this.colors[0][t]+this.colors[1][t])/2,o[0][t]=r[1][t],o[1][t]=this.colors[1][t];let i=new w(s[0],r),a=new w(s[1],o);i.paintCurve(t,e),a.paintCurve(t,e)}else{let s=Math.round(this.nodes[0].x);if(s&gt;=0&amp;&amp;s&lt;e){let r=4*(~~this.nodes[0].y*e+s);t[r]=Math.round(this.colors[0][0]),t[r+1]=Math.round(this.colors[0][1]),t[r+2]=Math.round(this.colors[0][2]),t[r+3]=Math.round(this.colors[0][3])}}}}class m{constructor(t,e){this.nodes=t,this.colors=e}split(){let t=[[],[],[],[]],e=[[],[],[],[]],s=[[[],[]],[[],[]]],r=[[[],[]],[[],[]]];for(let s=0;s&lt;4;++s){const r=n(this.nodes[0][s],this.nodes[1][s],this.nodes[2][s],this.nodes[3][s]);t[0][s]=r[0][0],t[1][s]=r[0][1],t[2][s]=r[0][2],t[3][s]=r[0][3],e[0][s]=r[1][0],e[1][s]=r[1][1],e[2][s]=r[1][2],e[3][s]=r[1][3]}for(let t=0;t&lt;4;++t)s[0][0][t]=this.colors[0][0][t],s[0][1][t]=this.colors[0][1][t],s[1][0][t]=(this.colors[0][0][t]+this.colors[1][0][t])/2,s[1][1][t]=(this.colors[0][1][t]+this.colors[1][1][t])/2,r[0][0][t]=s[1][0][t],r[0][1][t]=s[1][1][t],r[1][0][t]=this.colors[1][0][t],r[1][1][t]=this.colors[1][1][t];return[new m(t,s),new m(e,r)]}paint(t,e){let s,n=!1;for(let t=0;t&lt;4;++t)if((s=o([this.nodes[0][t],this.nodes[1][t],this.nodes[2][t],this.nodes[3][t]]))&gt;r){n=!0;break}if(n){let s=this.split();s[0].paint(t,e),s[1].paint(t,e)}else{new w([...this.nodes[0]],[...this.colors[0]]).paintCurve(t,e)}}}class b{constructor(t){this.readMesh(t),this.type=t.getAttribute("type")||"bilinear"}readMesh(t){let e=[[]],s=[[]],r=Number(t.getAttribute("x")),n=Number(t.getAttribute("y"));e[0][0]=new x(r,n);let o=t.children;for(let t=0,r=o.length;t&lt;r;++t){e[3*t+1]=[],e[3*t+2]=[],e[3*t+3]=[],s[t+1]=[];let r=o[t].children;for(let n=0,o=r.length;n&lt;o;++n){let o=r[n].children;for(let r=0,i=o.length;r&lt;i;++r){let i=r;0!==t&amp;&amp;++i;let h,d=o[r].getAttribute("path"),c="l";null!=d&amp;&amp;(c=(h=d.match(/\s*([lLcC])\s*(.*)/))[1]);let u=l(h[2]);switch(c){case"l":0===i?(e[3*t][3*n+3]=u[0].add(e[3*t][3*n]),e[3*t][3*n+1]=a(e[3*t][3*n],e[3*t][3*n+3]),e[3*t][3*n+2]=a(e[3*t][3*n+3],e[3*t][3*n])):1===i?(e[3*t+3][3*n+3]=u[0].add(e[3*t][3*n+3]),e[3*t+1][3*n+3]=a(e[3*t][3*n+3],e[3*t+3][3*n+3]),e[3*t+2][3*n+3]=a(e[3*t+3][3*n+3],e[3*t][3*n+3])):2===i?(0===n&amp;&amp;(e[3*t+3][3*n+0]=u[0].add(e[3*t+3][3*n+3])),e[3*t+3][3*n+1]=a(e[3*t+3][3*n],e[3*t+3][3*n+3]),e[3*t+3][3*n+2]=a(e[3*t+3][3*n+3],e[3*t+3][3*n])):(e[3*t+1][3*n]=a(e[3*t][3*n],e[3*t+3][3*n]),e[3*t+2][3*n]=a(e[3*t+3][3*n],e[3*t][3*n]));break;case"L":0===i?(e[3*t][3*n+3]=u[0],e[3*t][3*n+1]=a(e[3*t][3*n],e[3*t][3*n+3]),e[3*t][3*n+2]=a(e[3*t][3*n+3],e[3*t][3*n])):1===i?(e[3*t+3][3*n+3]=u[0],e[3*t+1][3*n+3]=a(e[3*t][3*n+3],e[3*t+3][3*n+3]),e[3*t+2][3*n+3]=a(e[3*t+3][3*n+3],e[3*t][3*n+3])):2===i?(0===n&amp;&amp;(e[3*t+3][3*n+0]=u[0]),e[3*t+3][3*n+1]=a(e[3*t+3][3*n],e[3*t+3][3*n+3]),e[3*t+3][3*n+2]=a(e[3*t+3][3*n+3],e[3*t+3][3*n])):(e[3*t+1][3*n]=a(e[3*t][3*n],e[3*t+3][3*n]),e[3*t+2][3*n]=a(e[3*t+3][3*n],e[3*t][3*n]));break;case"c":0===i?(e[3*t][3*n+1]=u[0].add(e[3*t][3*n]),e[3*t][3*n+2]=u[1].add(e[3*t][3*n]),e[3*t][3*n+3]=u[2].add(e[3*t][3*n])):1===i?(e[3*t+1][3*n+3]=u[0].add(e[3*t][3*n+3]),e[3*t+2][3*n+3]=u[1].add(e[3*t][3*n+3]),e[3*t+3][3*n+3]=u[2].add(e[3*t][3*n+3])):2===i?(e[3*t+3][3*n+2]=u[0].add(e[3*t+3][3*n+3]),e[3*t+3][3*n+1]=u[1].add(e[3*t+3][3*n+3]),0===n&amp;&amp;(e[3*t+3][3*n+0]=u[2].add(e[3*t+3][3*n+3]))):(e[3*t+2][3*n]=u[0].add(e[3*t+3][3*n]),e[3*t+1][3*n]=u[1].add(e[3*t+3][3*n]));break;case"C":0===i?(e[3*t][3*n+1]=u[0],e[3*t][3*n+2]=u[1],e[3*t][3*n+3]=u[2]):1===i?(e[3*t+1][3*n+3]=u[0],e[3*t+2][3*n+3]=u[1],e[3*t+3][3*n+3]=u[2]):2===i?(e[3*t+3][3*n+2]=u[0],e[3*t+3][3*n+1]=u[1],0===n&amp;&amp;(e[3*t+3][3*n+0]=u[2])):(e[3*t+2][3*n]=u[0],e[3*t+1][3*n]=u[1]);break;default:console.error("mesh.js: "+c+" invalid path type.")}if(0===t&amp;&amp;0===n||r&gt;0){let e=window.getComputedStyle(o[r]).stopColor.match(/^rgb\s*\(\s*(\d+)\s*,\s*(\d+)\s*,\s*(\d+)\s*\)$/i),a=window.getComputedStyle(o[r]).stopOpacity,h=255;a&amp;&amp;(h=Math.floor(255*a)),e&amp;&amp;(0===i?(s[t][n]=[],s[t][n][0]=Math.floor(e[1]),s[t][n][1]=Math.floor(e[2]),s[t][n][2]=Math.floor(e[3]),s[t][n][3]=h):1===i?(s[t][n+1]=[],s[t][n+1][0]=Math.floor(e[1]),s[t][n+1][1]=Math.floor(e[2]),s[t][n+1][2]=Math.floor(e[3]),s[t][n+1][3]=h):2===i?(s[t+1][n+1]=[],s[t+1][n+1][0]=Math.floor(e[1]),s[t+1][n+1][1]=Math.floor(e[2]),s[t+1][n+1][2]=Math.floor(e[3]),s[t+1][n+1][3]=h):3===i&amp;&amp;(s[t+1][n]=[],s[t+1][n][0]=Math.floor(e[1]),s[t+1][n][1]=Math.floor(e[2]),s[t+1][n][2]=Math.floor(e[3]),s[t+1][n][3]=h))}}e[3*t+1][3*n+1]=new x,e[3*t+1][3*n+2]=new x,e[3*t+2][3*n+1]=new x,e[3*t+2][3*n+2]=new x,e[3*t+1][3*n+1].x=(-4*e[3*t][3*n].x+6*(e[3*t][3*n+1].x+e[3*t+1][3*n].x)+-2*(e[3*t][3*n+3].x+e[3*t+3][3*n].x)+3*(e[3*t+3][3*n+1].x+e[3*t+1][3*n+3].x)+-1*e[3*t+3][3*n+3].x)/9,e[3*t+1][3*n+2].x=(-4*e[3*t][3*n+3].x+6*(e[3*t][3*n+2].x+e[3*t+1][3*n+3].x)+-2*(e[3*t][3*n].x+e[3*t+3][3*n+3].x)+3*(e[3*t+3][3*n+2].x+e[3*t+1][3*n].x)+-1*e[3*t+3][3*n].x)/9,e[3*t+2][3*n+1].x=(-4*e[3*t+3][3*n].x+6*(e[3*t+3][3*n+1].x+e[3*t+2][3*n].x)+-2*(e[3*t+3][3*n+3].x+e[3*t][3*n].x)+3*(e[3*t][3*n+1].x+e[3*t+2][3*n+3].x)+-1*e[3*t][3*n+3].x)/9,e[3*t+2][3*n+2].x=(-4*e[3*t+3][3*n+3].x+6*(e[3*t+3][3*n+2].x+e[3*t+2][3*n+3].x)+-2*(e[3*t+3][3*n].x+e[3*t][3*n+3].x)+3*(e[3*t][3*n+2].x+e[3*t+2][3*n].x)+-1*e[3*t][3*n].x)/9,e[3*t+1][3*n+1].y=(-4*e[3*t][3*n].y+6*(e[3*t][3*n+1].y+e[3*t+1][3*n].y)+-2*(e[3*t][3*n+3].y+e[3*t+3][3*n].y)+3*(e[3*t+3][3*n+1].y+e[3*t+1][3*n+3].y)+-1*e[3*t+3][3*n+3].y)/9,e[3*t+1][3*n+2].y=(-4*e[3*t][3*n+3].y+6*(e[3*t][3*n+2].y+e[3*t+1][3*n+3].y)+-2*(e[3*t][3*n].y+e[3*t+3][3*n+3].y)+3*(e[3*t+3][3*n+2].y+e[3*t+1][3*n].y)+-1*e[3*t+3][3*n].y)/9,e[3*t+2][3*n+1].y=(-4*e[3*t+3][3*n].y+6*(e[3*t+3][3*n+1].y+e[3*t+2][3*n].y)+-2*(e[3*t+3][3*n+3].y+e[3*t][3*n].y)+3*(e[3*t][3*n+1].y+e[3*t+2][3*n+3].y)+-1*e[3*t][3*n+3].y)/9,e[3*t+2][3*n+2].y=(-4*e[3*t+3][3*n+3].y+6*(e[3*t+3][3*n+2].y+e[3*t+2][3*n+3].y)+-2*(e[3*t+3][3*n].y+e[3*t][3*n+3].y)+3*(e[3*t][3*n+2].y+e[3*t+2][3*n].y)+-1*e[3*t][3*n].y)/9}}this.nodes=e,this.colors=s}paintMesh(t,e){let s=(this.nodes.length-1)/3,r=(this.nodes[0].length-1)/3;if("bilinear"===this.type||s&lt;2||r&lt;2){let n;for(let o=0;o&lt;s;++o)for(let s=0;s&lt;r;++s){let r=[];for(let t=3*o,e=3*o+4;t&lt;e;++t)r.push(this.nodes[t].slice(3*s,3*s+4));let i=[];i.push(this.colors[o].slice(s,s+2)),i.push(this.colors[o+1].slice(s,s+2)),(n=new m(r,i)).paint(t,e)}}else{let n,o,a,h,l,d,u;const x=s,g=r;s++,r++;let w=new Array(s);for(let t=0;t&lt;s;++t){w[t]=new Array(r);for(let e=0;e&lt;r;++e)w[t][e]=[],w[t][e][0]=this.nodes[3*t][3*e],w[t][e][1]=this.colors[t][e]}for(let t=0;t&lt;s;++t)for(let e=0;e&lt;r;++e)0!==t&amp;&amp;t!==x&amp;&amp;(n=i(w[t-1][e][0],w[t][e][0]),o=i(w[t+1][e][0],w[t][e][0]),w[t][e][2]=c(w[t-1][e][1],w[t][e][1],w[t+1][e][1],n,o)),0!==e&amp;&amp;e!==g&amp;&amp;(n=i(w[t][e-1][0],w[t][e][0]),o=i(w[t][e+1][0],w[t][e][0]),w[t][e][3]=c(w[t][e-1][1],w[t][e][1],w[t][e+1][1],n,o));for(let t=0;t&lt;r;++t){w[0][t][2]=[],w[x][t][2]=[];for(let e=0;e&lt;4;++e)n=i(w[1][t][0],w[0][t][0]),o=i(w[x][t][0],w[x-1][t][0]),w[0][t][2][e]=n&gt;0?2*(w[1][t][1][e]-w[0][t][1][e])/n-w[1][t][2][e]:0,w[x][t][2][e]=o&gt;0?2*(w[x][t][1][e]-w[x-1][t][1][e])/o-w[x-1][t][2][e]:0}for(let t=0;t&lt;s;++t){w[t][0][3]=[],w[t][g][3]=[];for(let e=0;e&lt;4;++e)n=i(w[t][1][0],w[t][0][0]),o=i(w[t][g][0],w[t][g-1][0]),w[t][0][3][e]=n&gt;0?2*(w[t][1][1][e]-w[t][0][1][e])/n-w[t][1][3][e]:0,w[t][g][3][e]=o&gt;0?2*(w[t][g][1][e]-w[t][g-1][1][e])/o-w[t][g-1][3][e]:0}for(let s=0;s&lt;x;++s)for(let r=0;r&lt;g;++r){let n=i(w[s][r][0],w[s+1][r][0]),o=i(w[s][r+1][0],w[s+1][r+1][0]),c=i(w[s][r][0],w[s][r+1][0]),x=i(w[s+1][r][0],w[s+1][r+1][0]),g=[[],[],[],[]];for(let t=0;t&lt;4;++t){(d=[])[0]=w[s][r][1][t],d[1]=w[s+1][r][1][t],d[2]=w[s][r+1][1][t],d[3]=w[s+1][r+1][1][t],d[4]=w[s][r][2][t]*n,d[5]=w[s+1][r][2][t]*n,d[6]=w[s][r+1][2][t]*o,d[7]=w[s+1][r+1][2][t]*o,d[8]=w[s][r][3][t]*c,d[9]=w[s+1][r][3][t]*x,d[10]=w[s][r+1][3][t]*c,d[11]=w[s+1][r+1][3][t]*x,d[12]=0,d[13]=0,d[14]=0,d[15]=0,u=f(d);for(let e=0;e&lt;9;++e){g[t][e]=[];for(let s=0;s&lt;9;++s)g[t][e][s]=p(u,e/8,s/8),g[t][e][s]&gt;255?g[t][e][s]=255:g[t][e][s]&lt;0&amp;&amp;(g[t][e][s]=0)}}h=[];for(let t=3*s,e=3*s+4;t&lt;e;++t)h.push(this.nodes[t].slice(3*r,3*r+4));l=y(h);for(let s=0;s&lt;8;++s)for(let r=0;r&lt;8;++r)(a=new m(l[s][r],[[[g[0][s][r],g[1][s][r],g[2][s][r],g[3][s][r]],[g[0][s][r+1],g[1][s][r+1],g[2][s][r+1],g[3][s][r+1]]],[[g[0][s+1][r],g[1][s+1][r],g[2][s+1][r],g[3][s+1][r]],[g[0][s+1][r+1],g[1][s+1][r+1],g[2][s+1][r+1],g[3][s+1][r+1]]]])).paint(t,e)}}}transform(t){if(t instanceof x)for(let e=0,s=this.nodes.length;e&lt;s;++e)for(let s=0,r=this.nodes[0].length;s&lt;r;++s)this.nodes[e][s]=this.nodes[e][s].add(t);else if(t instanceof g)for(let e=0,s=this.nodes.length;e&lt;s;++e)for(let s=0,r=this.nodes[0].length;s&lt;r;++s)this.nodes[e][s]=this.nodes[e][s].transform(t)}scale(t){for(let e=0,s=this.nodes.length;e&lt;s;++e)for(let s=0,r=this.nodes[0].length;s&lt;r;++s)this.nodes[e][s]=this.nodes[e][s].scale(t)}}document.querySelectorAll("rect,circle,ellipse,path,text").forEach((r,n)=&gt;{let o=r.getAttribute("id");o||(o="patchjs_shape"+n,r.setAttribute("id",o));const i=r.style.fill.match(/^url\(\s*"?\s*#([^\s"]+)"?\s*\)/),a=r.style.stroke.match(/^url\(\s*"?\s*#([^\s"]+)"?\s*\)/);if(i&amp;&amp;i[1]){const a=document.getElementById(i[1]);if(a&amp;&amp;"meshgradient"===a.nodeName){const i=r.getBBox();let l=document.createElementNS(s,"canvas");d(l,{width:i.width,height:i.height});const c=l.getContext("2d");let u=c.createImageData(i.width,i.height);const f=new b(a);"objectBoundingBox"===a.getAttribute("gradientUnits")&amp;&amp;f.scale(new x(i.width,i.height));const p=a.getAttribute("gradientTransform");null!=p&amp;&amp;f.transform(h(p)),"userSpaceOnUse"===a.getAttribute("gradientUnits")&amp;&amp;f.transform(new x(-i.x,-i.y)),f.paintMesh(u.data,l.width),c.putImageData(u,0,0);const y=document.createElementNS(t,"image");d(y,{width:i.width,height:i.height,x:i.x,y:i.y});let g=l.toDataURL();y.setAttributeNS(e,"xlink:href",g),r.parentNode.insertBefore(y,r),r.style.fill="none";const w=document.createElementNS(t,"use");w.setAttributeNS(e,"xlink:href","#"+o);const m="patchjs_clip"+n,M=document.createElementNS(t,"clipPath");M.setAttribute("id",m),M.appendChild(w),r.parentElement.insertBefore(M,r),y.setAttribute("clip-path","url(#"+m+")"),u=null,l=null,g=null}}if(a&amp;&amp;a[1]){const o=document.getElementById(a[1]);if(o&amp;&amp;"meshgradient"===o.nodeName){const i=parseFloat(r.style.strokeWidth.slice(0,-2))*(parseFloat(r.style.strokeMiterlimit)||parseFloat(r.getAttribute("stroke-miterlimit"))||1),a=r.getBBox(),l=Math.trunc(a.width+i),c=Math.trunc(a.height+i),u=Math.trunc(a.x-i/2),f=Math.trunc(a.y-i/2);let p=document.createElementNS(s,"canvas");d(p,{width:l,height:c});const y=p.getContext("2d");let g=y.createImageData(l,c);const w=new b(o);"objectBoundingBox"===o.getAttribute("gradientUnits")&amp;&amp;w.scale(new x(l,c));const m=o.getAttribute("gradientTransform");null!=m&amp;&amp;w.transform(h(m)),"userSpaceOnUse"===o.getAttribute("gradientUnits")&amp;&amp;w.transform(new x(-u,-f)),w.paintMesh(g.data,p.width),y.putImageData(g,0,0);const M=document.createElementNS(t,"image");d(M,{width:l,height:c,x:0,y:0});let S=p.toDataURL();M.setAttributeNS(e,"xlink:href",S);const k="pattern_clip"+n,A=document.createElementNS(t,"pattern");d(A,{id:k,patternUnits:"userSpaceOnUse",width:l,height:c,x:u,y:f}),A.appendChild(M),o.parentNode.appendChild(A),r.style.stroke="url(#"+k+")",g=null,p=null,S=null}}})}();
</script><g transform="translate(-1.2595 16.374)"><path d="m222.04 706.09c-3.6162-0.56156-4.1454-1.6841-5.1606-10.947-0.76528-6.9824-1.2776-9.0591-2.3105-9.3662-1.803-0.53619-7.0994 2.1591-7.7834 3.9609-0.30441 0.80189 0.14474 4.2548 0.9981 7.673 1.4747 5.9073 1.4623 6.3138-0.25183 8.2076-1.3832 1.5283-3.2557 2.1517-8.0366 2.6757-7.1573 0.78444-9.6291-0.23624-11.548-4.7684-2.3871-5.6385-5.9724-21.775-7.087-31.897-1.4452-13.121-1.0463-19.933 1.3338-22.795 2.0459-2.4601 10.422-5.7524 14.483-5.6924l2.625 0.0388 1.1712 10.686c1.3528 12.342 2.4009 14.222 7.0082 12.563 3.901-1.4039 4.3883-3.8598 2.6662-13.437-1.4142-7.8645-1.399-8.3608 0.30619-9.9946 3.5763-3.4266 14.523-2.475 18.359 1.5959 2.5616 2.7182 5.8804 18.798 7.3393 35.559 1.8944 21.764 0.83973 25.124-8.1203 25.867-2.3103 0.19174-5.0064 0.22329-5.9914 0.0703zm23.369-3.4662c-1.4485-1.2759-1.7536-2.6615-2.0325-9.2281-0.55119-12.979 3.6307-36.738 7.2341-41.1 1.5816-1.9148 12.123-5.2487 14.428-4.5632 5.3078 1.5785 17.37 26.41 20.544 42.293 1.4522 7.2666 1.1029 7.7122-6.7338 8.5916-7.5498 0.84718-9.7055-0.43507-10.331-6.1449-0.43801-3.9964-0.60138-4.2217-2.88-3.972-4.1792 0.45805-6.019 3.0856-5.4967 7.8507 0.43813 3.9974 0.32989 4.2304-2.3146 4.9814-9.3627 2.6588-10.706 2.7985-12.417 1.2914zm19.97-25.7c0.78209-1.0013-2.8728-7.5934-4.3956-7.9282-1.1648-0.25607-2.4218 4.9167-2.0404 8.3966 0.23155 2.1126 0.49729 2.2322 3.009 1.3545 1.5153-0.52953 3.0574-1.3498 3.4269-1.8229zm114.08 11.92c-3.123-0.47227-6.1149-3.5924-6.4595-6.7364-0.5326-4.8594-0.43139-27.123 0.15718-34.579 0.30251-3.8323 1.0113-7.6 1.575-8.3727 0.56375-0.77268 3.5869-2.1662 6.7181-3.0968 7.7407-2.3004 7.6756-2.3595 16.798 15.23l1.8941 3.6523 1.0266-8.3147c1.6024-12.979 1.8355-13.312 9.5716-13.687 4.8005-0.23231 7.8054 1.086 9.571 4.1991 4.0518 7.1441 10.723 30.756 10.365 36.685-0.29894 4.9507-3.2422 7.8544-9.091 8.969-3.0231 0.57608-5.3244 0.58255-5.7316 0.0145-0.37421-0.52144-0.58895-3.6943-0.4772-7.0508 0.2171-6.5201-1.6786-16.352-3.4544-17.916-1.3774-1.2133-2.1566 3.975-2.2335 14.871-0.0753 10.667-1.3903 12.166-9.3562 10.663-3.1559-0.59532-3.2834-0.77461-4.9314-6.9326-2.487-9.2937-4.1639-13.288-5.5163-13.14-1.7537 0.19221-1.5474 9.0467 0.38112 16.363 1.4128 5.3596 1.4458 6.2596 0.2724 7.4486-1.2972 1.3146-7.4608 2.2769-11.079 1.7297zm-77.047 6.1166c-7.0863-2.8966-12.195-10.933-14.578-22.933-1.5549-7.8287-1.3181-18.168 0.47868-20.905 0.71015-1.0818 3.8976-3.1641 7.0833-4.6275 8.3454-3.8336 8.5776-3.5261 8.9114 11.802 0.21456 9.8533 0.57152 12.839 2.0392 17.056 1.4142 4.0636 2.136 5.0732 3.5186 4.9217 1.2983-0.14229 1.9343-1.3133 2.5076-4.6172 0.65063-3.7495 0.42885-5.9391-1.45-14.316-3.2921-14.677-3.2777-14.232-0.53209-16.467 1.3356-1.0871 4.0306-2.442 5.9888-3.0108 3.0794-0.89454 3.8897-0.74425 5.9975 1.1125 3.6375 3.2042 5.3289 8.7978 5.9962 19.83 0.69807 11.54-0.44449 18.471-3.9902 24.206-4.9313 7.9763-13.934 11.232-21.971 7.947zm43.775-4.2208c-4.8333-1.3708-10.287-5.3864-11.725-8.6336-1.5797-3.5658-0.24702-8.2587 3.1608-11.131l2.6643-2.2452 3.9862 4.0218c4.3111 4.3495 7.3019 4.6774 7.3811 0.80927 0.0347-1.6947-0.88499-2.5092-4.5943-4.0684-12.301-5.1709-16.393-12.912-12.164-23.013 3.9787-9.5026 20.366-11.709 27.548-3.7083 2.9009 3.2315 3.0198 6.4352 0.37356 10.062-2.8172 3.8613-6.1793 4.3845-8.8754 1.381-2.3381-2.6046-5.4141-2.6486-5.1319-0.0734 0.12527 1.143 1.8877 2.5126 5.0512 3.9253 10.775 4.8116 13.881 8.1793 14.729 15.965 0.9684 8.8907-4.0386 15.176-13.392 16.813-3.3466 0.58551-6.7144 0.54618-9.0112-0.10526zm92.714-10.374c-3.1043-2.2333-6.3229-18.792-6.6913-34.425-0.36614-15.538-0.35603-15.552 12.402-17.437 13.536-1.9996 17.132-0.32004 17.426 8.1386l0.13158 3.7804-7.6204 1.1147c-5.8955 0.86234-7.7002 1.4594-7.973 2.6374-0.64825 2.7997 1.9805 3.8987 6.3286 2.6457 5.4094-1.5589 6.8058-0.72601 7.367 4.3939 0.72114 6.5796 0.32566 7.2306-4.7401 7.8026-5.2056 0.58774-6.8465 1.7019-6.1084 4.1477 0.44024 1.4588 1.2452 1.6491 4.7526 1.1238 2.3224-0.3478 5.8546-1.536 7.8493-2.6405 5.3226-2.9471 6.1754-2.337 6.9787 4.9922 0.5901 5.384 0.44142 6.42-1.1229 7.824-5.421 4.8653-24.905 8.8329-28.98 5.9013zm37.439-3.2742c-1.0763-0.63118-1.8215-4.0084-3.3892-15.36-3.4631-25.074-3.6617-28.142-2.0222-31.225 1.7143-3.224 7.2862-6.0079 12.362-6.1763l3.508-0.11642 0.51163 8.6286c0.76353 12.877 2.8608 30.986 4.1078 35.468 0.99462 3.5751 0.90755 4.1266-0.90929 5.7594-2.3454 2.1078-12.159 4.2005-14.169 3.0216zm32.004-3.9216c-7.653-2.2018-12.947-6.6428-13.456-11.288-0.28196-2.5726 1.9265-7.024 4.5427-9.1564 2.7135-2.2117 2.2643-2.4508 7.4735 3.9787 2.0636 2.547 5.7079 2.6837 6.2747 0.23542 0.51884-2.2408 0.10778-2.5992-7.2442-6.3166-7.7174-3.9021-10.417-7.1582-11.105-13.396-0.60009-5.4385 1.5006-10.275 5.9922-13.796 6.6603-5.2209 19.155-3.9865 23.638 2.3353 2.6381 3.7207 2.63 4.4863-0.0928 8.7708-2.8429 4.4736-6.0238 5.1613-9.3689 2.0254-2.5569-2.397-5.5666-2.6049-5.3214-0.36754 0.0871 0.79434 1.5205 2.1277 3.1853 2.9629 1.6649 0.83525 5.2386 2.6954 7.9415 4.1336 14.626 7.7826 11.911 26.785-4.2706 29.885-2.8983 0.55523-6.2439 0.55231-8.1885-7e-3zm72.588-7.6577c-1.3251-0.41955-2.3722-1.8329-3.099-4.1828-1.6953-5.4813-5.0862-39.343-4.2528-42.468 0.94896-3.5582 4.8857-5.165 15.529-6.3383 7.6008-0.83808 8.6891-0.73432 11.054 1.0521 2.1676 1.6373 2.7231 2.7917 3.198 6.6455l0.57467 4.664-7.7754 1.3347c-7.1056 1.2197-7.7789 1.5115-7.8169 3.3876-0.0537 2.6501 1.5681 3.0758 6.1651 1.6183 2.0413-0.64719 4.2548-1.0151 4.9188-0.81764 1.7594 0.52323 2.8982 4.5311 2.4398 8.587-0.39295 3.4766-0.47568 3.5457-5.4764 4.5689-3.6098 0.73865-5.3008 1.5595-5.85 2.8398-1.7434 4.0638 4.2039 3.8793 12.994-0.40294 3.9075-1.9037 4.1757-1.9201 5.5339-0.33805 2.0164 2.3487 2.2983 11.562 0.41141 13.447-3.7361 3.7325-23.197 8.0971-28.548 6.4027zm36.109-5.5207c-1.0112-1.721-2.1334-7.0364-3.316-15.707-1.842-13.504-1.9188-23.773-0.21495-28.722 2.1887-6.3573 18.829-10.509 26.879-6.7058 5.2826 2.4956 7.8139 5.5594 8.9458 10.828 1.1365 5.2901 0.2148 10.503-2.6559 15.02l-2.2141 3.4841 1.9504 1.7181c1.0727 0.94496 2.7559 3.0642 3.7404 4.7094 0.98448 1.6452 2.6678 3.5994 3.7408 4.3427 1.1718 0.8117 1.8059 1.9772 1.588 2.9185-0.58839 2.5413-6.5451 6.1918-10.878 6.6667l-3.9698 0.43509-3.5108-6.1288c-2.6048-4.5472-3.9596-6.0796-5.2502-5.9381-1.5581 0.17077-1.6542 0.73469-0.92152 5.4083 0.98809 6.3032-0.13916 7.6848-7.5472 9.2503-4.6524 0.98313-4.896 0.92271-6.3659-1.5791zm15.261-30.645c2.923-3.6133-0.21336-9.1663-3.7082-6.5655-2 1.4884-1.2869 8.71 0.83706 8.4772 0.79946-0.0876 2.0915-0.94787 2.8711-1.9117zm38.683 25.998c-7.653-2.2018-12.947-6.6428-13.456-11.288-0.28196-2.5726 1.9265-7.024 4.5427-9.1564 2.7135-2.2117 2.2643-2.4508 7.4735 3.9787 2.0636 2.547 5.7079 2.6837 6.2747 0.23541 0.51884-2.2408 0.10778-2.5992-7.2442-6.3165-7.7174-3.9021-10.417-7.1582-11.105-13.396-0.59909-5.4386 1.5006-10.275 5.9922-13.796 6.6603-5.2209 19.155-3.9865 23.638 2.3353 2.6381 3.7207 2.63 4.4863-0.0928 8.7708-2.8429 4.4736-6.0239 5.1613-9.3689 2.0254-2.5569-2.397-5.5666-2.6049-5.3214-0.36754 0.0871 0.79434 1.5205 2.1277 3.1853 2.9629 1.6649 0.83525 5.2386 2.6954 7.9415 4.1336 14.626 7.7826 11.911 26.785-4.2706 29.885-2.8983 0.55522-6.244 0.55231-8.1885-7e-3zm30.576-3.7665c-3.1043-2.2333-6.3229-18.792-6.6913-34.425-0.36614-15.538-0.35603-15.552 12.402-17.437 13.536-1.9996 17.132-0.32004 17.426 8.1386l0.13157 3.7804-7.6204 1.1147c-5.8954 0.86235-7.7002 1.4594-7.973 2.6374-0.64825 2.7997 1.9806 3.8987 6.3286 2.6457 5.4093-1.5589 6.8058-0.72601 7.367 4.3939 0.72113 6.5796 0.32565 7.2306-4.7402 7.8026-5.2056 0.58774-6.8464 1.7019-6.1084 4.1477 0.44024 1.4588 1.2452 1.6491 4.7526 1.1238 2.3224-0.3478 5.8546-1.536 7.8493-2.6405 5.3226-2.9471 6.1754-2.337 6.9787 4.9922 0.5901 5.384 0.44141 6.4201-1.1229 7.824-5.421 4.8653-24.905 8.8329-28.98 5.9013zm37.46-3.732c-3.6673-3.8807-6.8874-31.141-4.9221-41.669 0.89233-4.7798 1.4053-5.6043 5.081-8.167 3.3364-2.326 5.3687-2.9894 11.047-3.606 12.57-1.3648 19.283 3.278 20.476 14.162 0.64987 5.9294-1.4396 13.281-4.213 14.823-1.2319 0.68485-1.1012 1.0569 1.0993 3.1287 1.3736 1.2933 3.2797 3.6554 4.2358 5.2491 0.95608 1.5937 2.4078 3.2138 3.226 3.6001 4.0437 1.9094-0.71454 8.0178-7.3735 9.4658-5.0271 1.0932-7.5151-0.2018-8.9229-4.6442-1.0634-3.3556-4.447-7.1776-6.1857-6.987-1.0699 0.11726-1.1517 1.199-0.42313 5.5949 0.89495 5.3997 0.87702 5.4679-1.9582 7.4504-3.4099 2.3844-9.5886 3.2691-11.167 1.599zm15.299-32.641c2.0809-4.543-1.202-8.363-4.4844-5.218-1.6247 1.5567-1.907 6.2019-0.45468 7.4812 1.3984 1.2318 3.8535 0.10683 4.9391-2.2632zm38.76 26.164c-7.4129-3.8602-18.836-32.181-16.077-39.859 1.3234-3.683 11.428-9.585 15.004-8.7639 1.7341 0.39818 1.843 0.95458 2.6421 13.5 1.0858 17.049 3.3566 22.411 6.2112 14.667 0.97829-2.6539 0.9519-5.4509-0.14037-14.88l-1.3451-11.612 4.1338-2.4593c2.2736-1.3526 5.5533-2.8717 7.2883-3.3756 6.087-1.7682 7.9938 4.1767 6.7053 20.905-0.88718 11.517-3.2727 21.912-5.9253 25.818-2.0915 3.08-8.9832 6.8886-13.311 7.3559-1.229 0.13168-3.5623-0.45027-5.1854-1.2955zm35.503-2.8832c-1.0763-0.63117-1.8215-4.0084-3.3892-15.36-3.4631-25.074-3.6617-28.142-2.0222-31.225 1.7143-3.224 7.2862-6.0079 12.362-6.1763l3.508-0.11641 0.51163 8.6286c0.76354 12.877 2.8608 30.986 4.1078 35.468 0.99462 3.5751 0.90753 4.1266-0.9093 5.7594-2.3454 2.1078-12.159 4.2005-14.169 3.0216zm35.62-3.946c-9.6642-2.0874-15.905-9.2103-17.876-20.403-1.4693-8.3422-0.22556-14.789 4.1471-21.497 9.6426-14.792 32.244-13.926 33.927 1.2988 0.5402 4.8829-1.1397 8.1204-5.4503 10.507-4.0661 2.2514-5.5054 1.9343-5.8589-1.2907-0.37774-3.4465-3.4897-6.3217-5.7028-5.2689-2.6702 1.2702-3.9125 5.8775-3.2398 12.015 0.51057 4.6584 0.96309 5.6954 3.4358 7.8736 3.583 3.1562 5.1795 2.9693 9.9208-1.1616 2.0904-1.8213 4.165-3.3514 4.61-3.4002 0.44509-0.0488 2.3387 1.0914 4.208 2.5337 4.6425 3.5821 4.9657 6.9084 1.0943 11.263-1.592 1.7905-4.5777 4.1034-6.6349 5.1398-3.8994 1.9645-12.686 3.231-16.58 2.3899zm35.053-3.9155c-1.3251-0.41954-2.3722-1.8329-3.099-4.1828-1.6953-5.4813-5.0862-39.343-4.2528-42.468 0.94895-3.5582 4.8857-5.165 15.529-6.3383 7.6007-0.83808 8.6891-0.73432 11.054 1.0521 2.1675 1.6373 2.7231 2.7917 3.1979 6.6455l0.57467 4.664-7.7754 1.3347c-7.1056 1.2197-7.7789 1.5115-7.817 3.3876-0.0537 2.6501 1.5681 3.0758 6.1651 1.6183 2.0413-0.64719 4.2548-1.0151 4.9188-0.81763 1.7594 0.52322 2.8982 4.5311 2.4398 8.587-0.39295 3.4766-0.47568 3.5456-5.4764 4.5689-3.6098 0.73864-5.3008 1.5595-5.85 2.8398-1.7434 4.0638 4.2039 3.8793 12.994-0.40294 3.9075-1.9037 4.1757-1.92 5.5339-0.33805 2.0164 2.3487 2.2983 11.562 0.41142 13.447-3.7362 3.7325-23.197 8.0971-28.548 6.4027zm-351.42 36.893c-1.3421-1.1822-1.6657-2.5394-1.7378-7.288-0.19797-13.051-0.9401-22.205-1.8985-23.419-0.84903-1.075-1.7341-1.0003-5.8236 0.4914-4.2239 1.5407-5.0144 1.5898-6.3697 0.39598-1.3366-1.1774-1.5074-2.2344-1.2539-7.7625 0.44088-9.6145 1.2589-10.418 10.908-10.709 5.0947-0.15368 9.7674-0.86521 13.032-1.9845 9.5309-3.2674 10.324-3.3767 11.257-1.5508 4.0386 7.9038 2.9472 16.27-2.2107 16.947-0.78228 0.10264-2.242 1.0922-3.2438 2.199-1.818 2.0086-1.8172 2.0321 0.38198 12.261 1.2119 5.637 2.5967 11.766 3.0774 13.62 0.8126 3.1346 0.67294 3.5054-1.9902 5.2842-3.8517 2.5726-11.942 3.4396-14.128 1.514z" stroke-width="1.2215"/><path d="m936.28 634.91c1.8296 1.1875 5.6674 19.825 3.2634 21.943l-0.80034 10.283-180.58 21.269c-90.88 9.5569-207.42 21.458-214.41 20.424-6.6948-1.5394-15.176-18.156-16.458-22.696-3.0772-7.609 44.654-1.5482 212.87-20.436 98.212-10.911 194.2-32.434 196.12-30.788z"/><path d="m293.33 624.64c-12.161-3.372-19.712-20.641-17.392-39.774 1.7737-14.627 9.5194-23.94 20.953-25.194 10.828-1.1868 19.749 6.5581 18.099 15.714-0.49721 2.76-6.7844 9.3868-9.1519 9.6463-1.2403 0.13594-2.474-0.69737-3.1628-2.1365-2.0039-4.1862-4.203-4.8026-6.0891-1.7068-2.2034 3.6165-1.5486 16.186 1.1584 22.239 2.1424 4.7903 5.8629 7.0142 7.6686 4.5839 1.754-2.3608 1.0468-5.3631-1.7021-7.2264-5.3101-3.5993-1.3253-10.395 7.3531-12.541 4.0328-0.99698 4.9454-0.84269 6.8718 1.1618 1.9728 2.0528 2.2862 3.233 2.8013 10.549 0.73381 10.423-1.378 16.472-7.487 21.446-4.8242 3.9281-12.772 5.2199-19.92 3.2378zm45.122-5.1849c-4.5942-2.1768-6.5116-4.3611-9.5733-10.906-3.1081-6.644-5.0548-17.485-4.6414-25.846 0.29856-6.0381 0.61561-6.8748 3.5212-9.2932 1.7562-1.4617 4.6424-2.9284 6.4138-3.2595l3.2208-0.60187 1.313 14.744c1.3603 15.275 2.7772 20.883 5.209 20.616 2.3281-0.25516 2.6596-5.9156 0.94522-16.137-0.8818-5.2574-2.0048-11.144-2.4954-13.081-0.73739-2.9113-0.54895-3.886 1.086-5.6173 1.088-1.1522 3.6172-2.377 5.6203-2.7219 3.0876-0.53165 3.9796-0.17091 5.8596 2.3699 1.9723 2.6656 2.3776 4.4576 3.6651 16.204 1.3402 12.228 1.3168 13.714-0.31601 20.044-3.0239 11.723-11.451 17.454-19.828 13.485zm99.184-9.7341c-0.99168-0.69915-1.9405-5.933-4.0015-22.073-2.2638-17.728-2.5314-21.611-1.651-23.963 1.2358-3.3006 6.0454-6.0848 10.409-6.0254l3.0922 0.0421 0.49437 8.5352c0.72033 12.436 2.8158 30.613 4.0083 34.77 0.8722 3.0404 0.744 3.9084-0.82209 5.5668-2.2452 2.3776-9.7248 4.4194-11.529 3.1473zm-61.235 4.9518c-0.81215-1.0085-1.4714-5.9055-2.211-16.424l-1.0538-14.987-11.094 1.9098-0.46801-6.129c-0.80819-10.584-0.17546-11.272 12.208-13.279 5.8546-0.94882 11.819-2.2068 13.255-2.7954 2.3318-0.95631 2.7628-0.72578 4.0464 2.1639 0.79018 1.7788 1.5284 5.2231 1.6405 7.6539 0.18659 4.0457-0.13203 4.6825-3.7658 7.5262l-3.9697 3.1065 1.553 9.1834c0.85416 5.0509 2.0508 11.469 2.6591 14.263 1.0266 4.7144 0.95072 5.1958-1.057 6.701-2.9522 2.2133-10.294 2.906-11.742 1.1078zm34.457-3.9148c-1.3862-1.4424-1.6874-2.8344-1.66-7.6713 0.0184-3.25-0.38518-9.7285-0.8968-14.397l-0.93023-8.4874-10.46 1.1465-0.61376-6.5465c-0.93626-9.9868 0.0545-11.143 10.528-12.291 4.6835-0.51332 10.469-1.7602 12.858-2.7708 4.8876-2.0682 5.5321-1.6356 7.2344 4.8558 1.6341 6.2311 0.8373 9.2515-3.1952 12.112l-3.6578 2.5946 0.78992 7.2072c0.43445 3.964 1.5612 10.076 2.5038 13.582 2.205 8.2013 1.3297 9.9328-5.7577 11.39-3.9465 0.8115-5.418 0.65338-6.7418-0.72409z" stroke-width="1.3322"/><path d="m488.69 604.16c-6.8029 0.23562-12.551-3.7777-12.221-8.532 0.16702-2.4019 2.7977-7.7636 4.0481-8.2505 0.33591-0.13078 1.6922 0.86842 3.0141 2.2205 2.8759 2.9416 4.985 3.2409 6.0716 0.86144 1.0763-2.3566 0.0131-3.2212-5.0646-4.1185-5.9655-1.0541-9.5626-3.916-10.699-8.5118-1.7958-7.2658 1.9918-14.576 8.9576-17.288 9.1064-3.5457 16.734 2.2749 12.725 9.7105-2.0365 3.777-3.5008 4.2654-6.9233 2.309-2.0439-1.1684-2.9623-1.2373-3.4105-0.25608-0.88286 1.9331 0.38587 2.8424 5.1375 3.682 10.539 1.8623 15.59 10.208 11.543 19.07-2.4106 5.2782-7.6717 8.9124-13.178 9.1031zm-35.779-38.029c-2.3173-3.1022-0.69728-18.742-2.5812-24.408 5.098 2.0906 15.815 10.738 17.055 12.506 1.1786 1.6803 1.2656 10.217 1.0913 15.881-0.0906 2.9427-4.5934 28.489-4.2632 18.386 0.0563-1.7222 1.7232-15.545-1.0598-17.132-2.802-1.597-8.769-5.603-10.242-5.2347z" stroke-width="1.176"/></g><path d="m132.09 632.47c-0.73487 3.3292-1.1404 3.5708-5.4192 3.2277l-4.6247-0.37086 0.85809 3.9705c2.4042 11.123 2.3031 12.455-1.1527 15.175-4.5039 3.545-7.8115 3.2561-13.3-1.1613-2.5653-2.0647-8.3241-6.1179-12.797-9.0069-4.7451-3.0646-8.6186-6.5283-9.2984-8.3145-1.6305-4.2846-1.4526-9.5714 0.37296-11.087 3.8995-3.2383 31.892-5.0745 40.364-2.6478 5.9165 1.6949 6.5793 3.0498 4.9976 10.216zm-20.039 3.7026c-0.51134-1.3316-2.2995-1.8966-5.9979-1.8954-2.8981 8.7e-4 -5.2691 0.40732-5.269 0.90323 2.5e-4 0.92468 9.4787 6.3016 11.097 6.2951 1.0852-4e-3 1.1713-2.6956 0.1699-5.3029zm19.961-31.64c-1.6298 5.2108-5.6871 10.107-9.7848 11.806-3.6249 1.5025-3.9609 1.3978-7.2288-2.2569-3.897-4.3588-4.4289-7.3934-1.2961-7.3944 3.9424-1e-3 7.629-3.5781 7.2301-7.0151-0.28908-2.4916-1.0167-3.1822-3.3514-3.1816-2.0341 6.3e-4 -3.1236 0.7636-3.4269 2.3999-1.1135 6.0083-7.0042 7.3857-10.272 2.4021-2.3738-3.6206-6.7086-4.0596-6.7075-0.67941 3.37e-4 1.2745 1.6204 3.4697 3.5998 4.8784 4.2386 3.0161 4.4647 4.6154 1.1552 8.1697-3.154 3.3875-4.9536 3.3097-9.3709-0.4048-11.091-9.3269-8.1997-28.151 4.325-28.155 2.5443-7.8e-4 5.645 0.7434 6.8907 1.6536 2.0142 1.472 2.6466 1.2728 5.7186-1.801 6.1718-6.1756 16.109-3.8668 20.585 4.7827 2.305 4.4541 3.1488 10.91 1.934 14.796zm0.2528-53.627c-2.067 8.266-9.6136 13.026-20.718 13.068-9.5628 0.0369-17.727-3.5126-22.515-9.7855-2.7573-3.6127-3.2676-5.4602-3.2695-11.838-0.0019-6.2023 0.47386-8.0332 2.6541-10.215 2.4166-2.418 2.9393-2.5067 5.79-0.98212 4.0104 2.1447 6.0475 5.7485 4.2603 7.5368-2.0384 2.0397-1.5418 7.445 0.88581 9.6406 2.9571 2.6745 5.5272 2.6066 4.3622-0.11531-4.6903-10.959 1.0557-19.492 13.128-19.495 10.512-4e-3 18.204 11.061 15.422 22.185zm-12.557-7.5529c-1.8024-1.8006-5.352-1.8656-6.4319-0.11699-1.174 1.9009 3.6855 6.358 5.9738 5.4791 2.254-0.86588 2.4666-3.3548 0.45814-5.3621zm11.763-27.231c-2.1293 4.8897-4.9496 7.0044-8.2412 6.1794-1.5069-0.37784-7.4373-4.4844-13.179-9.126-5.7413-4.6416-10.724-8.4391-11.072-8.439-1.2476 4.2e-4 -0.49374 7.886 1.204 12.594 2.6423 7.3273 2.385 8.2193-2.1115 7.3214-2.1334-0.42578-5.8523-2.0796-8.2643-3.6748l-4.3855-2.9003 0.43453-13.565c0.23891-7.4609 0.44707-13.909 0.46235-14.328 0.03056-0.87207 7.6029-4.637 9.3259-4.6375 0.62715-4.8e-4 4.8646 3.286 9.4167 7.3025 5.0164 4.4261 12.175 9.1622 18.174 12.023 5.4434 2.5962 9.8761 5.3798 9.8506 6.1857-0.0272 0.80586-0.75182 3.085-1.6139 5.0646zm-0.34473-44.67c-3.4727 8.3804-8.22 7.3456-22.887-4.9888-4.7786-4.0186-8.9628-7.3065-9.298-7.3064-1.3204 3.6e-4 -0.50666 8.7132 1.1935 12.779 0.99143 2.3676 1.8008 5.0493 1.801 5.9583 6.9e-4 2.2225-4.0576 2.0888-8.7558-0.28847-7.7325-3.9126-7.8027-4.0919-7.3631-18.807 0.35976-12.045 0.66859-13.649 2.9897-15.532 4.6873-3.8023 8.51-2.6786 17.315 5.0897 7.2686 6.4127 12.976 9.831 23.697 14.194 3.7573 1.529 3.9159 2.6079 1.3078 8.9015zm0.73423-61.027c-3.112 10.405-16.22 15.373-30.275 11.475-5.2186-1.4476-12.198-7.1523-14.726-12.037-3.8441-7.4284-0.88265-20.272 4.6748-20.274 3.7703-1e-3 8.9453 5.5056 7.0016 7.4504-2.2061 2.2075-1.6791 7.883 0.97869 10.539 2.9901 2.9883 5.3672 3.1576 4.194 0.29855-0.47323-1.1545-1.1337-4.3154-1.4666-7.0245-0.51642-4.2028-0.0957-5.4966 2.8676-8.815 7.1495-8.0066 19.97-5.5835 25.288 4.7793 2.8622 5.5777 3.1271 8.041 1.4622 13.607zm-11.81-7.455c-1.2969-2.0447-6.7434-1.3372-6.7427 0.8759 6.6e-4 2.2897 3.4487 4.2728 5.8353 3.3562 2.1899-0.84102 2.4092-1.8642 0.9074-4.2321zm11.276-30.785c-1.959 5.4216-7.9156 11.397-11.362 11.398-2.4899 8e-4 -5.3334-2.3878-7.3704-6.1913-1.4978-2.7969-1.3805-2.9651 3.9067-5.6074 4.5735-2.2856 6.1956-7.7204 2.7039-9.0591-2.5352-0.97172-5.31 1.2462-5.3091 4.2437 3.5e-4 1.3676-1.2792 2.7688-3.194 3.4975-2.7806 1.0583-3.682 0.74368-6.9547-2.4265-2.0681-2.0033-4.4092-3.642-5.2024-3.6418-2.8581 9e-4 -1.3587 4.689 2.4583 7.6869 3.782 2.9704 3.8439 3.1623 2.0609 6.3836-2.8456 5.1408-6.5772 4.9203-11.932-0.70489-7.1848-7.5483-7.5496-16.799-0.94089-23.858 2.8937-3.0909 8.3082-3.5006 12.875-0.97399 2.7237 1.5068 3.2982 1.3542 6.9381-1.8438 4.6602-4.0942 8.9177-4.4328 14.323-1.1392 6.9145 4.2132 9.9856 13.971 6.9986 22.237zm-0.88052-40.271c-3.6986 7.1022-8.7939 9.6871-19.101 9.6902-15.065 4e-3 -26.179-8.9891-26.231-21.226-0.04089-9.7784 4.4602-14.406 10.296-10.585 3.6632 2.3987 4.8557 5.1263 3.0373 6.946-2.4846 2.4861-1.58 7.8744 1.6804 10.009 3.751 2.4561 4.5968 1.765 2.9941-2.4464-3.1137-8.1822 0.21416-15.182 8.3822-17.632 3.9211-1.1761 5.5807-1.0694 10.083 0.64871 9.7992 3.739 13.855 15 8.8589 24.595zm-10.806-10.463c-0.79202-0.79136-2.3796-1.4387-3.5281-1.4382-3.4558 1e-3 -4.0131 2.6244-1.0646 5.0105 2.1039 1.7026 3.1298 1.9029 4.3893 0.85694 2.0185-1.6762 2.0597-2.5739 0.20321-4.4292zm11.658-39.34c-2.7187 5.028-5.3685 6.6309-11.036 6.6759-3.6606 0.0283-5.9885-0.78697-8.6633-3.0362l-3.6576-3.0757-2.658 2.4779c-3.7944 3.5371-8.5772 3.131-13.446-1.1415-7.0866-6.2183-8.7327-20.104-3.1005-26.153 2.9966-3.2186 9.5076-3.4698 13.983-0.53965 2.5407 1.6636 3.2722 1.7522 3.7063 0.44867 2.0257-6.0831 10.91-8.0203 17.728-3.8655 7.2182 4.3987 11.302 20.521 7.1448 28.209zm-10.974-14.245c-2.2198-2.2182-4.4971-1.8667-5.0086 0.7733-0.4855 2.5055 3.8384 7.5732 5.5555 6.5112 1.9999-1.2368 1.7158-5.0235-0.54684-7.2845zm-22.95 0.79103c-2.9364-0.4163-3.3926 1.0442-1.4539 4.6612 1.9391 3.6206 4.9899 2.9615 4.5352-0.97991-0.27243-2.3616-1.147-3.407-3.0794-3.6808zm34.027-28.268c-3.7565 8.2588-13.466 10.344-19.604 4.2099l-3.4477-3.4454-3.4375 2.9587c-11.187 9.6286-25.751-13.219-16.973-26.625 2.6155-3.9944 7.3312-4.7623 12.761-2.078l4.567 2.2579 2.9273-3.3381c1.61-1.8359 4.3048-3.6843 5.9886-4.1074 4.413-1.109 11.327 2.5817 14.876 7.9399 3.7243 5.6242 4.8851 16.638 2.3426 22.228zm-10.776-13.302c-1.8484-2.5262-5.5716-1.7713-5.5707 1.1292 7.4e-4 2.4008 4.5543 6.9267 6.0429 6.006 1.6563-1.0243 1.422-4.5451-0.47216-7.1353zm-21.711 0.6156c-1.9817-1.6436-4.2509-0.7134-4.2503 1.7416 6.32e-4 2.1999 3.5119 5.6075 4.896 4.7515 1.6898-1.0451 1.3091-4.872-0.64585-6.4935zm32.36-31.839c-1.9594 5.4215-7.9156 11.397-11.362 11.398-2.4899 7.6e-4 -5.3334-2.3878-7.3704-6.1913-1.498-2.7969-1.3807-2.9651 3.9066-5.6074 4.5735-2.2856 6.1956-7.7204 2.7039-9.0591-2.5352-0.97176-5.3101 1.2462-5.3091 4.2437 3.4e-4 1.3676-1.2792 2.7688-3.194 3.4975-2.7806 1.0583-3.682 0.74368-6.9548-2.4265-2.068-2.0032-4.4091-3.642-5.2023-3.6418-2.858 8.4e-4 -1.3586 4.6889 2.4583 7.6869 3.782 2.9704 3.844 3.1623 2.0609 6.3835-2.8456 5.1408-6.5772 4.9204-11.932-0.70487-7.1848-7.5483-7.5496-16.799-0.94096-23.858 2.8938-3.0908 8.3081-3.5006 12.875-0.97397 2.7238 1.5067 3.2982 1.3541 6.9381-1.8438 4.6602-4.0942 8.9176-4.4329 14.323-1.1393 6.9146 4.2132 9.9856 13.971 6.9986 22.237zm0.55782-54.119c-5.5302 17.596-38.63 16.127-45.512-2.0202-2.5372-6.6907-0.92624-16.906 2.898-18.375 4.869-1.8701 12.308 3.9374 9.1246 7.1231-2.0383 2.0397-1.5417 7.445 0.88586 9.6406 2.9571 2.6745 5.5273 2.6066 4.3622-0.11551-4.422-10.331 1.2054-19.492 11.975-19.495 11.519-4e-3 19.836 11.881 16.266 23.242zm-13.285-8.8898c-1.8209-0.97382-2.9127-0.96151-4.1268 0.0468-2.0656 1.7154-1.0967 4.4722 1.9063 5.4244 4.7305 1.4999 6.6075-3.1249 2.2205-5.4711zm13.064-29.35c-1.9655 5.2676-5.5241 9.9489-8.2122 10.803-2.8519 0.90618-9.3094-2.6585-10.265-5.6668-0.46174-1.453 0.52717-3.1644 3.0598-5.2971 3.2403-2.7282 3.6932-3.8127 3.3793-8.09-0.31756-4.3269-0.75274-4.9847-3.508-5.3032-3.8843-0.44935-4.9882 1.9184-3.1554 6.7695 1.1988 3.1737 0.98014 4.068-1.9291 7.8845-1.9581 2.569-4.3135 4.3052-5.8405 4.3057-3.2083 9.7e-4 -16.754-3.6334-18.15-4.8698-0.57127-0.50612-1.1203-6.3778-1.22-13.048l-0.18128-12.129 3.6152 0.74927c7.1382 1.4798 9.0137 3.5883 9.0157 10.136 9.69e-4 3.2834 0.54157 5.9696 1.2013 5.9693 0.65972-2.4e-4 1.5862 0.13448 2.0591 0.29926 0.47236 0.1661 0.70069-2.265 0.5079-5.3994-0.30714-4.9716 0.10645-6.158 3.2435-9.2968 3.0037-3.0055 4.5491-3.5975 9.3855-3.5952 6.427 1e-3 12.291 2.8961 15.361 7.5785 2.465 3.7597 3.3486 13.604 1.6337 18.2zm-5.223 582.64c-0.42317 1.5451-1.8186 2.0996-5.2851 2.1008l-4.71 1e-3 2e-3 6.035c2e-3 6.9691-1.2469 7.9501-8.0797 6.3459-4.3017-1.01-4.5308-1.3108-4.8903-6.4184-0.20742-2.9473-0.74801-5.7228-1.2013-6.1677-0.45331-0.44477-3.216-0.36372-6.1394 0.18044-6.9983 1.3027-7.9938 0.78166-10.366-5.4243-2.4776-6.4819-1.6829-8.935 2.8953-8.9363 1.9174-6.3e-4 5.1951-0.34346 7.2838-0.76176 3.721-0.74541 3.782-0.86537 3.0189-5.9433-0.72243-4.8074-0.56301-5.2368 2.2026-5.9318 1.6398-0.41212 4.5311-0.57266 6.425-0.35683 2.9244 0.33324 3.7132 1.2331 5.2316 5.9685 1.7346 5.4097 1.9672 5.6064 7.7986 6.5947 5.9978 1.0165 6.011 1.0289 6.2002 5.8166 0.10455 2.6388-0.0691 5.7424-0.38573 6.897z" stroke-width="1.5993"/><path d="m779.9 242.39c-2.4975-2.3237-2.0226-5.6933 1.0426-7.3969 1.7382-0.9661 1.7433-0.97818 1.0396-2.4797-0.94216-2.0104-0.18686-3.5884 2.0921-4.3706l1.8683-0.64134-0.5199-2.5748c-0.6003-2.9729 0.21999-5.3782 2.4783-7.2671 2.4558-2.0541 5.4118-2.0144 9.5573 0.1285 3.2582 1.6842 3.5026 1.7227 3.3901 0.53396-0.26483-2.7968 3.2655-3.6175 5.2192-1.2134 1.1138 1.3706 0.0757 4.4722-1.7897 5.3468-0.98148 0.46021-1.2778 1.0755-1.5796 3.2797-0.68155 4.9776-4.6824 7.0992-10.651 5.6484-1.4001-0.34028-2.8101-0.42974-3.1335-0.19882-1.0592 0.75655 0.39111 1.8535 3.2714 2.4743 3.481 0.75033 5.2153 1.9917 5.6636 4.0539 1.2338 5.6764-7.384 9.6635-14.322 6.6262-1.5911-0.69675-3.2231-1.5736-3.6265-1.9489zm10.041-2.065c0.42713-1.0188-2.2196-3.1794-3.1131-2.5412-0.79688 0.56922 0.54147 2.8914 1.8211 3.1597 0.52201 0.10962 1.1034-0.16882 1.2919-0.61848zm5.5358-15.049c0.94654-0.98927 0.9318-2.6677-0.027-3.0697-0.94088-0.39447-2.656 0.92398-2.7174 2.089-0.0612 1.1598 1.9019 1.8613 2.7445 0.98069zm-225.96-84.121c-5.2673-4.5358-5.6146-7.7313-1.0731-9.8744 2.234-1.0543 2.607-0.84224 3.6963 2.102 0.75846 2.05 1.2922 2.5876 3.1782 3.2015 1.8619 0.60608 2.4035 0.50812 3.0333-0.54842 1.1593-1.9448 0.47182-2.8845-2.2085-3.0186-2.0834-0.10437-2.4396-0.31896-3.5792-2.157-0.69609-1.1226-1.1643-2.6665-1.0404-3.4308 0.20025-1.2355 5.253-8.1334 6.2595-8.5453 0.21741-0.089 3.0459 0.90425 6.2856 2.2071l5.8904 2.3689-1.0604 1.5687c-2.0938 3.0977-3.6364 3.6182-6.797 2.2931-2.359-0.98899-2.9535-1.0233-3.3027-0.19037-0.35428 0.84505 0.0139 1.1603 2.1916 1.8762 2.2253 0.73153 2.7998 1.2435 3.8346 3.417 1.0766 2.2613 1.0764 2.8796-3e-3 5.3544-1.4121 3.2394-3.9151 5.3502-6.8174 5.7491-2.4111 0.33136-6.7595-0.88428-8.4884-2.373zm19.075 7.9973c-5.2673-4.5358-5.6146-7.7313-1.0731-9.8744 2.234-1.0543 2.6069-0.84224 3.6962 2.102 0.7585 2.05 1.2922 2.5876 3.1782 3.2015 1.862 0.60606 2.4035 0.5081 3.0333-0.54842 1.1593-1.9448 0.47184-2.8845-2.2085-3.0186-2.0834-0.10425-2.4396-0.31894-3.5793-2.1569-0.69608-1.1226-1.1643-2.6665-1.0404-3.4308 0.20025-1.2355 5.253-8.1334 6.2595-8.5453 0.21737-0.089 3.0459 0.90425 6.2856 2.2071l5.8904 2.3689-1.0603 1.5687c-2.0938 3.0977-3.6364 3.6181-6.797 2.2931-2.359-0.98901-2.9535-1.0233-3.3027-0.19038-0.3543 0.84505 0.0139 1.1603 2.1916 1.8762 2.2253 0.73154 2.7998 1.2435 3.8346 3.417 1.0767 2.2613 1.0764 2.8795-3e-3 5.3545-1.412 3.2394-3.9151 5.3502-6.8174 5.749-2.4111 0.33136-6.7595-0.88426-8.4884-2.373zm15.102 5.4234c-0.70139-3.2271 0.48064-4.4302 6.5566-6.6739 4.415-1.6304 5.7835-2.4266 6.0676-3.5301 0.57639-2.2394-0.6759-2.6373-2.9539-0.93844-2.4657 1.8387-3.2198 1.6516-4.4743-1.1101-1.1237-2.4736-0.75547-3.5475 1.8558-5.4126 2.8275-2.0195 7.563-2.1582 10.605-0.31048 6.5714 3.9915 4.3135 11.517-4.6748 15.581-2.1362 0.96586-2.1396 0.97195-0.86208 1.5076 0.70554 0.29578 2.3802 0.53915 3.7214 0.54077 3.0977 4e-3 2.9873-0.0805 2.2378 1.7074-0.89099 2.1252-4.3741 4.454-6.2375 4.1703-0.85733-0.13046-3.1509-1.1147-5.0967-2.187-2.2061-1.2158-4.0734-1.899-4.9604-1.815-1.1691 0.11067-1.487-0.16184-1.7843-1.5299zm29.123 13.122c-1.4521-1.01-1.4899-1.261-0.48345-3.1807 1.2199-2.3265 1.0176-2.5355-2.9386-3.0373-3.5043-0.44441-4.9697-1.7548-5.1046-4.5646-0.11145-2.3208-0.0538-2.4168 2.357-3.9214 1.3591-0.8483 4.7884-3.0674 7.6206-4.9314 4.6727-3.0753 5.376-3.3362 7.5954-2.8174 3.9607 0.92581 4.522 1.7946 3.7431 5.7947-1.0594 5.4412-5.8718 16.432-7.75 17.7-1.5508 1.0468-2.242 0.904-5.0393-1.0415zm3.2128-10.426c1.1527-0.47168 2.7332-3.9006 2.1648-4.6964-0.30876-0.43236-5.3492 2.8897-5.7176 3.7683-0.22383 0.53391 2.6692 1.2898 3.5528 0.92815zm11.308 16.047c0.0615-2.0079 3.9756-8.2654 8.1344-13.004 4.6616-5.3118 6.195-6.0234 10.543-4.8925 3.3991 0.88399 4.1573 2.6254 4.1376 9.5036-0.0156 5.4546-1.6537 15.008-2.7741 16.178-0.4742 0.49555-1.5586 0.34702-3.5443-0.4855-4.0438-1.6954-4.5359-2.333-3.5732-4.6292 0.7443-1.7753 0.6645-2.0274-0.84107-2.6586-1.9987-0.83796-3.7169-0.0852-3.8772 1.6987-0.15562 1.7309-2.1467 1.8926-5.5802 0.45306-1.8771-0.78697-2.6479-1.4222-2.625-2.1638zm14.916-4.7538c0.25052-0.17904 0.45442-1.3703 0.45323-2.6473-3e-3 -2.6332-0.93239-2.6249-2.7232 0.0245-1.0581 1.5654-1.0311 1.7553 0.33109 2.3264 0.81578 0.34203 1.6883 0.47539 1.9389 0.2964zm49.459 32.049c-0.70081-0.65136-1.2988-1.9834-1.3286-2.9602-0.1083-3.5472 3.3305-5.6634 8.5002-5.231 4.0344 0.33752 5.1278 0.0412 3.9623-1.0741-0.50475-0.48306-2.1645-0.751-4.017-0.64847-3.5319 0.19538-4.2585-0.52123-2.9228-2.8825 1.2014-2.1239 4.1439-2.6623 8.0625-1.4752 3.7035 1.1219 6.0738 3.3284 6.3153 5.8791 0.0759 0.80206-0.74918 3.4348-1.8337 5.8507-1.0844 2.4158-2.0902 4.9443-2.2354 5.6189-0.191 0.88841-0.98135 1.2996-2.8671 1.4916-2.1906 0.22314-2.7699 0.0628-3.6538-1.0115-0.76658-0.93173-1.6626-1.3466-3.3162-1.5354-2.6401-0.30142-2.9659-0.44261-4.6656-2.022zm7.5164-1.907c1.7623-0.38304 2.821-1.8371 1.6844-2.3136-0.95968-0.40235-3.5314 0.59539-3.9193 1.5206-0.426 1.0161 0.19498 1.2364 2.2348 0.79318zm13.442 10.978c-1.7568-1.1747-2.922-4.6911-2.5337-7.6467 0.36159-2.7525 4.396-11.474 6.5958-14.259 1.5426-1.9526 4.4043-2.6237 7.558-1.7724 3.1242 0.84335 3.2288 1.7592 0.53942 4.7272-2.7098 2.9906-3.4939 5.0062-1.9399 4.987 2.5348-0.0315 5.1973 1.0555 6.1908 2.5274 2.1002 3.1113 0.0827 9.1352-4.0473 12.085-3.2573 2.3265-8.3096 2.0613-12.363-0.64901zm8.0503-5.2235c1.4412-1.6574 1.9581-3.7004 1.0342-4.0878-0.88839-0.37247-3.3523 1.5931-4.0334 3.2177-1.0143 2.4193 1.1148 3.037 2.9992 0.87009zm12.796 13.775c-3.5875-2.6129-4.8329-6.7503-3.2025-10.639 0.97695-2.3302 4.6487-5.3002 6.9198-5.5973 5.0936-0.66613 9.9685 2.148 10.568 6.1007 0.66734 4.3991-1.1113 5.5649-6.932 4.5438-3.6984-0.64883-4.6518-0.26888-3.4894 1.3905 0.44552 0.63601 1.4244 0.88732 3.1362 0.80513 3.2066-0.15397 4.1128 0.25815 4.2723 1.943 0.21474 2.2674-0.47186 3.0675-2.9432 3.4301-2.8706 0.42111-6.0843-0.34155-8.3294-1.9767zm6.4592-9.61c2.7207 0.16772 3.0957-0.81979 0.60455-1.5921-1.2842-0.39808-2.16-0.28655-2.5656 0.32673-0.72617 1.0984-0.72388 1.0999 1.961 1.2654zm6.7533 14.934c-1.05-1.2294-0.99746-1.7546 0.66785-6.6763 0.99411-2.9381 1.856-5.9597 1.9154-6.7148 0.0815-1.0378 0.5715-1.4587 2.0076-1.7246 2.6284-0.48655 5.537 0.19017 6.1894 1.4401 0.42097 0.80644 1.0054 0.99562 2.6649 0.86206 2.924-0.23517 4.1738 0.41677 4.9896 2.6027 1.1137 2.9842-0.33197 5.1885-3.574 5.4492-2.7507 0.22122-3.2408-0.0993-3.1742-2.0765 0.0326-0.96866-0.28532-1.6616-0.73012-1.5914-0.53126 0.0839-1.319 1.7604-2.4183 5.1469-1.1848 3.65-1.9254 5.1765-2.7102 5.5861-1.3126 0.68512-4.2757-0.48612-5.828-2.3037zm-96.002-41.015c-0.65219-1.0821-0.50367-1.866 0.92463-4.8796 0.93602-1.9746 1.8053-4.5584 1.932-5.7416 0.31099-2.9047 1.0219-3.4832 4.2164-3.4308 2.9422 0.0482 4.5438 0.97861 4.4939 2.6106-0.027 0.88431 0.25718 0.9514 1.9958 0.47109 1.4112-0.38985 2.8694-0.20706 4.7977 0.60136 2.327 0.9756 2.8628 1.4964 3.3485 3.2546 0.47174 1.7076 0.33439 2.4324-0.74565 3.9352-0.72817 1.013-2.0313 3.5236-2.8959 5.579-1.4312 3.4039-1.7283 3.7483-3.3241 3.8636-2.3278 0.16803-5.2945-1.1084-5.7046-2.4544-0.23775-0.78039 0.12692-1.7168 1.3085-3.3593 2.4158-3.3582 3.6462-6.5328 2.6877-6.9346-1.3694-0.57413-2.489 0.49757-4.6534 4.4541-1.1517 2.1054-2.371 4.1174-2.7094 4.4711-0.82321 0.86016-4.6838-0.80088-5.6721-2.4403zm20.402 8.6672c-0.45649-0.83056-0.0413-2.6784 1.6767-7.4616 2.1856-6.0852 2.352-6.3688 3.8836-6.6166 2.9112-0.47084 5.0162 0.20432 5.6778 1.8211 0.58586 1.4317 0.68898 1.4755 2.7497 1.1663 2.9992-0.44956 6.6316 1.1825 7.6484 3.4364 0.72792 1.6136 0.63838 2.0738-0.8863 4.5558-0.93282 1.5185-2.3094 4.1745-3.059 5.9022-1.1943 2.7529-1.5798 3.1574-3.1165 3.271-2.5613 0.18938-5.5614-1.2056-5.5198-2.5665 0.0189-0.61751 1.0223-2.6757 2.2299-4.5736 2.0766-3.2638 2.7205-5.1398 1.8774-5.4699-1.4518-0.5685-2.6878 0.5777-4.7304 4.3869-1.232 2.2974-2.5211 4.378-2.8647 4.6234-0.8713 0.62236-4.8321-1.1388-5.5666-2.4752zm21.532-21.869c-2.4976-2.3236-2.0226-5.6932 1.0426-7.3969 1.7382-0.96609 1.7433-0.97816 1.0396-2.4797-0.94215-2.0104-0.18686-3.5883 2.0921-4.3706l1.8683-0.64133-0.51989-2.5748c-0.6003-2.9729 0.21999-5.3782 2.4783-7.2671 2.4558-2.0541 5.4118-2.0144 9.5573 0.1285 3.2582 1.6842 3.5026 1.7227 3.3901 0.53395-0.26483-2.7968 3.2655-3.6176 5.2192-1.2134 1.1138 1.3705 0.0757 4.4722-1.7897 5.3468-0.98146 0.46022-1.2778 1.0755-1.5796 3.2796-0.68153 4.9776-4.6824 7.0992-10.652 5.6484-1.4001-0.3403-2.8101-0.42976-3.1334-0.19882-1.0592 0.75654 0.39108 1.8534 3.2713 2.4742 3.481 0.75033 5.2154 1.9917 5.6636 4.0539 1.2338 5.6764-7.384 9.6636-14.322 6.6262-1.5912-0.69675-3.2231-1.5736-3.6265-1.9489zm10.041-2.065c0.42713-1.0188-2.2196-3.1794-3.113-2.5413-0.79692 0.5692 0.54144 2.8913 1.8211 3.1597 0.52202 0.10948 1.1034-0.16882 1.2919-0.61849zm5.5358-15.049c0.94662-0.98917 0.93177-2.6677-0.027-3.0697-0.94088-0.39445-2.656 0.92397-2.7174 2.089-0.0612 1.1598 1.9018 1.8613 2.7445 0.9807zm-148.14-51.958c0.0614-2.0079 3.9756-8.2654 8.1344-13.004 4.6616-5.3118 6.195-6.0234 10.543-4.8925 3.3992 0.88397 4.1573 2.6255 4.1376 9.5036-0.0156 5.4546-1.6537 15.008-2.7742 16.178-0.47419 0.49556-1.5586 0.34703-3.5443-0.48549-4.0438-1.6954-4.5359-2.333-3.5732-4.6292 0.74429-1.7753 0.66452-2.0274-0.84109-2.6586-1.9987-0.83795-3.7169-0.0852-3.8772 1.6987-0.15563 1.7309-2.1467 1.8926-5.5802 0.45306-1.8771-0.78697-2.6479-1.4222-2.625-2.1638zm14.916-4.7538c0.25066-0.17894 0.45451-1.3703 0.45322-2.6473-3e-3 -2.6333-0.93237-2.6249-2.7232 0.0245-1.0581 1.5654-1.0311 1.7553 0.3311 2.3264 0.81577 0.34201 1.6883 0.4754 1.9388 0.29639zm49.459 32.049c-0.70099-0.65116-1.2988-1.9834-1.3286-2.9602-0.10831-3.5472 3.3305-5.6635 8.5002-5.231 4.0345 0.33752 5.1278 0.0412 3.9623-1.0741-0.50475-0.48305-2.1644-0.75099-4.0171-0.64846-3.5319 0.19538-4.2585-0.52126-2.9228-2.8825 1.2014-2.124 4.1438-2.6623 8.0625-1.4753 3.7035 1.1219 6.0738 3.3285 6.3153 5.8791 0.0759 0.80204-0.74918 3.4348-1.8337 5.8507-1.0844 2.4158-2.0902 4.9444-2.2354 5.6189-0.19099 0.88842-0.98135 1.2996-2.8671 1.4917-2.1906 0.22315-2.7699 0.0627-3.6538-1.0115-0.76657-0.93173-1.6626-1.3466-3.3162-1.5354-2.6401-0.3014-2.9659-0.44258-4.6656-2.022zm7.5164-1.907c1.7623-0.38303 2.821-1.8371 1.6845-2.3136-0.95969-0.40235-3.5314 0.59538-3.9193 1.5206-0.42597 1.0161 0.19499 1.2364 2.2349 0.793zm13.442 10.978c-1.7568-1.1747-2.922-4.6911-2.5337-7.6467 0.36163-2.7525 4.3961-11.474 6.5958-14.259 1.5426-1.9526 4.4043-2.6237 7.558-1.7724 3.1242 0.84335 3.2288 1.7592 0.53943 4.7272-2.7098 2.9906-3.4939 5.0062-1.9401 4.9869 2.5348-0.0315 5.1973 1.0555 6.1908 2.5274 2.1002 3.1113 0.0827 9.1352-4.0474 12.085-3.2573 2.3266-8.3096 2.0613-12.363-0.64901zm8.0503-5.2235c1.4412-1.6574 1.9581-3.7004 1.0342-4.0878-0.88837-0.37245-3.3523 1.5932-4.0334 3.2177-1.0143 2.4193 1.1149 3.037 2.9992 0.87008zm12.796 13.775c-3.5875-2.6129-4.8329-6.7503-3.2025-10.639 0.97696-2.3302 4.6487-5.3002 6.9198-5.5972 5.0936-0.66616 9.9686 2.148 10.568 6.1007 0.66736 4.399-1.1113 5.5649-6.932 4.5437-3.6984-0.64881-4.6518-0.26892-3.4894 1.3905 0.44553 0.63601 1.4244 0.88731 3.1362 0.80509 3.2065-0.15395 4.1128 0.25819 4.2723 1.943 0.21467 2.2674-0.47189 3.0675-2.9432 3.4301-2.8706 0.4211-6.0843-0.34156-8.3294-1.9767zm6.4592-9.61c2.7207 0.16771 3.0957-0.81979 0.60455-1.5921-1.2842-0.39808-2.16-0.28658-2.5655 0.32674-0.72618 1.0984-0.72389 1.0999 1.961 1.2654zm6.7533 14.934c-1.05-1.2294-0.99747-1.7546 0.66785-6.6763 0.99412-2.938 1.8561-5.9597 1.9154-6.7148 0.0816-1.0378 0.57149-1.4587 2.0076-1.7246 2.6284-0.48657 5.537 0.19018 6.1894 1.44 0.42096 0.80643 1.0054 0.9956 2.6649 0.86206 2.924-0.23519 4.1738 0.41677 4.9896 2.6027 1.1137 2.9842-0.33198 5.1885-3.574 5.4492-2.7507 0.22124-3.2408-0.0994-3.1742-2.0764 0.0326-0.96867-0.2853-1.6616-0.7301-1.5914-0.53127 0.0839-1.319 1.7604-2.4183 5.1469-1.1848 3.65-1.9254 5.1765-2.7102 5.5861-1.3126 0.68511-4.2757-0.4861-5.828-2.3036zm42.167 17.047c-0.70141-3.227 0.48064-4.4302 6.5566-6.6739 4.415-1.6304 5.7835-2.4266 6.0676-3.5302 0.57642-2.2394-0.67589-2.6372-2.9539-0.93845-2.4656 1.8387-3.2198 1.6516-4.4743-1.11-1.1236-2.4736-0.75546-3.5475 1.8558-5.4126 2.8274-2.0195 7.563-2.1582 10.605-0.31048 6.5714 3.9915 4.3135 11.517-4.6748 15.581-2.1362 0.96585-2.1397 0.97194-0.86206 1.5076 0.70554 0.29578 2.3802 0.53914 3.7214 0.54078 3.0977 4e-3 2.9873-0.0805 2.2378 1.7074-0.891 2.1252-4.3741 4.454-6.2375 4.1703-0.85732-0.13046-3.1508-1.1147-5.0967-2.187-2.2061-1.2158-4.0734-1.8991-4.9604-1.815-1.1691 0.11067-1.487-0.16186-1.7843-1.5299zm23.528 10.722c-2.1813-1.8388-3.7203-4.7838-3.7103-7.1018 9e-3 -2.0504 0.12731-2.1912 2.5492-3.0266 2.8882-0.99646 4.458-0.63923 3.8251 0.87051-0.79652 1.8999 0.18166 4.3995 1.9184 4.9022 1.259 0.36444 1.7389 0.15352 2.2107-0.97168 0.41097-0.98029 0.26362-1.6595-0.46355-2.1365-2.6699-1.7513-2.1427-4.8682 0.91936-5.4351 2.2245-0.41177 3.3125-2.4117 1.6835-3.0947-0.61419-0.25749-1.9995 0.0792-3.0785 0.74824-2.3103 1.4325-3.1266 1.2181-4.1702-1.0952-0.99454-2.2047-0.5932-3.0561 2.0898-4.4336 6.7366-3.4585 15.222 1.7407 12.692 7.7763-0.51404 1.2261-1.4995 2.5698-2.19 2.9859-1.1165 0.67298-1.1484 1.018-0.28844 3.1196 1.7278 4.2225-1.3938 8.544-6.4666 8.952-2.6122 0.21008-5.8935-0.68857-7.5204-2.0597zm16.696 6.3095c-3.2734-3.53-1.7986-5.1634 10.584-11.722l2.3277-1.233-1.9942-0.83608c-1.0968-0.45985-3.401-0.9327-5.1205-1.0508-1.7194-0.11814-3.2117-0.42368-3.3162-0.67898-0.38885-0.95029 2.3495-4.2475 4.4038-5.3014l2.1256-1.0913 6.4239 2.9241c5.764 2.6236 6.4742 3.0958 6.9124 4.5959 0.85472 2.9256-0.35589 4.372-6.0171 7.1894-4.5218 2.2504-9.1249 5.7201-12.107 9.1264-0.96559 1.1028-1.747 0.7471-4.2216-1.9216zm-178.39-75.094c-0.65222-1.0821-0.5037-1.866 0.92461-4.8796 0.93588-1.9747 1.8053-4.5584 1.932-5.7416 0.31098-2.9047 1.0219-3.4832 4.2164-3.4308 2.9422 0.0482 4.5438 0.97863 4.4939 2.6106-0.027 0.88432 0.25717 0.95139 1.9959 0.47106 1.4112-0.38983 2.8694-0.20704 4.7977 0.60138 2.327 0.97558 2.8628 1.4964 3.3485 3.2546 0.47172 1.7076 0.33439 2.4324-0.74563 3.9351-0.72818 1.0131-2.0313 3.5237-2.8959 5.579-1.4312 3.4039-1.7284 3.7483-3.3241 3.8636-2.3278 0.16803-5.2945-1.1084-5.7046-2.4544-0.23776-0.7804 0.12705-1.7168 1.3085-3.3593 2.4158-3.3582 3.6462-6.5328 2.6878-6.9346-1.3694-0.57413-2.489 0.49756-4.6534 4.4541-1.1517 2.1054-2.371 4.1174-2.7094 4.4711-0.82311 0.86026-4.6838-0.80086-5.672-2.4404zm20.231 8.4819c-0.65224-1.0821-0.50372-1.866 0.92457-4.8796 0.93604-1.9746 1.8053-4.5584 1.932-5.7416 0.31101-2.9047 1.0219-3.4832 4.2164-3.4308 2.9422 0.0481 4.5438 0.97862 4.4939 2.6106-0.0272 0.88431 0.25716 0.95138 1.9958 0.47107 1.4112-0.38982 2.8694-0.20706 4.7977 0.60136 2.327 0.97561 2.8628 1.4964 3.3485 3.2546 0.47174 1.7076 0.33438 2.4325-0.74564 3.9351-0.72819 1.0131-2.0313 3.5236-2.8959 5.579-1.4312 3.4039-1.7283 3.7483-3.3241 3.8636-2.3278 0.16803-5.2945-1.1084-5.7046-2.4544-0.2378-0.78042 0.12692-1.7168 1.3085-3.3593 2.4158-3.3582 3.6462-6.5328 2.6878-6.9346-1.3694-0.57412-2.489 0.49757-4.6534 4.4542-1.1517 2.1054-2.371 4.1174-2.7094 4.4711-0.8231 0.86023-4.6838-0.80086-5.672-2.4404zm-24.252-54.119c-0.87213-0.70489-1.7596-1.849-1.9712-2.5436-0.45655-1.4985 3.0685-11.349 5.7028-15.936 1.6519-2.8765 1.9108-3.0629 4.2484-3.0601 3.4604 0.0042 9.4534 3.078 11.449 5.8724 3.8293 5.3612 0.39895 15.652-6.1044 18.313-3.9811 1.629-9.3507 0.56298-13.325-2.6454zm9.5809-4.9112c1.8796-1.1857 3.3838-4.8275 2.6923-6.5177-0.94261-2.3036-1.9444-1.6353-3.9424 2.631-1.5458 3.3011-1.7441 4.1418-1.0478 4.4337 0.47278 0.19821 1.5069-0.04795 2.298-0.54705zm9.7638 13.277c-1.6383-1.5243-2.0006-3.3337-1.0982-5.4861 0.75358-1.7974 1.366-2.3075 3.394-2.8268 1.361-0.3485 3.691-0.46592 5.178-0.26094 3.038 0.41883 4.2791-0.08329 3.0688-1.2415-0.44531-0.42625-2.2059-0.69768-3.9123-0.60329-1.7064 0.09441-3.2827-0.08057-3.5029-0.38885-0.6754-0.94559 0.8692-3.7544 2.332-4.2407 4.1456-1.3782 10.802 1.2527 12.274 4.8517 0.81627 1.9948 0.72839 2.4208-1.6591 8.0443l-2.5211 5.9379-2.2818 0.3069c-1.8702 0.25153-2.5167 0.07128-3.5834-0.99909-0.91086-0.91402-1.981-1.3849-3.5655-1.5691-2.4599-0.2858-3.01-0.48922-4.1228-1.5245zm8.8396-3.539c0.76594-1.1372-0.11447-1.452-2.2882-0.8183-2.3216 0.67683-2.2204 2.4309 0.1146 1.9858 0.87539-0.16684 1.8535-0.69225 2.1736-1.1675zm28.888 18.99c-1.0803-1.2898-1.0334-1.5208 1.5998-7.877 2.9422-7.1024 3.4602-7.6392 6.8659-7.1161 0.96577 0.14835 2.3583 0.72092 3.0946 1.2724 1.2995 0.97324 1.2876 1.0853-0.39931 3.8142-0.9559 1.5463-2.6689 5.0208-3.8067 7.7211l-2.0681 4.9099-2.0862-0.69766c-1.1475-0.38367-2.5871-1.2956-3.1992-2.0265zm14.049 6.1046c-3.9506-2.8898-4.9519-8.0002-2.3675-12.083 3.8306-6.0511 13.724-5.5042 16.346 0.90359 1.7492 4.2747-0.51664 6.4606-5.878 5.6708-5.3954-0.79478-5.2544-0.80856-4.8635 0.47432 0.3722 1.2216 1.5448 1.596 5.1148 1.6332 2.6805 0.0279 3.789 1.6444 2.5858 3.7708-1.3757 2.4313-7.386 2.228-10.938-0.36998zm6.6593-9.4711c2.1368 0.07199 2.6679-0.93722 0.88623-1.6842-1.3148-0.55123-3.117-0.18447-3.4923 0.71072-0.25723 0.61352 0.51811 0.90313 2.606 0.97345zm5.1294 14.537c0.0837-0.24525 2.1463-5.3787 4.5831-11.408 4.3289-10.71 4.4674-10.969 6.0425-11.26 0.88668-0.16413 2.5572-0.07102 3.7125 0.20692 3.5084 0.84414 3.4111 1.6875-1.205 10.441-3.1826 6.0351-4.0373 8.0844-4.1282 9.8979-0.14271 2.8511-1.1804 4.12-3.4254 4.1886-1.9429 0.0594-5.8162-1.375-5.5795-2.0662zm23.418 9.8791c-4.6025-3.5679-5.7634-8.1592-3.4462-13.629 2.2775-5.3762 6.5688-8.6075 11.216-8.4456 3.3552 0.11688 7.8424 2.3922 9.4089 4.7709 1.9411 2.9477 1.27 5.0395-1.9382 6.0408-2.9942 0.93448-4.0299 0.55705-4.7558-1.733l-0.55895-1.7635-1.7282 0.87994c-3.2138 1.6364-4.823 8.9468-2.2104 10.042 1.5924 0.66762 2.3203-0.50056 1.5913-2.554-0.61008-1.7185-0.57612-1.8158 0.87032-2.4937 1.89-0.88573 6.6783 0.22956 7.4663 1.739 0.8229 1.5765-1.267 6.1219-3.586 7.7995-1.0454 0.75625-2.7036 1.5236-3.6848 1.7052-1.889 0.34969-6.9225-1.0237-8.6445-2.3586zm25.268 9.5349c-0.34982-1.6094-0.42222-1.6498-2.4574-1.3701-2.7963 0.38431-5.2975-0.74652-6.5213-2.9485-0.97255-1.7498-0.92361-1.9824 1.7026-8.0919l2.704-6.2902 2.3436-0.10804c1.289-0.0594 3.1472 0.32404 4.1295 0.85213l1.7859 0.96021-2.1616 5.2105c-2.7015 6.5116-2.6983 6.4842-0.67385 5.7713 1.4256-0.50201 1.8491-1.1037 2.8323-4.0238 1.3573-4.0313 2.3774-4.6466 6.1738-3.7239 3.8221 0.92895 3.925 2.1241 0.6362 7.3934-2.0281 3.2494-2.596 4.5694-2.4824 5.7692 0.19934 2.1053-0.58269 2.7618-3.4471 2.8939-3.2181 0.14836-4.1331-0.31157-4.564-2.2942zm11.235 5.5603c-0.0611-0.38697 1.0663-3.008 2.5053-5.8247 2.5563-5.0034 2.5853-5.1239 1.2619-5.2428-0.74497-0.067-1.4002-0.41148-1.4561-0.76555-0.17002-1.0767 2.8132-4.4399 3.9086-4.4063 0.79686 0.0244 1.1735-0.54836 1.6829-2.559 0.59172-2.3354 0.84979-2.6263 2.6214-2.9543 2.5474-0.47157 5.5634-0.10345 6.5007 0.79357 0.57816 0.5532 0.37398 1.4656-0.93121 4.1609l-1.6717 3.4522 1.6571 0.49911c1.5249 0.45929 1.589 0.66147 0.8081 2.5242-0.61973 1.4782-1.5298 2.3127-3.3698 3.0902-2.4575 1.0383-2.5525 1.1681-3.7858 5.1728l-1.2651 4.1077-2.1599 0.17373c-2.392 0.19239-6.1334-1.1257-6.3064-2.2217zm16.9 1.21 2.6085-5.627-1.4408-0.42613c-1.345-0.39784-1.3569-0.56133-0.18096-2.4546 0.6929-1.1156 2.0041-2.2491 2.9138-2.5188 1.4515-0.43034 1.6698-0.74767 1.7836-2.5927 0.16239-2.6347 1.5819-3.4349 5.8502-3.2975 3.8225 0.12312 4.2183 1.0124 2.3907 5.3715-1.3594 3.2423-1.3554 3.2954 0.2807 3.7885 1.4944 0.45035 1.5838 0.68018 0.8992 2.3131-0.53973 1.2875-1.4929 2.0842-3.2878 2.7483-2.4746 0.91559-2.5556 1.0214-3.8597 5.0464-1.6241 5.0122-2.8124 5.6846-7.4829 4.2337l-3.0831-0.95776zm15.908 12.54c-3.5875-2.6129-4.8329-6.7503-3.2025-10.639 0.97694-2.3302 4.6487-5.3002 6.9198-5.5972 5.0936-0.66615 9.9686 2.148 10.568 6.1007 0.66737 4.399-1.1113 5.5649-6.932 4.5437-3.6984-0.64882-4.6518-0.2689-3.4893 1.3905 0.44552 0.63602 1.4244 0.88732 3.1362 0.80512 3.2066-0.15397 4.1128 0.25819 4.2724 1.943 0.2147 2.2673-0.47188 3.0675-2.9434 3.4299-2.8706 0.42113-6.0844-0.34155-8.3294-1.9767zm6.4592-9.61c2.7207 0.1677 3.0957-0.81979 0.60456-1.5921-1.2842-0.39813-2.16-0.28658-2.5655 0.32672-0.7262 1.0984-0.7239 1.0999 1.961 1.2654zm29.288 24.407c-1.261-1.1494-1.7894-2.4147-1.9766-4.7341-0.23511-2.913-9e-3 -3.6969 2.8317-9.8259 2.3321-5.0315 3.4865-6.93 4.7201-7.7627 1.8143-1.2247 5.4268-1.4371 7.7656-0.45655 1.4406 0.60398 1.456 0.75443 0.27175 2.6626-4.3093 6.9437-4.2515 6.8064-2.8644 6.8002 4.1283-0.0174 6.8271 1.9447 6.9214 5.032 0.0282 0.92283-0.52728 3.0578-1.2344 4.7444-1.4032 3.3469-3.8399 5.3935-7.4858 6.2874-2.4862 0.60957-6.679-0.67762-8.9503-2.7477zm9.2561-5.867c0.96269-2.2962 0.2622-3.5531-1.4163-2.5414-1.2755 0.76879-2.9155 3.9652-2.5247 4.9204 0.45777 1.1186 3.158-0.51134 3.941-2.379zm6.9413 12.623c-1.0448-1.235-1.0086-1.6016 0.45059-4.5632 0.87266-1.7712 1.8279-4.7 2.1226-6.5087 0.50705-3.1114 0.62811-3.3153 2.2496-3.788 2.2896-0.66747 5.8505 0.12955 6.5479 1.4657 0.42971 0.8232 0.90354 0.96623 2.2391 0.67597 2.4214-0.52631 4.2535 0.44944 5.2036 2.7713 1.0248 2.5044 0.4483 3.9805-1.8925 4.8455-2.4121 0.89141-5.4523 0.44146-4.9594-0.73401 0.19812-0.47239 0.10765-1.3425-0.2008-1.9335-0.85515-1.6383-1.686-0.38568-2.9543 4.454-1.4783 5.641-2.618 6.7991-5.4918 5.5811-1.1984-0.50717-2.6896-1.5276-3.3145-2.2662zm26.557 10.513c-0.3499-1.6094-0.4222-1.6498-2.4575-1.3701-2.7963 0.38432-5.2975-0.74655-6.5213-2.9485-0.97257-1.7498-0.92362-1.9825 1.7026-8.0919l2.7039-6.2902 2.3436-0.10805c1.289-0.0594 3.1473 0.32403 4.1295 0.85215l1.7859 0.96019-2.1616 5.2105c-2.7013 6.5116-2.6982 6.4842-0.6738 5.7713 1.4256-0.50199 1.8491-1.1037 2.8323-4.0238 1.3574-4.0313 2.3774-4.6466 6.1739-3.7239 3.8221 0.92898 3.925 2.1241 0.6362 7.3934-2.0281 3.2494-2.5961 4.5694-2.4825 5.7692 0.1994 2.1053-0.5827 2.7618-3.4471 2.894-3.2181 0.14836-4.1331-0.31159-4.564-2.2942zm55.711 24.231c-3.9505-2.8898-4.9519-8.0002-2.3674-12.083 3.8305-6.051 13.724-5.5042 16.346 0.90357 1.7491 4.2747-0.5167 6.4606-5.878 5.6709-5.3954-0.79479-5.2544-0.80856-4.8635 0.47429 0.3722 1.2216 1.5448 1.596 5.1148 1.6332 2.6805 0.0279 3.789 1.6444 2.5858 3.7708-1.3758 2.4313-7.386 2.228-10.938-0.37zm6.6593-9.4711c2.1368 0.072 2.6679-0.93724 0.8862-1.6842-1.3148-0.55123-3.1169-0.18446-3.4922 0.71072-0.2572 0.61351 0.5181 0.90313 2.606 0.97348zm6.4454 14.722c-1.05-1.2294-0.9975-1.7546 0.66777-6.6763 0.9942-2.938 1.8561-5.9597 1.9154-6.7148 0.082-1.0378 0.57157-1.4587 2.0076-1.7246 2.6283-0.48658 5.537 0.19016 6.1894 1.44 0.421 0.80646 1.0054 0.99561 2.6649 0.86205 2.924-0.23517 4.1738 0.4168 4.9897 2.6028 1.1137 2.9842-0.3319 5.1884-3.574 5.4492-2.7507 0.22125-3.2408-0.0994-3.1742-2.0764 0.033-0.96867-0.2853-1.6616-0.7301-1.5914-0.5313 0.0839-1.319 1.7604-2.4183 5.1469-1.1849 3.6499-1.9255 5.1765-2.7102 5.5861-1.3126 0.68513-4.2757-0.48612-5.8279-2.3036zm-286.28-120.9c-0.81101-1.2856-0.73802-1.7616 0.6291-4.1008 0.88356-1.5119 1.7732-4.0372 2.0752-5.8905 0.63636-3.9049 1.4352-4.5176 5.2243-4.007 2.2503 0.30326 2.6643 0.55449 3.3231 2.0168 0.74364 1.6505 0.77432 1.6639 2.5836 1.1299 2.2357-0.65985 6.2734 0.88528 7.5337 2.8829 0.83419 1.3223 0.71749 1.7728-2.0103 7.7599-2.7283 5.9883-2.993 6.3668-4.5747 6.5404-2.0001 0.21951-5.9151-1.26-6.0789-2.2973-0.0637-0.40344 1.0294-2.5461 2.429-4.7615 2.0516-3.2473 2.4614-4.227 2.1151-5.0547-0.78549-1.8748-3.599 0.27667-5.1266 3.9204-0.72708 1.7342-1.8022 3.5434-2.3891 4.0204-1.3274 1.0787-4.4269-0.08836-5.733-2.1587zm151.92 63.899c-0.97858-1.1028-0.94214-1.4748 0.36076-3.6822 0.79711-1.3505 1.784-4.0842 2.1933-6.0749 0.8887-4.3234 1.643-4.9212 5.5459-4.3952 2.3261 0.31346 2.6861 0.52908 3.0676 1.8377 0.4196 1.4393 0.49536 1.4731 2.598 1.1579 2.932-0.43939 6.89 1.261 7.7335 3.3224 0.58279 1.4242 0.35227 2.2417-2.1738 7.7093-2.6265 5.6849-2.9417 6.1289-4.4696 6.2971-2.397 0.26386-6.0402-1.3635-5.9999-2.68 0.018-0.58805 1.1298-2.7317 2.4715-4.7634 2.8436-4.3075 2.863-5.9894 0.0578-5.0015-1.2731 0.44832-1.9157 1.289-3.046 3.9848-1.8604 4.4375-3.042 5.3841-5.4086 4.3328-1.0131-0.44995-2.3318-1.3702-2.9304-2.0449zm76.301 31.989c-0.9786-1.1028-0.9422-1.4747 0.3607-3.6822 0.7972-1.3505 1.7841-4.0842 2.1933-6.0749 0.8887-4.3234 1.643-4.9212 5.546-4.3952 2.3261 0.31348 2.686 0.52911 3.0675 1.8377 0.4196 1.4393 0.4953 1.4731 2.598 1.1579 2.932-0.43939 6.89 1.261 7.7335 3.3224 0.5828 1.4242 0.3523 2.2417-2.1738 7.7093-2.6265 5.6849-2.9417 6.1289-4.4696 6.2971-2.3971 0.26388-6.0402-1.3635-6-2.68 0.018-0.58807 1.1299-2.7317 2.4715-4.7634 2.8437-4.3075 2.8631-5.9894 0.058-5.0015-1.2732 0.44833-1.9158 1.289-3.046 3.9848-1.8604 4.4375-3.0421 5.3841-5.4086 4.3328-1.013-0.44998-2.3317-1.3702-2.9304-2.0449zm20.231 8.482c-0.9786-1.1028-0.9422-1.4747 0.3607-3.6822 0.7971-1.3505 1.7841-4.0842 2.1933-6.0749 0.8887-4.3234 1.643-4.9212 5.546-4.3952 2.3261 0.31347 2.686 0.5291 3.0675 1.8377 0.4196 1.4394 0.4953 1.4731 2.598 1.1579 2.9319-0.43939 6.89 1.261 7.7335 3.3224 0.5828 1.4242 0.3523 2.2417-2.1738 7.7093-2.6265 5.6849-2.9417 6.1289-4.4697 6.2971-2.397 0.26387-6.0401-1.3635-5.9999-2.68 0.018-0.58805 1.1299-2.7317 2.4715-4.7634 2.8437-4.3075 2.8631-5.9894 0.058-5.0015-1.2732 0.44835-1.9158 1.289-3.046 3.9848-1.8604 4.4375-3.042 5.3841-5.4085 4.3328-1.0131-0.44998-2.3318-1.3702-2.9305-2.0449zm-220.94-113.21c-1.0118-1.6038-0.0396-4.8998 1.649-5.5908 1.7329-0.70906 5.2672 1.2056 5.6732 3.0734 0.49561 2.2801 0.0529 3.0552-2.2936 4.0154-2.328 0.95264-3.7497 0.52911-5.0285-1.498z" stroke-width=".83571"/></svg>
