<?xml version="1.0" encoding="UTF-8"?>
<svg width="512pt" height="512pt" preserveAspectRatio="xMidYMid" version="1.0" viewBox="0 0 512 512" xml:space="preserve" xmlns="http://www.w3.org/2000/svg"><g transform="matrix(.1 0 0 -.1 -67.58 1246.5)"><g transform="translate(-2226.6 1710)"><g transform="matrix(1.0546 0 0 1.0546 4655.7 -4721.4)"><g><path d="m2269.1 10911c250.12-45 346.45-82 596.57-229 105.63-61 191.82-114 192.66-117 0-3-120.84-3-267.87 1-213.79 4-295.75 10-399.69 27-241.67 41-583.05 46-840.78 12-41.405-5-114.08-14-160.55-20-122.53-16-556.01-22-957.39-14-387.01 7-410.67 13-225.62 53 55.77 12 158.86 37 228.15 56 70.135 19 170.69 44 223.93 55 53.235 11 129.29 29 169 40 102.25 28 548.41 116 688.68 136 286.46 41 527.28 41 752.9 0z" fill="#188c00" stroke-width=".91924"/><path d="m-1411.4 10845c188.02-91.491 50.476-32.121 337.1-143.25 170.42-66.077 226.97-88.972 274.97-113.97-21.423-67.935-553.59 120.5-621.59 140.5-75 22-116.45 39.193-148.07 68.193-3 14-29.467 74.872-33.467 126.87l-5.4256 143.81 32.659-58.85c20.415-66.897 101.28-103.6 163.83-163.3z" fill="#178a00" stop-color="#000000" stroke-width="12.214" style="-inkscape-stroke:none;font-variation-settings:normal"/><path d="m-1378.7 11331c185.65-101 276.19-135 465.5-175 404.23-86 796.57-63 1434 83 133.52 30 331.98 76 442.64 101 460.93 105 802.97 147 1029.8 127 325.58-29 600.86-119 824.92-270 81.394-55 340.17-297.56 374.01-337.56l-119.65 9.946c-124.68 69.741-498.86 203.17-635.72 234.61-179.25 40-224.98 43-512.14 38-155.47-3-299.06-8-317.35-11-19.205-3-48.471-8-64.018-10-16.462-2-79.565-13-139.93-24-425.05-56.515-1295-306-1888.5-306-214.92-1-232.29 1-434.41 37l-210.34 37-183.82 99c-100.6 55-191.14 110-201.2 122-9.1454 11-32.924 30-51.214 40-39.325 22-53.044 60-53.044 154 0 33-4.5727 91-9.1453 130-4.5727 38-5.4873 73-3.6582 77 2.7436 5 25.607-9 50.3-31 25.607-22 117.06-78 203.03-125z" fill="#188c00" stroke-width=".95632"/><path d="m2804.7 11987c59-29 101-72 115-120 19-61-7-135-67-190-80-73-155-89-229-47-52 29-75 75-75 151 0 105 54 181 152 211 57 18 55 18 104-5z" fill="#178a00"/><path d="m-1294.9 11820c61-32 86-115 55-189-20-49-60-76-114-76-39 0-50 5-88 44-36 36-44 50-44 81 0 41 22 95 49 119 10 9 38 20 62 25s45 9 47 10 16-6 33-14z" fill="#f6d732"/><path d="m496.01 13543-118.01-124c-65-68.999-203.99-204.01-308.99-302.01-106-97-300-283-432-413-132-129-272-264-312-300l-71.001-64 0.9961-500c1-325 4.9971-500 11.997-501 6 0 30.009-3.999 54.009-7.999 33-6 45.987-5.004 51.987 4.996 7 11 9.0088 9.997 9.0088-3.003 0-14 7.998-17.989 37.998-17.989 27 0 33.002 2.991 22.002 9.991-11 7-11.007 10.004-2.0069 10.004 7 0 10.998 3.999 7.9981 7.999-6 10 123.01 35.997 132.01 26.997 3-3-1.0127-4.996-8.0127-4.996-9 0-6.9938-7.005 6.0058-21.005 17-19 26.008-21 88.008-15 38 4 102.99 15.001 143.99 26.001 42 11 87.001 20.009 101 20.009 83 0 347.99 53 473.99 93.999 75 25 186.01 53.996 245.01 64.996 94 16.999 278.99 78.001 351.99 116 14 8 77.01 37.995 140.01 68.995 164 78.999 279 144.01 346 197.01 33 25 74.007 54.003 92.007 63.003s40.991 30.993 50.991 46.993c10 17 28.005 37 40.005 45 11 8 20.991 22 20.991 30s7 14.003 15 14.003c10 0 15 10 15 30 0 33-13.989 38.994-28.989 12.994-10-17-10.001-16.996-11.001-0.996 0 9-7.0069 21.001-17.007 26.001-21 12-24.002 51.006-7.0019 77.006 25 35 16.002 51.991-52.998 99.991-38 26-77.996 59.996-90.996 75.996s-29.002 29.004-37.002 29.004c-7 0-27.992 16.998-46.992 37.998-19 20-58.001 58.005-86.001 85.005-65 59.999-39.004 63.002 30.996 3.002 29-24 62.992-49.001 76.992-56.001 28-15 106.01-100 103.01-112-2-4 1.9984-7.999 7.998-7.999 6 0 38.997-25.004 71.997-55.004 56-50 97.002-68.996 97.002-45.996 0 4.999 11.005 12 25.005 15 14 3.999 24.99 10 24.99 15 0 16.999-529.99 523-729.99 698-180 157-273 243-329 305-28 31-85.994 88.006-128.99 126.01zm-242.99-960.78c86.198 0.559 201.61-6.914 213.98-17.227 12-10 15-36.999 15-124 0-60.999-2.9912-135.01-5.9912-163.01l-7.002-52.998h-178.01c-208 0-184-17.999-194 146-6 102 4.0117 176 27.012 190 6 4 24.997 11 41.997 15 14.688 4.063 47.831 5.972 87.012 6.226zm541.48-0.981c6.4277-0.04 12.626-0.124 18.501-0.249 129-1 129.01-0.999 129.01-188 0-145-1.002-149-22.002-157-13-4-93.004-11.004-179-14.004-155-6-156.99-5.99-162.99 16.01-12 44-6.998 302 7.002 320 8 11 31.992 16.995 76.992 19.995 31.5 1.75 87.501 3.511 132.5 3.252zm-508.24-474.49c87.5 0.25 176.24-5.257 185.74-16.757 17-21 10.002-319-7.9981-337-9-9-57.001-13.996-146-15.996-148-4-188 5.994-206 53.994-11 28-13.999 273.01-3.999 298.01 4.5 11.499 90.757 17.503 178.26 17.753zm305.74-1.757h160c92 0 170-3.991 181-9.991 17-10 18.999-22.005 18.999-145 0-72.999-3.9903-145-9.9902-160-17-44-58.002-52.993-217-46.993-134 4-142 6.001-147 26.001-10 36-7.0009 282.99 3.9991 309.99z" fill="#ee6120"/><path d="m2581.5 14209c57-29 84-56 111-113 76-161-40-336-220-334-149 1-259 98-259 229-1 46 6 67 38 124 42 75 62 89 165 112 65 15 110 10 165-18z" fill="#ffe700"/></g><path d="m722.01 13570c7-8 17-15 23-15 20 0 96-65 92-78-3-7 0-10 5-7 6 4 36-14 68-39 155-124 186-148 215-163 18-9 55-38 82-65 50-49 153-108 186-108 40 0 52 43 57 200 3 97 9 150 16 153 6 2 78 2 160-1l148-5-6-381c-6-376-8-436-14-436-2 0-67 59-145 132-78 72-203 183-277 247s-146 126-160 137c-14 12-79 69-146 125-161 138-342 302-343 312-2 13 26 7 39-8z"/><path d="m-847.94 13830c26-17 58-44 72-60 26-31 55-115 55-158 0-70-94-180-172-201-77-21-200 21-253 87-25 32-30 49-33 105-4 56-1 73 17 100 11 18 21 29 21 23 0-15 40 53 40 68 0 18 40 54 65 60 11 3 47 5 81 6 52 1 67-3 107-30z" fill="#0baa00"/><path d="m550.01 13720c41-18 82-52 82-70 0-6 9-19 21-28 11-10 18-21 15-24-3-4-19 5-34 18-15 14-53 45-85 68l-57 43-57-46c-31-26-140-127-242-224-359-343-418-398-590-557-95-88-176-165-180-172-14-25-300-309-328-325-18-10-34-14-43-8-11 7-9 16 12 47 39 57 774 793 843 843 101 74 230 187 338 295 117 117 143 136 201 146 63 10 64 10 104-6z"/><path d="m597.01 14073c323-297 535-472 551-455 10 10 23 87 24 137v45l457-3 458-3 6-237c4-130 7-363 8-517l1-281 133-125c151-144 178-163 207-154 19 6 20 2 20-78 0-100 20-212 49-280 23-53 27-87 10-87-5 0-40 4-77 9s-121 12-187 15l-120 6v-173c0-94-3-184-7-199-8-25-12-27-79-30-52-2-73 1-76 10-10 24 3 522 13 532 6 6 66 7 172 2l162-7v55c-1 74-15 101-81 152-64 49-217 186-266 237l-33 35v946h-284c-156 0-298 3-315 6l-31 7-1-129c0-127-9-218-23-231-3-4-40 28-82 70-41 42-108 101-147 131-40 30-130 103-201 163-71 59-154 129-185 154-31 26-85 74-120 108-35 33-67 61-71 61-16 0-234-191-450-395-124-116-423-407-665-646-243-239-491-478-552-532-116-102-143-133-143-165 0-17 5-18 58-10 31 4 121 7 200 6 135-1 143-3 148-22 2-12 3-203 2-426-3-353-5-405-18-403-45 7-115 24-121 31-4 4-9 152-11 330-2 222-6 321-14 318-13-5-437 11-514 20-51 6-59 10-65 31-3 13-1 41 5 63 8 31 20 45 63 71 28 17 126 104 217 193 91 88 273 264 405 391 132 126 357 344 500 485 395 389 918 870 944 870 9 0 66-46 126-102z"/></g></g></g><script id="mesh_polyfill" type="text/javascript">
!function(){const t="http://www.w3.org/2000/svg",e="http://www.w3.org/1999/xlink",s="http://www.w3.org/1999/xhtml",r=2;if(document.createElementNS(t,"meshgradient").x)return;const n=(t,e,s,r)=&gt;{let n=new x(.5*(e.x+s.x),.5*(e.y+s.y)),o=new x(.5*(t.x+e.x),.5*(t.y+e.y)),i=new x(.5*(s.x+r.x),.5*(s.y+r.y)),a=new x(.5*(n.x+o.x),.5*(n.y+o.y)),h=new x(.5*(n.x+i.x),.5*(n.y+i.y)),l=new x(.5*(a.x+h.x),.5*(a.y+h.y));return[[t,o,a,l],[l,h,i,r]]},o=t=&gt;{let e=t[0].distSquared(t[1]),s=t[2].distSquared(t[3]),r=.25*t[0].distSquared(t[2]),n=.25*t[1].distSquared(t[3]),o=e&gt;s?e:s,i=r&gt;n?r:n;return 18*(o&gt;i?o:i)},i=(t,e)=&gt;Math.sqrt(t.distSquared(e)),a=(t,e)=&gt;t.scale(2/3).add(e.scale(1/3)),h=t=&gt;{let e,s,r,n,o,i,a,h=new g;return t.match(/(\w+\(\s*[^)]+\))+/g).forEach(t=&gt;{let l=t.match(/[\w.-]+/g),d=l.shift();switch(d){case"translate":2===l.length?e=new g(1,0,0,1,l[0],l[1]):(console.error("mesh.js: translate does not have 2 arguments!"),e=new g(1,0,0,1,0,0)),h=h.append(e);break;case"scale":1===l.length?s=new g(l[0],0,0,l[0],0,0):2===l.length?s=new g(l[0],0,0,l[1],0,0):(console.error("mesh.js: scale does not have 1 or 2 arguments!"),s=new g(1,0,0,1,0,0)),h=h.append(s);break;case"rotate":if(3===l.length&amp;&amp;(e=new g(1,0,0,1,l[1],l[2]),h=h.append(e)),l[0]){r=l[0]*Math.PI/180;let t=Math.cos(r),e=Math.sin(r);Math.abs(t)&lt;1e-16&amp;&amp;(t=0),Math.abs(e)&lt;1e-16&amp;&amp;(e=0),a=new g(t,e,-e,t,0,0),h=h.append(a)}else console.error("math.js: No argument to rotate transform!");3===l.length&amp;&amp;(e=new g(1,0,0,1,-l[1],-l[2]),h=h.append(e));break;case"skewX":l[0]?(r=l[0]*Math.PI/180,n=Math.tan(r),o=new g(1,0,n,1,0,0),h=h.append(o)):console.error("math.js: No argument to skewX transform!");break;case"skewY":l[0]?(r=l[0]*Math.PI/180,n=Math.tan(r),i=new g(1,n,0,1,0,0),h=h.append(i)):console.error("math.js: No argument to skewY transform!");break;case"matrix":6===l.length?h=h.append(new g(...l)):console.error("math.js: Incorrect number of arguments for matrix!");break;default:console.error("mesh.js: Unhandled transform type: "+d)}}),h},l=t=&gt;{let e=[],s=t.split(/[ ,]+/);for(let t=0,r=s.length-1;t&lt;r;t+=2)e.push(new x(parseFloat(s[t]),parseFloat(s[t+1])));return e},d=(t,e)=&gt;{for(let s in e)t.setAttribute(s,e[s])},c=(t,e,s,r,n)=&gt;{let o,i,a=[0,0,0,0];for(let h=0;h&lt;3;++h)e[h]&lt;t[h]&amp;&amp;e[h]&lt;s[h]||t[h]&lt;e[h]&amp;&amp;s[h]&lt;e[h]?a[h]=0:(a[h]=.5*((e[h]-t[h])/r+(s[h]-e[h])/n),o=Math.abs(3*(e[h]-t[h])/r),i=Math.abs(3*(s[h]-e[h])/n),a[h]&gt;o?a[h]=o:a[h]&gt;i&amp;&amp;(a[h]=i));return a},u=[[1,0,0,0,0,0,0,0,0,0,0,0,0,0,0,0],[0,0,0,0,1,0,0,0,0,0,0,0,0,0,0,0],[-3,3,0,0,-2,-1,0,0,0,0,0,0,0,0,0,0],[2,-2,0,0,1,1,0,0,0,0,0,0,0,0,0,0],[0,0,0,0,0,0,0,0,1,0,0,0,0,0,0,0],[0,0,0,0,0,0,0,0,0,0,0,0,1,0,0,0],[0,0,0,0,0,0,0,0,-3,3,0,0,-2,-1,0,0],[0,0,0,0,0,0,0,0,2,-2,0,0,1,1,0,0],[-3,0,3,0,0,0,0,0,-2,0,-1,0,0,0,0,0],[0,0,0,0,-3,0,3,0,0,0,0,0,-2,0,-1,0],[9,-9,-9,9,6,3,-6,-3,6,-6,3,-3,4,2,2,1],[-6,6,6,-6,-3,-3,3,3,-4,4,-2,2,-2,-2,-1,-1],[2,0,-2,0,0,0,0,0,1,0,1,0,0,0,0,0],[0,0,0,0,2,0,-2,0,0,0,0,0,1,0,1,0],[-6,6,6,-6,-4,-2,4,2,-3,3,-3,3,-2,-1,-2,-1],[4,-4,-4,4,2,2,-2,-2,2,-2,2,-2,1,1,1,1]],f=t=&gt;{let e=[];for(let s=0;s&lt;16;++s){e[s]=0;for(let r=0;r&lt;16;++r)e[s]+=u[s][r]*t[r]}return e},p=(t,e,s)=&gt;{const r=e*e,n=s*s,o=e*e*e,i=s*s*s;return t[0]+t[1]*e+t[2]*r+t[3]*o+t[4]*s+t[5]*s*e+t[6]*s*r+t[7]*s*o+t[8]*n+t[9]*n*e+t[10]*n*r+t[11]*n*o+t[12]*i+t[13]*i*e+t[14]*i*r+t[15]*i*o},y=t=&gt;{let e=[],s=[],r=[];for(let s=0;s&lt;4;++s)e[s]=[],e[s][0]=n(t[0][s],t[1][s],t[2][s],t[3][s]),e[s][1]=[],e[s][1].push(...n(...e[s][0][0])),e[s][1].push(...n(...e[s][0][1])),e[s][2]=[],e[s][2].push(...n(...e[s][1][0])),e[s][2].push(...n(...e[s][1][1])),e[s][2].push(...n(...e[s][1][2])),e[s][2].push(...n(...e[s][1][3]));for(let t=0;t&lt;8;++t){s[t]=[];for(let r=0;r&lt;4;++r)s[t][r]=[],s[t][r][0]=n(e[0][2][t][r],e[1][2][t][r],e[2][2][t][r],e[3][2][t][r]),s[t][r][1]=[],s[t][r][1].push(...n(...s[t][r][0][0])),s[t][r][1].push(...n(...s[t][r][0][1])),s[t][r][2]=[],s[t][r][2].push(...n(...s[t][r][1][0])),s[t][r][2].push(...n(...s[t][r][1][1])),s[t][r][2].push(...n(...s[t][r][1][2])),s[t][r][2].push(...n(...s[t][r][1][3]))}for(let t=0;t&lt;8;++t){r[t]=[];for(let e=0;e&lt;8;++e)r[t][e]=[],r[t][e][0]=s[t][0][2][e],r[t][e][1]=s[t][1][2][e],r[t][e][2]=s[t][2][2][e],r[t][e][3]=s[t][3][2][e]}return r};class x{constructor(t,e){this.x=t||0,this.y=e||0}toString(){return`(x=${this.x}, y=${this.y})`}clone(){return new x(this.x,this.y)}add(t){return new x(this.x+t.x,this.y+t.y)}scale(t){return void 0===t.x?new x(this.x*t,this.y*t):new x(this.x*t.x,this.y*t.y)}distSquared(t){let e=this.x-t.x,s=this.y-t.y;return e*e+s*s}transform(t){let e=this.x*t.a+this.y*t.c+t.e,s=this.x*t.b+this.y*t.d+t.f;return new x(e,s)}}class g{constructor(t,e,s,r,n,o){void 0===t?(this.a=1,this.b=0,this.c=0,this.d=1,this.e=0,this.f=0):(this.a=t,this.b=e,this.c=s,this.d=r,this.e=n,this.f=o)}toString(){return`affine: ${this.a} ${this.c} ${this.e} \n       ${this.b} ${this.d} ${this.f}`}append(t){t instanceof g||console.error("mesh.js: argument to Affine.append is not affine!");let e=this.a*t.a+this.c*t.b,s=this.b*t.a+this.d*t.b,r=this.a*t.c+this.c*t.d,n=this.b*t.c+this.d*t.d,o=this.a*t.e+this.c*t.f+this.e,i=this.b*t.e+this.d*t.f+this.f;return new g(e,s,r,n,o,i)}}class w{constructor(t,e){this.nodes=t,this.colors=e}paintCurve(t,e){if(o(this.nodes)&gt;r){const s=n(...this.nodes);let r=[[],[]],o=[[],[]];for(let t=0;t&lt;4;++t)r[0][t]=this.colors[0][t],r[1][t]=(this.colors[0][t]+this.colors[1][t])/2,o[0][t]=r[1][t],o[1][t]=this.colors[1][t];let i=new w(s[0],r),a=new w(s[1],o);i.paintCurve(t,e),a.paintCurve(t,e)}else{let s=Math.round(this.nodes[0].x);if(s&gt;=0&amp;&amp;s&lt;e){let r=4*(~~this.nodes[0].y*e+s);t[r]=Math.round(this.colors[0][0]),t[r+1]=Math.round(this.colors[0][1]),t[r+2]=Math.round(this.colors[0][2]),t[r+3]=Math.round(this.colors[0][3])}}}}class m{constructor(t,e){this.nodes=t,this.colors=e}split(){let t=[[],[],[],[]],e=[[],[],[],[]],s=[[[],[]],[[],[]]],r=[[[],[]],[[],[]]];for(let s=0;s&lt;4;++s){const r=n(this.nodes[0][s],this.nodes[1][s],this.nodes[2][s],this.nodes[3][s]);t[0][s]=r[0][0],t[1][s]=r[0][1],t[2][s]=r[0][2],t[3][s]=r[0][3],e[0][s]=r[1][0],e[1][s]=r[1][1],e[2][s]=r[1][2],e[3][s]=r[1][3]}for(let t=0;t&lt;4;++t)s[0][0][t]=this.colors[0][0][t],s[0][1][t]=this.colors[0][1][t],s[1][0][t]=(this.colors[0][0][t]+this.colors[1][0][t])/2,s[1][1][t]=(this.colors[0][1][t]+this.colors[1][1][t])/2,r[0][0][t]=s[1][0][t],r[0][1][t]=s[1][1][t],r[1][0][t]=this.colors[1][0][t],r[1][1][t]=this.colors[1][1][t];return[new m(t,s),new m(e,r)]}paint(t,e){let s,n=!1;for(let t=0;t&lt;4;++t)if((s=o([this.nodes[0][t],this.nodes[1][t],this.nodes[2][t],this.nodes[3][t]]))&gt;r){n=!0;break}if(n){let s=this.split();s[0].paint(t,e),s[1].paint(t,e)}else{new w([...this.nodes[0]],[...this.colors[0]]).paintCurve(t,e)}}}class b{constructor(t){this.readMesh(t),this.type=t.getAttribute("type")||"bilinear"}readMesh(t){let e=[[]],s=[[]],r=Number(t.getAttribute("x")),n=Number(t.getAttribute("y"));e[0][0]=new x(r,n);let o=t.children;for(let t=0,r=o.length;t&lt;r;++t){e[3*t+1]=[],e[3*t+2]=[],e[3*t+3]=[],s[t+1]=[];let r=o[t].children;for(let n=0,o=r.length;n&lt;o;++n){let o=r[n].children;for(let r=0,i=o.length;r&lt;i;++r){let i=r;0!==t&amp;&amp;++i;let h,d=o[r].getAttribute("path"),c="l";null!=d&amp;&amp;(c=(h=d.match(/\s*([lLcC])\s*(.*)/))[1]);let u=l(h[2]);switch(c){case"l":0===i?(e[3*t][3*n+3]=u[0].add(e[3*t][3*n]),e[3*t][3*n+1]=a(e[3*t][3*n],e[3*t][3*n+3]),e[3*t][3*n+2]=a(e[3*t][3*n+3],e[3*t][3*n])):1===i?(e[3*t+3][3*n+3]=u[0].add(e[3*t][3*n+3]),e[3*t+1][3*n+3]=a(e[3*t][3*n+3],e[3*t+3][3*n+3]),e[3*t+2][3*n+3]=a(e[3*t+3][3*n+3],e[3*t][3*n+3])):2===i?(0===n&amp;&amp;(e[3*t+3][3*n+0]=u[0].add(e[3*t+3][3*n+3])),e[3*t+3][3*n+1]=a(e[3*t+3][3*n],e[3*t+3][3*n+3]),e[3*t+3][3*n+2]=a(e[3*t+3][3*n+3],e[3*t+3][3*n])):(e[3*t+1][3*n]=a(e[3*t][3*n],e[3*t+3][3*n]),e[3*t+2][3*n]=a(e[3*t+3][3*n],e[3*t][3*n]));break;case"L":0===i?(e[3*t][3*n+3]=u[0],e[3*t][3*n+1]=a(e[3*t][3*n],e[3*t][3*n+3]),e[3*t][3*n+2]=a(e[3*t][3*n+3],e[3*t][3*n])):1===i?(e[3*t+3][3*n+3]=u[0],e[3*t+1][3*n+3]=a(e[3*t][3*n+3],e[3*t+3][3*n+3]),e[3*t+2][3*n+3]=a(e[3*t+3][3*n+3],e[3*t][3*n+3])):2===i?(0===n&amp;&amp;(e[3*t+3][3*n+0]=u[0]),e[3*t+3][3*n+1]=a(e[3*t+3][3*n],e[3*t+3][3*n+3]),e[3*t+3][3*n+2]=a(e[3*t+3][3*n+3],e[3*t+3][3*n])):(e[3*t+1][3*n]=a(e[3*t][3*n],e[3*t+3][3*n]),e[3*t+2][3*n]=a(e[3*t+3][3*n],e[3*t][3*n]));break;case"c":0===i?(e[3*t][3*n+1]=u[0].add(e[3*t][3*n]),e[3*t][3*n+2]=u[1].add(e[3*t][3*n]),e[3*t][3*n+3]=u[2].add(e[3*t][3*n])):1===i?(e[3*t+1][3*n+3]=u[0].add(e[3*t][3*n+3]),e[3*t+2][3*n+3]=u[1].add(e[3*t][3*n+3]),e[3*t+3][3*n+3]=u[2].add(e[3*t][3*n+3])):2===i?(e[3*t+3][3*n+2]=u[0].add(e[3*t+3][3*n+3]),e[3*t+3][3*n+1]=u[1].add(e[3*t+3][3*n+3]),0===n&amp;&amp;(e[3*t+3][3*n+0]=u[2].add(e[3*t+3][3*n+3]))):(e[3*t+2][3*n]=u[0].add(e[3*t+3][3*n]),e[3*t+1][3*n]=u[1].add(e[3*t+3][3*n]));break;case"C":0===i?(e[3*t][3*n+1]=u[0],e[3*t][3*n+2]=u[1],e[3*t][3*n+3]=u[2]):1===i?(e[3*t+1][3*n+3]=u[0],e[3*t+2][3*n+3]=u[1],e[3*t+3][3*n+3]=u[2]):2===i?(e[3*t+3][3*n+2]=u[0],e[3*t+3][3*n+1]=u[1],0===n&amp;&amp;(e[3*t+3][3*n+0]=u[2])):(e[3*t+2][3*n]=u[0],e[3*t+1][3*n]=u[1]);break;default:console.error("mesh.js: "+c+" invalid path type.")}if(0===t&amp;&amp;0===n||r&gt;0){let e=window.getComputedStyle(o[r]).stopColor.match(/^rgb\s*\(\s*(\d+)\s*,\s*(\d+)\s*,\s*(\d+)\s*\)$/i),a=window.getComputedStyle(o[r]).stopOpacity,h=255;a&amp;&amp;(h=Math.floor(255*a)),e&amp;&amp;(0===i?(s[t][n]=[],s[t][n][0]=Math.floor(e[1]),s[t][n][1]=Math.floor(e[2]),s[t][n][2]=Math.floor(e[3]),s[t][n][3]=h):1===i?(s[t][n+1]=[],s[t][n+1][0]=Math.floor(e[1]),s[t][n+1][1]=Math.floor(e[2]),s[t][n+1][2]=Math.floor(e[3]),s[t][n+1][3]=h):2===i?(s[t+1][n+1]=[],s[t+1][n+1][0]=Math.floor(e[1]),s[t+1][n+1][1]=Math.floor(e[2]),s[t+1][n+1][2]=Math.floor(e[3]),s[t+1][n+1][3]=h):3===i&amp;&amp;(s[t+1][n]=[],s[t+1][n][0]=Math.floor(e[1]),s[t+1][n][1]=Math.floor(e[2]),s[t+1][n][2]=Math.floor(e[3]),s[t+1][n][3]=h))}}e[3*t+1][3*n+1]=new x,e[3*t+1][3*n+2]=new x,e[3*t+2][3*n+1]=new x,e[3*t+2][3*n+2]=new x,e[3*t+1][3*n+1].x=(-4*e[3*t][3*n].x+6*(e[3*t][3*n+1].x+e[3*t+1][3*n].x)+-2*(e[3*t][3*n+3].x+e[3*t+3][3*n].x)+3*(e[3*t+3][3*n+1].x+e[3*t+1][3*n+3].x)+-1*e[3*t+3][3*n+3].x)/9,e[3*t+1][3*n+2].x=(-4*e[3*t][3*n+3].x+6*(e[3*t][3*n+2].x+e[3*t+1][3*n+3].x)+-2*(e[3*t][3*n].x+e[3*t+3][3*n+3].x)+3*(e[3*t+3][3*n+2].x+e[3*t+1][3*n].x)+-1*e[3*t+3][3*n].x)/9,e[3*t+2][3*n+1].x=(-4*e[3*t+3][3*n].x+6*(e[3*t+3][3*n+1].x+e[3*t+2][3*n].x)+-2*(e[3*t+3][3*n+3].x+e[3*t][3*n].x)+3*(e[3*t][3*n+1].x+e[3*t+2][3*n+3].x)+-1*e[3*t][3*n+3].x)/9,e[3*t+2][3*n+2].x=(-4*e[3*t+3][3*n+3].x+6*(e[3*t+3][3*n+2].x+e[3*t+2][3*n+3].x)+-2*(e[3*t+3][3*n].x+e[3*t][3*n+3].x)+3*(e[3*t][3*n+2].x+e[3*t+2][3*n].x)+-1*e[3*t][3*n].x)/9,e[3*t+1][3*n+1].y=(-4*e[3*t][3*n].y+6*(e[3*t][3*n+1].y+e[3*t+1][3*n].y)+-2*(e[3*t][3*n+3].y+e[3*t+3][3*n].y)+3*(e[3*t+3][3*n+1].y+e[3*t+1][3*n+3].y)+-1*e[3*t+3][3*n+3].y)/9,e[3*t+1][3*n+2].y=(-4*e[3*t][3*n+3].y+6*(e[3*t][3*n+2].y+e[3*t+1][3*n+3].y)+-2*(e[3*t][3*n].y+e[3*t+3][3*n+3].y)+3*(e[3*t+3][3*n+2].y+e[3*t+1][3*n].y)+-1*e[3*t+3][3*n].y)/9,e[3*t+2][3*n+1].y=(-4*e[3*t+3][3*n].y+6*(e[3*t+3][3*n+1].y+e[3*t+2][3*n].y)+-2*(e[3*t+3][3*n+3].y+e[3*t][3*n].y)+3*(e[3*t][3*n+1].y+e[3*t+2][3*n+3].y)+-1*e[3*t][3*n+3].y)/9,e[3*t+2][3*n+2].y=(-4*e[3*t+3][3*n+3].y+6*(e[3*t+3][3*n+2].y+e[3*t+2][3*n+3].y)+-2*(e[3*t+3][3*n].y+e[3*t][3*n+3].y)+3*(e[3*t][3*n+2].y+e[3*t+2][3*n].y)+-1*e[3*t][3*n].y)/9}}this.nodes=e,this.colors=s}paintMesh(t,e){let s=(this.nodes.length-1)/3,r=(this.nodes[0].length-1)/3;if("bilinear"===this.type||s&lt;2||r&lt;2){let n;for(let o=0;o&lt;s;++o)for(let s=0;s&lt;r;++s){let r=[];for(let t=3*o,e=3*o+4;t&lt;e;++t)r.push(this.nodes[t].slice(3*s,3*s+4));let i=[];i.push(this.colors[o].slice(s,s+2)),i.push(this.colors[o+1].slice(s,s+2)),(n=new m(r,i)).paint(t,e)}}else{let n,o,a,h,l,d,u;const x=s,g=r;s++,r++;let w=new Array(s);for(let t=0;t&lt;s;++t){w[t]=new Array(r);for(let e=0;e&lt;r;++e)w[t][e]=[],w[t][e][0]=this.nodes[3*t][3*e],w[t][e][1]=this.colors[t][e]}for(let t=0;t&lt;s;++t)for(let e=0;e&lt;r;++e)0!==t&amp;&amp;t!==x&amp;&amp;(n=i(w[t-1][e][0],w[t][e][0]),o=i(w[t+1][e][0],w[t][e][0]),w[t][e][2]=c(w[t-1][e][1],w[t][e][1],w[t+1][e][1],n,o)),0!==e&amp;&amp;e!==g&amp;&amp;(n=i(w[t][e-1][0],w[t][e][0]),o=i(w[t][e+1][0],w[t][e][0]),w[t][e][3]=c(w[t][e-1][1],w[t][e][1],w[t][e+1][1],n,o));for(let t=0;t&lt;r;++t){w[0][t][2]=[],w[x][t][2]=[];for(let e=0;e&lt;4;++e)n=i(w[1][t][0],w[0][t][0]),o=i(w[x][t][0],w[x-1][t][0]),w[0][t][2][e]=n&gt;0?2*(w[1][t][1][e]-w[0][t][1][e])/n-w[1][t][2][e]:0,w[x][t][2][e]=o&gt;0?2*(w[x][t][1][e]-w[x-1][t][1][e])/o-w[x-1][t][2][e]:0}for(let t=0;t&lt;s;++t){w[t][0][3]=[],w[t][g][3]=[];for(let e=0;e&lt;4;++e)n=i(w[t][1][0],w[t][0][0]),o=i(w[t][g][0],w[t][g-1][0]),w[t][0][3][e]=n&gt;0?2*(w[t][1][1][e]-w[t][0][1][e])/n-w[t][1][3][e]:0,w[t][g][3][e]=o&gt;0?2*(w[t][g][1][e]-w[t][g-1][1][e])/o-w[t][g-1][3][e]:0}for(let s=0;s&lt;x;++s)for(let r=0;r&lt;g;++r){let n=i(w[s][r][0],w[s+1][r][0]),o=i(w[s][r+1][0],w[s+1][r+1][0]),c=i(w[s][r][0],w[s][r+1][0]),x=i(w[s+1][r][0],w[s+1][r+1][0]),g=[[],[],[],[]];for(let t=0;t&lt;4;++t){(d=[])[0]=w[s][r][1][t],d[1]=w[s+1][r][1][t],d[2]=w[s][r+1][1][t],d[3]=w[s+1][r+1][1][t],d[4]=w[s][r][2][t]*n,d[5]=w[s+1][r][2][t]*n,d[6]=w[s][r+1][2][t]*o,d[7]=w[s+1][r+1][2][t]*o,d[8]=w[s][r][3][t]*c,d[9]=w[s+1][r][3][t]*x,d[10]=w[s][r+1][3][t]*c,d[11]=w[s+1][r+1][3][t]*x,d[12]=0,d[13]=0,d[14]=0,d[15]=0,u=f(d);for(let e=0;e&lt;9;++e){g[t][e]=[];for(let s=0;s&lt;9;++s)g[t][e][s]=p(u,e/8,s/8),g[t][e][s]&gt;255?g[t][e][s]=255:g[t][e][s]&lt;0&amp;&amp;(g[t][e][s]=0)}}h=[];for(let t=3*s,e=3*s+4;t&lt;e;++t)h.push(this.nodes[t].slice(3*r,3*r+4));l=y(h);for(let s=0;s&lt;8;++s)for(let r=0;r&lt;8;++r)(a=new m(l[s][r],[[[g[0][s][r],g[1][s][r],g[2][s][r],g[3][s][r]],[g[0][s][r+1],g[1][s][r+1],g[2][s][r+1],g[3][s][r+1]]],[[g[0][s+1][r],g[1][s+1][r],g[2][s+1][r],g[3][s+1][r]],[g[0][s+1][r+1],g[1][s+1][r+1],g[2][s+1][r+1],g[3][s+1][r+1]]]])).paint(t,e)}}}transform(t){if(t instanceof x)for(let e=0,s=this.nodes.length;e&lt;s;++e)for(let s=0,r=this.nodes[0].length;s&lt;r;++s)this.nodes[e][s]=this.nodes[e][s].add(t);else if(t instanceof g)for(let e=0,s=this.nodes.length;e&lt;s;++e)for(let s=0,r=this.nodes[0].length;s&lt;r;++s)this.nodes[e][s]=this.nodes[e][s].transform(t)}scale(t){for(let e=0,s=this.nodes.length;e&lt;s;++e)for(let s=0,r=this.nodes[0].length;s&lt;r;++s)this.nodes[e][s]=this.nodes[e][s].scale(t)}}document.querySelectorAll("rect,circle,ellipse,path,text").forEach((r,n)=&gt;{let o=r.getAttribute("id");o||(o="patchjs_shape"+n,r.setAttribute("id",o));const i=r.style.fill.match(/^url\(\s*"?\s*#([^\s"]+)"?\s*\)/),a=r.style.stroke.match(/^url\(\s*"?\s*#([^\s"]+)"?\s*\)/);if(i&amp;&amp;i[1]){const a=document.getElementById(i[1]);if(a&amp;&amp;"meshgradient"===a.nodeName){const i=r.getBBox();let l=document.createElementNS(s,"canvas");d(l,{width:i.width,height:i.height});const c=l.getContext("2d");let u=c.createImageData(i.width,i.height);const f=new b(a);"objectBoundingBox"===a.getAttribute("gradientUnits")&amp;&amp;f.scale(new x(i.width,i.height));const p=a.getAttribute("gradientTransform");null!=p&amp;&amp;f.transform(h(p)),"userSpaceOnUse"===a.getAttribute("gradientUnits")&amp;&amp;f.transform(new x(-i.x,-i.y)),f.paintMesh(u.data,l.width),c.putImageData(u,0,0);const y=document.createElementNS(t,"image");d(y,{width:i.width,height:i.height,x:i.x,y:i.y});let g=l.toDataURL();y.setAttributeNS(e,"xlink:href",g),r.parentNode.insertBefore(y,r),r.style.fill="none";const w=document.createElementNS(t,"use");w.setAttributeNS(e,"xlink:href","#"+o);const m="patchjs_clip"+n,M=document.createElementNS(t,"clipPath");M.setAttribute("id",m),M.appendChild(w),r.parentElement.insertBefore(M,r),y.setAttribute("clip-path","url(#"+m+")"),u=null,l=null,g=null}}if(a&amp;&amp;a[1]){const o=document.getElementById(a[1]);if(o&amp;&amp;"meshgradient"===o.nodeName){const i=parseFloat(r.style.strokeWidth.slice(0,-2))*(parseFloat(r.style.strokeMiterlimit)||parseFloat(r.getAttribute("stroke-miterlimit"))||1),a=r.getBBox(),l=Math.trunc(a.width+i),c=Math.trunc(a.height+i),u=Math.trunc(a.x-i/2),f=Math.trunc(a.y-i/2);let p=document.createElementNS(s,"canvas");d(p,{width:l,height:c});const y=p.getContext("2d");let g=y.createImageData(l,c);const w=new b(o);"objectBoundingBox"===o.getAttribute("gradientUnits")&amp;&amp;w.scale(new x(l,c));const m=o.getAttribute("gradientTransform");null!=m&amp;&amp;w.transform(h(m)),"userSpaceOnUse"===o.getAttribute("gradientUnits")&amp;&amp;w.transform(new x(-u,-f)),w.paintMesh(g.data,p.width),y.putImageData(g,0,0);const M=document.createElementNS(t,"image");d(M,{width:l,height:c,x:0,y:0});let S=p.toDataURL();M.setAttributeNS(e,"xlink:href",S);const k="pattern_clip"+n,A=document.createElementNS(t,"pattern");d(A,{id:k,patternUnits:"userSpaceOnUse",width:l,height:c,x:u,y:f}),A.appendChild(M),o.parentNode.appendChild(A),r.style.stroke="url(#"+k+")",g=null,p=null,S=null}}})}();
</script></svg>
