<?xml version="1.0" encoding="UTF-8" standalone="no"?>
<!-- Created with Inkscape (http://www.inkscape.org/) -->

<svg
   width="140mm"
   height="140mm"
   viewBox="0 0 140 140"
   version="1.1"
   id="svg1"
   sodipodi:docname="Heckenschere.svg"
   inkscape:export-filename="../images/Heckenschere.png"
   inkscape:export-xdpi="96"
   inkscape:export-ydpi="96"
   inkscape:version="1.4 (e7c3feb1, 2024-10-09)"
   xmlns:inkscape="http://www.inkscape.org/namespaces/inkscape"
   xmlns:sodipodi="http://sodipodi.sourceforge.net/DTD/sodipodi-0.dtd"
   xmlns="http://www.w3.org/2000/svg"
   xmlns:svg="http://www.w3.org/2000/svg">
  <sodipodi:namedview
     id="namedview1"
     pagecolor="#ffffff"
     bordercolor="#000000"
     borderopacity="0.25"
     inkscape:showpageshadow="2"
     inkscape:pageopacity="0.0"
     inkscape:pagecheckerboard="0"
     inkscape:deskcolor="#d1d1d1"
     inkscape:document-units="mm"
     showgrid="true"
     inkscape:zoom="1.706147"
     inkscape:cx="274.00921"
     inkscape:cy="237.37697"
     inkscape:window-width="1920"
     inkscape:window-height="1027"
     inkscape:window-x="0"
     inkscape:window-y="25"
     inkscape:window-maximized="1"
     inkscape:current-layer="svg1">
    <inkscape:grid
       id="grid1"
       units="mm"
       originx="0"
       originy="0"
       spacingx="1"
       spacingy="1"
       empcolor="#0099e5"
       empopacity="0.30196078"
       color="#0099e5"
       opacity="0.14901961"
       empspacing="5"
       enabled="true"
       visible="true" />
  </sodipodi:namedview>
  <defs
     id="defs1" />
  <path
     d="m 71.958832,151.4119 c 0.901608,0.41159 1.666399,0.34758 3.642277,-0.33875 1.876464,-0.64813 3.067689,-1.29545 4.59068,-2.50525 1.613908,-1.28203 2.207073,-2.05216 2.463616,-3.15271 0.311632,-1.33458 0.08448,-2.39063 -1.178045,-5.61355 -1.021707,-2.63971 -1.068895,-2.79246 -8.336505,-31.61402 -1.991869,-7.87488 -3.754719,-14.668016 -3.935123,-15.081814 -0.180403,-0.413796 -1.071915,-2.58624 -1.980403,-4.826726 -0.897123,-2.249514 -1.689514,-4.133823 -1.749074,-4.208802 -0.05296,-0.06663 -0.180692,-0.08746 -0.280108,-0.04925 -0.08143,0.03751 -0.143866,0.0056 -0.13149,-0.07219 0.01237,-0.07777 1.44026,-0.777206 3.168255,-1.565569 1.716628,-0.779334 3.139768,-1.461412 3.165376,-1.522518 0.01237,-0.07777 -1.025444,-2.691095 -1.877396,-4.650382 l -0.13034,-0.304099 -1.793455,0.962653 c -0.989523,0.527863 -1.874886,1.000161 -1.962933,1.029338 -0.10416,0.05556 -0.133213,-0.261053 -0.07019,-0.881801 0.07453,-0.792949 0.05008,-0.963752 -0.144859,-0.999132 -0.690848,-0.07626 -0.728538,-0.263728 -0.208015,-1.288661 0.518655,-1.050623 0.815752,-2.006779 1.021356,-3.311479 0.11611,-0.717273 0.260416,-1.212361 0.387307,-1.285983 0.616474,-0.367408 2.709029,-1.350246 3.945571,-1.870513 1.704256,-0.701566 3.056177,-1.123255 4.267826,-1.324815 0.855721,-0.136232 3.424317,-0.02973 3.56329,0.145221 0.03968,0.05001 -0.619791,0.899968 -1.461137,1.894404 -0.847964,0.986104 -1.502713,1.818726 -1.476243,1.85205 0.421815,0.344321 4.212809,3.039819 4.284743,3.037029 0.07193,-0.0028 0.721934,-0.818053 3.097505,-3.941589 l 1.262165,-1.654823 0.421097,0.08672 c 0.226158,0.05134 0.440951,0.111716 0.460804,0.136708 0.02648,0.03331 -0.08546,0.312467 -0.242856,0.627724 l -0.264578,0.577041 1.384995,0.693416 c 0.767237,0.382455 2.981906,1.490255 4.90424,2.463402 3.026361,1.522881 4.372658,2.097572 9.80159,4.171361 14.73418,5.620327 23.41116,8.959364 28.81923,11.076904 5.27844,2.071036 5.80542,2.291048 7.71725,3.367656 4.67032,2.635631 6.60056,3.222038 8.49502,2.573206 0.73371,-0.243142 0.8947,-0.343846 1.5483,-0.944555 2.08583,-1.901426 4.00892,-4.964508 4.32013,-6.883022 0.38833,-2.428171 -0.30583,-3.045326 -4.95831,-4.44504 -3.62586,-1.087427 -4.43007,-1.399756 -15.73894,-6.045098 -1.40025,-0.572596 -3.37668,-1.380489 -4.39942,-1.804555 -1.03411,-0.415038 -5.28592,-2.1738 -9.45731,-3.901322 -17.143502,-7.089847 -14.92652,-6.250673 -21.203986,-7.954322 -3.080751,-0.836088 -5.65941,-1.523834 -5.737961,-1.529375 -0.06057,-0.0062 -0.410167,0.393762 -0.760779,0.862496 -0.355357,0.486098 -0.67561,0.87637 -0.711577,0.877765 -0.03597,0.0014 -0.723792,-0.281085 -1.523256,-0.610764 -2.925371,-1.209057 -6.045972,-2.127152 -8.064563,-2.358033 -0.448575,-0.05131 -1.98277,-0.0691 -3.398708,-0.03138 -3.721546,0.07561 -4.911033,-0.161661 -7.454867,-1.497151 L 66.902056,57.161572 66.358115,55.80006 C 61.312594,43.054195 56.143484,30.922841 53.882534,26.536372 51.859678,22.61299 46.125676,15.604573 40.970854,10.772124 38.841221,8.7679162 37.986084,8.2514685 37.463267,8.6667706 c -0.863786,0.6861519 0.198736,6.3642924 2.743913,14.6556844 0.630396,2.053754 8.623183,24.320622 8.87552,24.73163 0.06616,0.08333 -1.310331,-0.576086 -4.124776,-1.995546 -1.353777,-0.677451 -3.318696,-1.657535 -4.360283,-2.17534 -1.840044,-0.916224 -3.767126,-1.872011 -8.29674,-4.143837 -4.529613,-2.271825 -14.62108,-7.20483 -16.049668,-7.836443 -2.896883,-1.313212 -4.350364,-1.626119 -4.9244,-1.088604 -0.325862,0.313202 -0.315797,0.699254 0.08787,2.280894 l 0.286711,1.131033 1.831249,2.281994 c 1.88606,2.374331 2.850529,3.401796 6.049652,6.472333 4.005774,3.829318 7.588302,6.799113 10.234996,8.474117 3.049662,1.925595 13.296492,7.754273 23.341048,13.281641 1.740631,0.95443 2.936298,1.689538 3.114977,1.914475 0.443386,0.55818 1.126158,2.257808 1.391,3.501328 0.482643,2.171123 0.279479,3.922283 -0.688774,6.063789 -0.900921,1.992907 -0.988734,5.989545 -0.254075,11.044916 l 0.174062,1.152576 -0.579649,0.460441 -0.568277,0.451419 0.954769,5.519154 0.966133,5.510125 3.051121,10.86523 c 1.673666,5.98077 3.44544,12.31842 3.947368,14.09376 0.483943,1.77604 1.290561,4.68172 1.781123,6.4661 2.029285,7.31523 2.613065,9.63701 2.800931,11.22702 0.321366,2.59817 0.682872,4.75681 0.982967,5.74134 0.364252,1.20531 1.130758,2.40362 1.726796,2.6639 z m -0.391705,-3.3168 c -0.29635,-0.93314 -0.614707,-2.66409 -0.791208,-4.26312 -0.216777,-2.06979 -0.459899,-3.26263 -1.139056,-5.82116 -1.275316,-4.80255 -3.735746,-13.664 -7.670886,-27.67237 -1.603892,-5.68291 -2.932294,-10.388926 -2.944521,-10.474327 -0.02071,-0.119426 0.08819,-0.192348 0.503828,-0.345864 3.241766,-1.216328 4.169714,-1.681689 7.050527,-3.562441 0.900614,-0.593116 1.664841,-1.077892 1.69419,-1.087618 0.03597,-0.0014 2.090129,8.06858 4.562918,17.92572 6.377266,25.34376 6.324467,25.11394 7.533197,28.17579 1.154922,2.90076 1.337327,4.25053 0.717538,5.1505 -0.863361,1.27009 -2.242343,2.31113 -4.307416,3.25855 -1.232803,0.57165 -3.146097,1.12674 -3.513243,1.03793 -0.736165,-0.20332 -1.242852,-0.88786 -1.695868,-2.32159 z M 57.787588,94.226976 57.174927,89.278514 58.352201,88.356927 c 0.654454,-0.506285 1.494503,-1.105637 1.881794,-1.31817 0.686538,-0.395888 3.563744,-1.41774 4.306817,-1.532429 l 0.362544,-0.057 0.965171,2.358515 c 0.522217,1.310828 1.261669,3.128488 1.647937,4.058146 0.374905,0.938686 0.719597,1.792668 0.764914,1.919725 0.07179,0.16038 0.0073,0.265931 -0.251198,0.430532 -2.770035,1.833519 -4.843891,3.07326 -5.874991,3.525447 -0.931687,0.413981 -3.7266,1.492755 -3.75969,1.4511 -0.0066,-0.0083 -0.2772,-2.239202 -0.607913,-4.965822 z M 11.888319,32.66464 c -0.182989,-0.697088 -0.314905,-1.353218 -0.28167,-1.474733 0.125314,-0.425652 1.640225,-0.01208 4.280739,1.165088 1.64712,0.743366 10.977968,5.302247 16.593624,8.124505 1.191064,0.589297 3.006507,1.497887 4.048095,2.015693 3.624267,1.808851 9.407383,4.701902 14.186748,7.101445 1.6792,0.85376 4.462427,2.257256 6.177595,3.109622 1.721786,0.860696 5.29872,2.67997 7.958942,4.045296 2.878753,1.47708 5.152121,2.565429 5.617672,2.684777 1.273648,0.319881 2.54845,0.407851 5.189125,0.348394 1.361987,-0.03564 2.799648,-0.02268 3.200891,0.03905 1.170642,0.143534 3.196567,0.640346 4.60257,1.126845 1.417368,0.477472 4.747722,1.799638 4.833753,1.907941 0.02648,0.03332 -0.241702,0.395814 -0.591304,0.795812 -0.793005,0.915273 -1.320001,1.768705 -1.977204,3.228317 l -0.524411,1.136722 -0.328302,-0.133259 c -0.279099,-0.117991 -0.338659,-0.192971 -0.318511,-0.49432 0.05382,-0.912372 -1.889944,-2.262545 -3.12044,-2.154715 -0.764797,0.06401 -1.377385,0.319625 -1.935308,0.830752 L 78.977097,66.55191 77.79696,66.443094 c -2.227776,-0.214178 -3.495245,-0.03622 -5.927468,0.822391 -1.499675,0.539057 -3.944417,1.638603 -5.749239,2.610284 -1.145763,0.61121 -1.222444,0.631359 -1.51665,0.471015 -0.169329,-0.09649 -3.338402,-1.845698 -7.05618,-3.865613 C 41.569558,57.731659 31.038019,51.707918 28.468152,49.849595 25.555887,47.74692 20.617433,43.326873 16.892775,39.478067 15.170858,37.70709 15.005414,37.498815 13.578856,35.656272 12.244948,33.930363 12.244948,33.930363 11.888319,32.66464 Z m 45.283483,53.762912 c -0.461622,-3.45149 -0.507463,-7.219668 -0.143457,-8.908364 0.09309,-0.372877 0.388169,-1.191553 0.673609,-1.81234 0.278822,-0.62912 0.565416,-1.481817 0.632033,-1.888017 0.311064,-1.755344 0.04508,-3.840404 -0.712205,-5.820538 -0.216224,-0.575573 -0.331312,-1.00049 -0.244273,-0.960927 0.08703,0.03956 1.751997,0.945401 3.699794,2.020612 1.941179,1.06688 3.610885,1.955358 3.70742,1.960203 0.103153,0.01318 0.37204,-0.09171 0.619205,-0.247288 l 0.444118,-0.257677 -0.04964,0.474242 c -0.09741,0.974177 -0.615789,2.77191 -1.014884,3.482981 -0.63044,1.166596 -0.624407,1.827607 0.04457,2.016357 0.208175,0.05204 0.243999,0.213813 0.175218,0.920666 -0.08216,0.853359 -0.08691,0.870718 -0.505419,1.067286 -1.056708,0.513293 -1.860217,1.532024 -1.968995,2.515227 -0.145897,1.216509 0.814963,3.102872 1.567385,3.116635 0.204435,6.6e-4 0.340676,0.05549 0.326433,0.107569 -0.01899,0.06944 -0.981035,0.561883 -2.161757,1.105748 -2.173985,1.020347 -3.311261,1.665577 -4.300067,2.45104 -0.38643,0.306963 -0.560651,0.39101 -0.574752,0.279915 -0.01697,-0.06805 -0.118535,-0.802638 -0.214339,-1.623333 z m 6.416084,-4.267786 c -0.152925,-0.449213 -0.265996,-1.01161 -0.242111,-1.261576 0.04964,-0.474243 0.371048,-1.096426 0.712016,-1.367275 0.193211,-0.153484 4.708074,-2.544149 4.797991,-2.547636 0.05395,-0.0021 1.538606,3.547131 1.526232,3.624899 -0.0058,0.0861 -5.445391,2.57274 -5.864765,2.674877 -0.419373,0.102138 -0.569711,-0.06379 -0.929364,-1.123287 z M 48.713144,45.371909 C 48.073968,43.610473 46.963646,40.579166 46.25743,38.639991 41.297809,25.092147 39.999035,21.123512 38.616698,15.346135 37.846336,12.112719 37.475917,9.3361132 37.794155,9.0833201 c 0.261408,-0.2076512 2.448876,1.6826759 5.002907,4.3144969 4.277817,4.428489 8.602092,9.825573 10.16876,12.684609 1.817998,3.338782 5.706594,12.247913 10.363259,23.780831 1.487388,3.669343 2.723594,6.695767 2.736829,6.71243 0.132319,0.166652 -0.795723,-0.278299 -5.882528,-2.854847 -4.810584,-2.415508 -10.225691,-5.125315 -10.281511,-5.148913 -0.01798,6.96e-4 -0.549552,-1.438582 -1.188727,-3.200018 z m 28.172944,24.661774 c 0.205591,-0.231247 0.975864,-1.128465 1.71866,-1.990264 1.551915,-1.80346 1.876769,-2.047922 2.725726,-2.029315 0.68049,0.01655 1.875296,0.657229 2.22028,1.184871 l 0.237232,0.368655 -1.981369,2.592996 c -1.081178,1.415939 -2.023953,2.586059 -2.077903,2.588151 -0.125882,0.0049 -2.792285,-1.858286 -3.040019,-2.123483 -0.130482,-0.140933 -0.07927,-0.263142 0.197393,-0.591611 z m 9.605595,-3.14626 c 0.731153,-1.599882 1.808591,-3.067202 3.523218,-4.782507 l 0.41492,-0.411116 3.544576,0.961768 c 1.949243,0.51696 4.101914,1.103322 4.788875,1.291374 l 1.250918,0.337936 -1.003213,2.074161 c -1.216572,2.52899 -1.828882,3.531719 -3.149746,5.205993 -1.70744,2.144406 -1.559687,2.027038 -2.237006,1.641097 -0.314059,-0.185337 -2.207907,-1.262639 -4.220011,-2.395469 l -3.6316,-2.074781 0.167036,-0.513145 c 0.105314,-0.287475 0.35004,-0.889509 0.552035,-1.335309 z m 9.115602,6.06147 c 1.762253,-2.052069 2.610509,-3.364513 4.004329,-6.183766 0.942496,-1.91723 0.986086,-1.979034 1.222606,-1.867978 0.13624,0.05483 1.76638,0.730153 3.61981,1.499869 1.85342,0.769716 4.58674,1.900341 6.07402,2.512502 8.50362,3.517511 9.94171,4.114406 15.98926,6.593585 1.17697,0.478208 3.25367,1.34232 4.6227,1.898952 9.63614,3.963087 11.31174,4.602297 14.33395,5.489849 3.0222,0.887567 3.88409,1.249173 4.38517,1.856644 0.29596,0.349181 0.37805,0.56932 0.35117,1.025479 -0.081,1.694895 -1.46505,4.153091 -3.49705,6.215624 -0.6205,0.642385 -0.78627,0.760414 -1.16779,0.886855 -1.4627,0.468921 -3.55279,-0.248674 -7.70749,-2.655263 -1.86449,-1.087035 -3.88351,-1.901848 -22.42395,-9.023405 -2.8261,-1.084091 -16.831745,-6.440691 -18.833785,-7.18747 -0.699189,-0.273454 -1.293356,-0.508043 -1.319826,-0.541367 -0.03784,-0.0243 0.125168,-0.262481 0.34687,-0.520118 z"
     id="path1"
     style="fill:#000000;stroke:none;stroke-width:0.0124271"
     sodipodi:nodetypes="ccscccscccsccccccccccccccccscccsccccccccccccccsccscsccccccsccccsccccccccscccccccccccccccccccccccccccccccccccccccsscccccccccccccscccccccccccccccccsccccscccccccccccscscssscsscssssccsccccccsccccccsccscccccccccccsssccscccsccccccccss" />
  <path
     d="m 58.808727,64.731919 0.782913,0.845576 1.254233,-0.194624 1.254233,-0.194623 1.010679,-0.897948 1.017284,-0.88963 0.382413,-1.105453 0.38716,-1.122813 -0.727952,-0.916409 -0.727952,-0.916409 -0.970093,-0.03108 -0.970094,-0.03108 -1.375237,1.092425 -1.375238,1.092426 -0.459094,1.125602 c -0.249474,0.619392 -0.41464,1.158228 -0.35695,1.207517 0.05107,0.04095 0.442528,0.463746 0.873691,0.936519 z m 0.01902,-2.216338 0.347162,-0.846459 1.15929,-0.920888 1.15929,-0.920889 0.766667,-0.03832 0.766666,-0.03832 0.641924,0.808105 0.641923,0.808105 -0.328316,0.940191 c -0.318822,0.905473 -0.346301,0.94089 -1.176998,1.668696 l -0.853446,0.745841 -1.069651,0.170291 -1.051668,0.169594 -0.675011,-0.849762 -0.668394,-0.841429 z"
     id="path2"
     style="fill:#000000;stroke:none;stroke-width:0.0124271" />
  <path
     style="fill:#145d0f;fill-opacity:1;fill-rule:nonzero;stroke:none;stroke-width:0.259216"
     d="m 144.75062,92.850342 c -1.26107,-0.06326 -2.49218,-0.543169 -6.07229,-2.367033 -3.45209,-1.758639 -11.72847,-5.073074 -33.15727,-13.278423 l -10.058813,-3.851643 1.228438,-1.550211 c 0.675638,-0.85261 1.848335,-2.711166 2.605992,-4.130119 0.757653,-1.41895 1.429483,-2.580014 1.492953,-2.580142 0.0635,-1.36e-4 1.32569,0.507299 2.80494,1.127619 16.04985,6.730437 38.0243,15.605404 41.05636,16.581681 2.09293,0.673902 4.1374,1.445464 4.54328,1.714615 1.35938,0.901399 0.89203,2.924178 -1.37203,5.938368 -1.26508,1.684234 -2.23096,2.437455 -3.07156,2.395288 z"
     id="path53" />
  <path
     style="fill:#000100;fill-opacity:1;fill-rule:nonzero;stroke:none;stroke-width:0.259216"
     d="m 78.395943,148.4 c -1.364237,0.80749 -4.35218,1.90307 -4.945309,1.81329 -1.029487,-0.15585 -1.855498,-2.21493 -2.455078,-6.11999 -0.647526,-4.21732 -1.827711,-8.75322 -7.688291,-29.549 -2.194283,-7.78622 -4.008318,-14.27951 -4.031193,-14.42954 -0.02897,-0.190061 0.598444,-0.549663 2.068862,-1.185782 1.160746,-0.502148 3.168767,-1.57419 4.462275,-2.382319 1.884088,-1.177098 2.366731,-1.401802 2.426753,-1.129831 0.206723,0.936602 9.414326,37.114472 10.105132,39.704332 0.440761,1.65242 1.261812,4.27977 1.824534,5.83853 1.285916,3.56194 1.334793,4.36326 0.343494,5.63108 -0.826964,1.05769 -0.794554,1.02992 -2.111186,1.80922 z"
     id="path54" />
  <path
     style="fill:#000100;fill-opacity:1;fill-rule:nonzero;stroke:none;stroke-width:0.259216"
     d="M 57.662407,52.261104 50.022666,48.436753 48.217053,43.505324 C 41.399477,24.885384 38.980255,17.303152 38.122854,11.868452 37.819844,9.9477869 37.832637,9.3888666 38.176925,9.50606 c 1.300675,0.4427288 4.870782,4.254777 9.818386,10.483764 l 5.258398,6.620277 1.768169,3.994106 c 2.969524,6.707812 10.588947,25.23605 10.429868,25.362415 -0.08227,0.06537 -3.587482,-1.602125 -7.789339,-3.705518 z"
     id="path56" />
  <path
     style="fill:#000100;fill-opacity:1;fill-rule:nonzero;stroke:none;stroke-width:0.259216"
     d="m 61.623385,85.494027 c -1.043013,0.500118 -2.283474,1.210959 -2.756587,1.579653 -0.473101,0.368701 -0.983634,0.660659 -1.134499,0.648815 -0.356652,-0.028 -0.812792,-5.196244 -0.694733,-7.871671 0.05162,-1.16964 0.419704,-3.000222 0.840088,-4.177951 0.870865,-2.439756 0.93711,-4.037119 0.269123,-6.489289 l -0.481348,-1.767011 3.423765,1.867018 c 1.884405,1.027586 3.664359,1.807776 3.958875,1.735249 0.71474,-0.176003 0.656423,0.441296 -0.295685,3.130102 -0.611926,1.728106 -0.6569,2.130546 -0.261549,2.340486 0.7077,0.375795 0.4189,1.502361 -0.59073,2.304365 -0.447817,0.355725 -0.979222,0.887551 -1.180904,1.181828 -0.538512,0.785768 -0.334967,2.451576 0.427317,3.497162 0.366612,0.502884 0.600585,0.958787 0.519918,1.013133 -0.08067,0.05435 -1.000043,0.507997 -2.043051,1.008111 z"
     id="path57" />
  <path
     style="fill:#0caf00;fill-opacity:1;fill-rule:nonzero;stroke:none;stroke-width:0.259216"
     d="m 76.70854,149.00753 c -2.716418,1.1663 -3.179701,1.19815 -3.917571,0.26925 -0.699744,-0.88089 -0.993108,-1.91467 -1.937682,-6.82815 -0.842662,-4.3833 -1.818788,-8.09338 -7.126482,-27.08648 -2.350277,-8.41025 -4.25524,-15.33674 -4.233254,-15.392194 0.02197,-0.05544 0.689897,-0.389289 1.484244,-0.741845 0.794352,-0.35256 2.644846,-1.324959 4.112208,-2.160891 1.467364,-0.83593 2.739711,-1.530663 2.827434,-1.54385 0.08772,-0.01319 2.294518,8.37939 4.903987,18.65019 4.749226,18.69283 5.923226,23.07932 7.410658,27.68887 0.946672,2.93372 0.974052,3.46174 0.234294,4.51943 -0.814023,1.16385 -1.548731,1.67721 -3.757836,2.62567 z"
     id="path59" />
  <g
     id="g1"
     transform="rotate(-41.034509,69.999993,70.000026)">
    <path
       style="fill:#000100;fill-opacity:1;fill-rule:nonzero;stroke:none;stroke-width:0.259217"
       d="m 82.952239,77.155373 c 0.295569,-1.306848 -0.48123,-3.160963 -1.523454,-3.636386 -0.407134,-0.185715 -1.092014,-0.353461 -1.522011,-0.37278 -0.570648,-0.02564 -1.081149,-0.329748 -1.890384,-1.126101 -2.003534,-1.971584 -4.052593,-2.930602 -9.385995,-4.392831 L 65.953113,66.89325 63.414038,59.99746 C 56.932873,42.39547 52.710474,30.21137 51.970912,26.976872 51.478305,24.822658 50.626914,18.415892 50.305576,14.444697 49.860294,8.9435705 50.439119,3.3456418 51.517726,2.7211085 c 0.146278,-0.084708 0.580584,0.3776374 0.965139,1.0274372 1.243663,2.1013309 8.14823,18.5178503 19.46072,46.2704003 2.530258,6.207396 4.897028,11.782016 5.259459,12.388026 0.362431,0.60601 1.786053,2.082426 3.163601,3.280926 1.377502,1.198492 3.13065,3.004313 3.895979,4.012931 1.214015,1.600067 3.976075,6.33209 3.956057,6.777657 -0.0039,0.08765 -0.526898,0.234053 -1.162129,0.325349 -0.635292,0.0913 -1.791693,0.444762 -2.569862,0.785471 -0.778177,0.340713 -1.494504,0.615898 -1.591931,0.611521 -0.09742,-0.0044 -0.07153,-0.474832 0.05749,-1.045454 z M 71.054183,60.679699 c 1.049094,-0.51088 1.14097,-0.649155 1.192427,-1.794478 0.04285,-0.953802 -0.114903,-1.406803 -0.681717,-1.957737 -0.695208,-0.675664 -0.846331,-0.721816 -2.633513,-0.80441 -1.713092,-0.07926 -2.008189,-0.02768 -3.058843,0.533805 -1.120141,0.598638 -1.159745,0.668992 -1.07799,1.918321 0.07484,1.144284 0.213691,1.381403 1.179816,2.015177 0.98351,0.64522 1.2398,0.714456 2.519006,0.680574 0.957728,-0.02537 1.796384,-0.218992 2.560814,-0.591252 z"
       id="path55"
       sodipodi:nodetypes="ssscscsccscsscccsscssssccsccss" />
    <path
       style="fill:#0caf00;fill-opacity:1;fill-rule:nonzero;stroke:none;stroke-width:0.259217"
       d="m 111.42367,136.08772 c -0.67081,-0.6446 -1.44464,-2.15355 -3.05866,-5.96428 -0.94083,-2.22127 -19.528459,-38.236013 -20.969592,-40.629846 -0.07715,-0.128155 0.438714,-0.315767 1.148806,-0.417825 0.708894,-0.101878 2.752528,-0.68171 4.541446,-1.288522 2.092952,-0.709907 3.304016,-1.014425 3.396725,-0.854063 0.07918,0.137073 2.628613,5.232023 5.665295,11.32211 6.14444,12.322676 11.69503,23.161356 15.53274,30.330856 2.86743,5.35687 2.89501,5.60029 0.75909,6.69503 -2.64052,1.35336 -6.04006,1.74418 -7.01585,0.80654 z"
       id="path58"
       sodipodi:nodetypes="ssssccssss" />
    <path
       style="fill:#0caf00;fill-opacity:1;fill-rule:nonzero;stroke:none;stroke-width:0.259217"
       d="m 85.820861,87.730204 c -0.113868,-0.35692 -0.813713,-2.358975 -1.555253,-4.449008 l -1.348117,-3.800054 1.74775,-0.83438 c 1.612218,-0.76967 4.154183,-1.360641 5.577572,-1.29669 0.419157,0.01883 1.280155,1.08649 3.225161,3.999149 2.234149,3.345664 2.577047,4.009932 2.170489,4.204325 -2.781856,1.330036 -7.921466,2.9015 -9.288805,2.840067 -0.17693,-0.0079 -0.414937,-0.306484 -0.528797,-0.663409 z"
       id="path60"
       sodipodi:nodetypes="sccsssccs" />
  </g>
  <path
     style="fill:#0cad00;fill-opacity:1;fill-rule:nonzero;stroke:none;stroke-width:0.259216"
     d="m 65.446556,95.754714 c -1.110136,0.692162 -3.103948,1.723293 -4.430691,2.291406 -2.175329,0.93147 -2.420779,0.983832 -2.499042,0.533114 -0.04773,-0.274895 -0.322774,-2.459257 -0.611203,-4.854142 l -0.524414,-4.35433 1.112948,-0.963346 c 0.849746,-0.735462 1.607108,-1.164816 3.202218,-1.815222 1.149087,-0.468539 2.312511,-0.866451 2.585382,-0.884247 0.389264,-0.02538 0.787561,0.664173 1.849118,3.201327 1.802679,4.308451 2.040736,5.077122 1.65791,5.353326 -0.178097,0.128491 -1.232106,0.799941 -2.342239,1.492099 z"
     id="path61" />
  <path
     style="fill:#050505;fill-opacity:1;fill-rule:nonzero;stroke:none;stroke-width:0.259216"
     d="m 68.2672,81.495485 c -0.960702,0.452643 -2.249438,1.024248 -2.86386,1.270241 -1.065013,0.426394 -1.134246,0.410676 -1.483837,-0.336918 -0.457811,-0.979033 -0.470566,-1.948978 -0.03271,-2.487979 0.321762,-0.396096 4.081747,-2.493144 4.678222,-2.609174 0.248339,-0.04831 1.621252,2.915081 1.495018,3.226948 -0.02536,0.06265 -0.832131,0.484245 -1.792829,0.936882 z"
     id="path62" />
  <path
     style="fill:#050505;fill-opacity:1;fill-rule:nonzero;stroke:none;stroke-width:0.259217"
     d="m 78.480817,71.74575 c -1.822975,-1.301365 -1.816739,-1.219781 -0.234941,-3.069034 1.980516,-2.31537 2.50498,-2.687287 3.412472,-2.419888 1.144564,0.33729 1.982755,1.059899 1.744647,1.504082 -0.270193,0.504019 -3.247028,4.39747 -3.540336,4.630459 -0.124301,0.09877 -0.746146,-0.191774 -1.381842,-0.645619 z"
     id="path63" />
</svg>
