<?xml version="1.0" encoding="UTF-8"?>
<!-- Created with Inkscape (http://www.inkscape.org/) -->
<svg width="140mm" height="140mm" version="1.1" viewBox="0 0 140 140" xmlns="http://www.w3.org/2000/svg">
 <g transform="rotate(39.886 68.877 68.444)">
  <path d="m71.959 151.41c0.90161 0.41159 1.6664 0.34758 3.6423-0.33875 1.8765-0.64813 3.0677-1.2954 4.5907-2.5052 1.6139-1.282 2.2071-2.0522 2.4636-3.1527 0.31163-1.3346 0.08448-2.3906-1.178-5.6136-1.0217-2.6397-1.0689-2.7925-8.3365-31.614-1.9919-7.8749-3.7547-14.668-3.9351-15.082-0.1804-0.4138-1.0719-2.5862-1.9804-4.8267-0.89712-2.2495-1.6895-4.1338-1.7491-4.2088-0.05296-0.06663-0.18069-0.08746-0.28011-0.04925-0.08143 0.03751-0.14387 0.0056-0.13149-0.07219 0.01237-0.07777 1.4403-0.77721 3.1683-1.5656 1.7166-0.77933 3.1398-1.4614 3.1654-1.5225 0.01237-0.07777-1.0254-2.6911-1.8774-4.6504l-0.13034-0.3041-1.7935 0.96265c-0.98952 0.52786-1.8749 1.0002-1.9629 1.0293-0.10416 0.05556-0.13321-0.26105-0.07019-0.8818 0.07453-0.79295 0.05008-0.96375-0.14486-0.99913-0.69085-0.07626-0.72854-0.26373-0.20802-1.2887 0.51866-1.0506 0.81575-2.0068 1.0214-3.3115 0.11611-0.71727 0.26042-1.2124 0.38731-1.286 0.61647-0.36741 2.709-1.3502 3.9456-1.8705 1.7043-0.70157 3.0562-1.1233 4.2678-1.3248 0.85572-0.13623 3.4243-0.02973 3.5633 0.14522 0.03968 0.05001-0.61979 0.89997-1.4611 1.8944-0.84796 0.9861-1.5027 1.8187-1.4762 1.852 0.42182 0.34432 4.2128 3.0398 4.2847 3.037 0.07193-0.0028 0.72193-0.81805 3.0975-3.9416l1.2622-1.6548 0.4211 0.08672c0.22616 0.05134 0.44095 0.11172 0.4608 0.13671 0.02648 0.03331-0.08546 0.31247-0.24286 0.62772l-0.26458 0.57704 1.385 0.69342c0.76724 0.38246 2.9819 1.4903 4.9042 2.4634 3.0264 1.5229 4.3727 2.0976 9.8016 4.1714 14.734 5.6203 23.411 8.9594 28.819 11.077 5.2784 2.071 5.8054 2.291 7.7172 3.3677 4.6703 2.6356 6.6006 3.222 8.495 2.5732 0.73371-0.24314 0.8947-0.34385 1.5483-0.94456 2.0858-1.9014 4.0089-4.9645 4.3201-6.883 0.38833-2.4282-0.30583-3.0453-4.9583-4.445-3.6259-1.0874-4.4301-1.3998-15.739-6.0451-1.4002-0.5726-3.3767-1.3805-4.3994-1.8046-1.0341-0.41504-5.2859-2.1738-9.4573-3.9013-17.144-7.0898-14.927-6.2507-21.204-7.9543-3.0808-0.83609-5.6594-1.5238-5.738-1.5294-0.06057-0.0062-0.41017 0.39376-0.76078 0.8625-0.35536 0.4861-0.67561 0.87637-0.71158 0.87776-0.03597 0.0014-0.72379-0.28108-1.5233-0.61076-2.9254-1.2091-6.046-2.1272-8.0646-2.358-0.44858-0.05131-1.9828-0.0691-3.3987-0.03138-3.7215 0.07561-4.911-0.16166-7.4549-1.4972l-1.157-0.61638-0.54394-1.3615c-5.0455-12.746-10.215-24.877-12.476-29.264-2.0229-3.9234-7.7569-10.932-12.912-15.764-2.1296-2.0042-2.9848-2.5207-3.5076-2.1054-0.86379 0.68615 0.19874 6.3643 2.7439 14.656 0.6304 2.0538 8.6232 24.321 8.8755 24.732 0.06616 0.08333-1.3103-0.57609-4.1248-1.9955-1.3538-0.67745-3.3187-1.6575-4.3603-2.1753-1.84-0.91622-3.7671-1.872-8.2967-4.1438-4.5296-2.2718-14.621-7.2048-16.05-7.8364-2.8969-1.3132-4.3504-1.6261-4.9244-1.0886-0.32586 0.3132-0.3158 0.69925 0.08787 2.2809l0.28671 1.131 1.8312 2.282c1.8861 2.3743 2.8505 3.4018 6.0497 6.4723 4.0058 3.8293 7.5883 6.7991 10.235 8.4741 3.0497 1.9256 13.296 7.7543 23.341 13.282 1.7406 0.95443 2.9363 1.6895 3.115 1.9145 0.44339 0.55818 1.1262 2.2578 1.391 3.5013 0.48264 2.1711 0.27948 3.9223-0.68877 6.0638-0.90092 1.9929-0.98873 5.9895-0.25408 11.045l0.17406 1.1526-1.1479 0.91186 0.95477 5.5192 0.96613 5.5101 3.0511 10.865c1.6737 5.9808 3.4454 12.318 3.9474 14.094 0.48394 1.776 1.2906 4.6817 1.7811 6.4661 2.0293 7.3152 2.6131 9.637 2.8009 11.227 0.32137 2.5982 0.68287 4.7568 0.98297 5.7413 0.36425 1.2053 1.1308 2.4036 1.7268 2.6639zm-0.3917-3.3168c-0.29635-0.93314-0.61471-2.6641-0.79121-4.2631-0.21678-2.0698-0.4599-3.2626-1.1391-5.8212-1.2753-4.8026-3.7357-13.664-7.6709-27.672-1.6039-5.6829-2.9323-10.389-2.9445-10.474-0.02071-0.11943 0.08819-0.19235 0.50383-0.34586 3.2418-1.2163 4.1697-1.6817 7.0505-3.5624 0.90061-0.59312 1.6648-1.0779 1.6942-1.0876 0.03597-0.0014 2.0901 8.0686 4.5629 17.926 6.3773 25.344 6.3245 25.114 7.5332 28.176 1.1549 2.9008 1.3373 4.2505 0.71754 5.1505-0.86336 1.2701-2.2423 2.3111-4.3074 3.2586-1.2328 0.57165-3.1461 1.1267-3.5132 1.0379-0.73616-0.20332-1.2429-0.88786-1.6959-2.3216zm-13.78-53.868-0.61266-4.9485 1.1773-0.92159c0.65445-0.50628 1.4945-1.1056 1.8818-1.3182 0.68654-0.39589 3.5637-1.4177 4.3068-1.5324l0.36254-0.057 0.96517 2.3585c0.52222 1.3108 1.2617 3.1285 1.6479 4.0581 0.3749 0.93869 0.7196 1.7927 0.76491 1.9197 0.07179 0.16038 0.0073 0.26593-0.2512 0.43053-2.77 1.8335-4.8439 3.0733-5.875 3.5254-0.93169 0.41398-3.7266 1.4928-3.7597 1.4511-0.0066-0.0083-0.2772-2.2392-0.60791-4.9658zm-45.899-61.562c-0.18299-0.69709-0.3149-1.3532-0.28167-1.4747 0.12531-0.42565 1.6402-0.01208 4.2807 1.1651 1.6471 0.74337 10.978 5.3022 16.594 8.1245 1.1911 0.5893 3.0065 1.4979 4.0481 2.0157 3.6243 1.8089 9.4074 4.7019 14.187 7.1014 1.6792 0.85376 4.4624 2.2573 6.1776 3.1096 1.7218 0.8607 5.2987 2.68 7.9589 4.0453 2.8788 1.4771 5.1521 2.5654 5.6177 2.6848 1.2736 0.31988 2.5484 0.40785 5.1891 0.34839 1.362-0.03564 2.7996-0.02268 3.2009 0.03905 1.1706 0.14353 3.1966 0.64035 4.6026 1.1268 1.4174 0.47747 4.7477 1.7996 4.8338 1.9079 0.02648 0.03332-0.2417 0.39581-0.5913 0.79581-0.793 0.91527-1.32 1.7687-1.9772 3.2283l-0.52441 1.1367-0.3283-0.13326c-0.2791-0.11799-0.33866-0.19297-0.31851-0.49432 0.05382-0.91237-1.8899-2.2625-3.1204-2.1547-0.7648 0.06401-1.3774 0.31962-1.9353 0.83075l-0.52383 0.48404-1.1801-0.10882c-2.2278-0.21418-3.4952-0.03622-5.9275 0.82239-1.4997 0.53906-3.9444 1.6386-5.7492 2.6103-1.1458 0.61121-1.2224 0.63136-1.5166 0.47102-0.16933-0.09649-3.3384-1.8457-7.0562-3.8656-15.978-8.7495-26.509-14.773-29.079-16.632-2.9123-2.1027-7.8507-6.5227-11.575-10.372-1.7219-1.771-1.8874-1.9793-3.3139-3.8218-1.3339-1.7259-1.3339-1.7259-1.6905-2.9916zm45.283 53.763c-0.46162-3.4515-0.50746-7.2197-0.14346-8.9084 0.09309-0.37288 0.38817-1.1916 0.67361-1.8123 0.27882-0.62912 0.56542-1.4818 0.63203-1.888 0.31106-1.7553 0.04508-3.8404-0.7122-5.8205-0.21622-0.57557-0.33131-1.0005-0.24427-0.96093 0.08703 0.03956 1.752 0.9454 3.6998 2.0206 1.9412 1.0669 3.6109 1.9554 3.7074 1.9602 0.10315 0.01318 0.37204-0.09171 0.6192-0.24729l0.44412-0.25768-0.04964 0.47424c-0.09741 0.97418-0.61579 2.7719-1.0149 3.483-0.63044 1.1666-0.62441 1.8276 0.04457 2.0164 0.20818 0.05204 0.244 0.21381 0.17522 0.92067-0.08216 0.85336-0.08691 0.87072-0.50542 1.0673-1.0567 0.51329-1.8602 1.532-1.969 2.5152-0.1459 1.2165 0.81496 3.1029 1.5674 3.1166 0.20444 6.6e-4 0.34068 0.05549 0.32643 0.10757-0.01899 0.06944-0.98104 0.56188-2.1618 1.1057-2.174 1.0203-3.3113 1.6656-4.3001 2.451-0.38643 0.30696-0.56065 0.39101-0.57475 0.27992-0.01697-0.06805-0.11854-0.80264-0.21434-1.6233zm6.4161-4.2678c-0.15292-0.44921-0.266-1.0116-0.24211-1.2616 0.04964-0.47424 0.37105-1.0964 0.71202-1.3673 0.19321-0.15348 4.7081-2.5441 4.798-2.5476 0.05395-0.0021 1.5386 3.5471 1.5262 3.6249-0.0058 0.0861-5.4454 2.5727-5.8648 2.6749-0.41937 0.10214-0.56971-0.06379-0.92936-1.1233zm-14.875-36.788c-0.63918-1.7614-1.7495-4.7927-2.4557-6.7319-4.9596-13.548-6.2584-17.516-7.6407-23.294-0.77036-3.2334-1.1408-6.01-0.82254-6.2628 0.26141-0.20765 2.4489 1.6827 5.0029 4.3145 4.2778 4.4285 8.6021 9.8256 10.169 12.685 1.818 3.3388 5.7066 12.248 10.363 23.781 1.4874 3.6693 2.7236 6.6958 2.7368 6.7124 0.13232 0.16665-0.79572-0.2783-5.8825-2.8548-4.8106-2.4155-10.226-5.1253-10.282-5.1489-0.01798 6.96e-4 -0.54955-1.4386-1.1887-3.2zm28.173 24.662c0.20559-0.23125 0.97586-1.1285 1.7187-1.9903 1.5519-1.8035 1.8768-2.0479 2.7257-2.0293 0.68049 0.01655 1.8753 0.65723 2.2203 1.1849l0.23723 0.36866-1.9814 2.593c-1.0812 1.4159-2.024 2.5861-2.0779 2.5882-0.12588 0.0049-2.7923-1.8583-3.04-2.1235-0.13048-0.14093-0.07927-0.26314 0.19739-0.59161zm9.6056-3.1463c0.73115-1.5999 1.8086-3.0672 3.5232-4.7825l0.41492-0.41112 3.5446 0.96177c1.9492 0.51696 4.1019 1.1033 4.7889 1.2914l1.2509 0.33794-1.0032 2.0742c-1.2166 2.529-1.8289 3.5317-3.1497 5.206-1.7074 2.1444-1.5597 2.027-2.237 1.6411-0.31406-0.18534-2.2079-1.2626-4.22-2.3955l-3.6316-2.0748 0.16704-0.51314c0.10531-0.28748 0.35004-0.88951 0.55204-1.3353zm9.1156 6.0615c1.7623-2.0521 2.6105-3.3645 4.0043-6.1838 0.9425-1.9172 0.98609-1.979 1.2226-1.868 0.13624 0.05483 1.7664 0.73015 3.6198 1.4999 1.8534 0.76972 4.5867 1.9003 6.074 2.5125 8.5036 3.5175 9.9417 4.1144 15.989 6.5936 1.177 0.47821 3.2537 1.3423 4.6227 1.899 9.6361 3.9631 11.312 4.6023 14.334 5.4898 3.0222 0.88757 3.8841 1.2492 4.3852 1.8566 0.29596 0.34918 0.37805 0.56932 0.35117 1.0255-0.081 1.6949-1.465 4.1531-3.497 6.2156-0.6205 0.64238-0.78627 0.76041-1.1678 0.88686-1.4627 0.46892-3.5528-0.24867-7.7075-2.6553-1.8645-1.087-3.8835-1.9018-22.424-9.0234-2.8261-1.0841-16.832-6.4407-18.834-7.1875-0.69919-0.27345-1.2934-0.50804-1.3198-0.54137-0.03784-0.0243 0.12517-0.26248 0.34687-0.52012z"/>
  <path d="m58.809 64.732 0.78291 0.84558 2.5085-0.38925 1.0107-0.89795 1.0173-0.88963 0.38241-1.1055 0.38716-1.1228-1.4559-1.8328-1.9402-0.06216-2.7505 2.1849-0.45909 1.1256c-0.24947 0.61939-0.41464 1.1582-0.35695 1.2075 0.05107 0.04095 0.44253 0.46375 0.87369 0.93652zm0.01902-2.2163 0.34716-0.84646 2.3186-1.8418 1.5333-0.07664 1.2838 1.6162-0.32832 0.94019c-0.31882 0.90547-0.3463 0.94089-1.177 1.6687l-0.85345 0.74584-1.0697 0.17029-1.0517 0.16959-1.3434-1.6912z"/>
  <path d="m144.75 92.85c-1.2611-0.06326-2.4922-0.54317-6.0723-2.367-3.4521-1.7586-11.728-5.0731-33.157-13.278l-10.059-3.8516 1.2284-1.5502c0.67564-0.85261 1.8483-2.7112 2.606-4.1301 0.75765-1.419 1.4295-2.58 1.493-2.5801 0.0635-1.36e-4 1.3257 0.5073 2.8049 1.1276 16.05 6.7304 38.024 15.605 41.056 16.582 2.0929 0.6739 4.1374 1.4455 4.5433 1.7146 1.3594 0.9014 0.89203 2.9242-1.372 5.9384-1.2651 1.6842-2.231 2.4375-3.0716 2.3953z" fill="#145d0f"/>
  <g fill="#000100">
   <path d="m78.396 148.4c-1.3642 0.80749-4.3522 1.9031-4.9453 1.8133-1.0295-0.15585-1.8555-2.2149-2.4551-6.12-0.64753-4.2173-1.8277-8.7532-7.6883-29.549-2.1943-7.7862-4.0083-14.28-4.0312-14.43-0.02897-0.19006 0.59844-0.54966 2.0689-1.1858 1.1607-0.50215 3.1688-1.5742 4.4623-2.3823 1.8841-1.1771 2.3667-1.4018 2.4268-1.1298 0.20672 0.9366 9.4143 37.114 10.105 39.704 0.44076 1.6524 1.2618 4.2798 1.8245 5.8385 1.2859 3.5619 1.3348 4.3633 0.34349 5.6311-0.82696 1.0577-0.79455 1.0299-2.1112 1.8092z"/>
   <path d="m57.662 52.261-7.6397-3.8244-1.8056-4.9314c-6.8176-18.62-9.2368-26.202-10.094-31.637-0.30301-1.9207-0.29022-2.4796 0.054071-2.3624 1.3007 0.44273 4.8708 4.2548 9.8184 10.484l5.2584 6.6203 1.7682 3.9941c2.9695 6.7078 10.589 25.236 10.43 25.362-0.08227 0.06537-3.5875-1.6021-7.7893-3.7055z"/>
   <path d="m61.623 85.494c-1.043 0.50012-2.2835 1.211-2.7566 1.5797-0.4731 0.3687-0.98363 0.66066-1.1345 0.64882-0.35665-0.028-0.81279-5.1962-0.69473-7.8717 0.05162-1.1696 0.4197-3.0002 0.84009-4.178 0.87086-2.4398 0.93711-4.0371 0.26912-6.4893l-0.48135-1.767 3.4238 1.867c1.8844 1.0276 3.6644 1.8078 3.9589 1.7352 0.71474-0.176 0.65642 0.4413-0.29568 3.1301-0.61193 1.7281-0.6569 2.1305-0.26155 2.3405 0.7077 0.3758 0.4189 1.5024-0.59073 2.3044-0.44782 0.35572-0.97922 0.88755-1.1809 1.1818-0.53851 0.78577-0.33497 2.4516 0.42732 3.4972 0.36661 0.50288 0.60058 0.95879 0.51992 1.0131-0.08067 0.05435-1 0.508-2.0431 1.0081z"/>
  </g>
  <path d="m76.709 149.01c-2.7164 1.1663-3.1797 1.1982-3.9176 0.26925-0.69974-0.88089-0.99311-1.9147-1.9377-6.8282-0.84266-4.3833-1.8188-8.0934-7.1265-27.086-2.3503-8.4102-4.2552-15.337-4.2333-15.392 0.02197-0.05544 0.6899-0.38929 1.4842-0.74184 0.79435-0.35256 2.6448-1.325 4.1122-2.1609 1.4674-0.83593 2.7397-1.5307 2.8274-1.5438 0.08772-0.01319 2.2945 8.3794 4.904 18.65 4.7492 18.693 5.9232 23.079 7.4107 27.689 0.94667 2.9337 0.97405 3.4617 0.23429 4.5194-0.81402 1.1638-1.5487 1.6772-3.7578 2.6257z" fill="#0caf00"/>
  <g transform="rotate(-41.035 70 70)">
   <path d="m82.952 77.155c0.29557-1.3068-0.48123-3.161-1.5235-3.6364-0.40713-0.18572-1.092-0.35346-1.522-0.37278-0.57065-0.02564-1.0811-0.32975-1.8904-1.1261-2.0035-1.9716-4.0526-2.9306-9.386-4.3928l-2.6773-0.73402-2.5391-6.8958c-6.4812-17.602-10.704-29.786-11.443-33.021-0.49261-2.1542-1.344-8.561-1.6653-12.532-0.44528-5.5011 0.13354-11.099 1.2122-11.724 0.14628-0.084708 0.58058 0.37764 0.96514 1.0274 1.2437 2.1013 8.1482 18.518 19.461 46.27 2.5303 6.2074 4.897 11.782 5.2595 12.388s1.7861 2.0824 3.1636 3.2809c1.3775 1.1985 3.1306 3.0043 3.896 4.0129 1.214 1.6001 3.9761 6.3321 3.9561 6.7777-0.0039 0.08765-0.5269 0.23405-1.1621 0.32535-0.63529 0.0913-1.7917 0.44476-2.5699 0.78547-0.77818 0.34071-1.4945 0.6159-1.5919 0.61152-0.09742-0.0044-0.07153-0.47483 0.05749-1.0455zm-11.898-16.476c1.0491-0.51088 1.141-0.64916 1.1924-1.7945 0.04285-0.9538-0.1149-1.4068-0.68172-1.9577-0.69521-0.67566-0.84633-0.72182-2.6335-0.80441-1.7131-0.07926-2.0082-0.02768-3.0588 0.5338-1.1201 0.59864-1.1597 0.66899-1.078 1.9183 0.07484 1.1443 0.21369 1.3814 1.1798 2.0152 0.98351 0.64522 1.2398 0.71446 2.519 0.68057 0.95773-0.02537 1.7964-0.21899 2.5608-0.59125z" fill="#000100"/>
   <path d="m111.42 136.09c-0.67081-0.6446-1.4446-2.1536-3.0587-5.9643-0.94083-2.2213-19.528-38.236-20.97-40.63-0.07715-0.12816 0.43871-0.31577 1.1488-0.41782 0.70889-0.10188 2.7525-0.68171 4.5414-1.2885 2.093-0.70991 3.304-1.0144 3.3967-0.85406 0.07918 0.13707 2.6286 5.232 5.6653 11.322 6.1444 12.323 11.695 23.161 15.533 30.331 2.8674 5.3569 2.895 5.6003 0.75909 6.695-2.6405 1.3534-6.0401 1.7442-7.0158 0.80654z" fill="#0caf00"/>
   <path d="m85.821 87.73c-0.11387-0.35692-0.81371-2.359-1.5553-4.449l-1.3481-3.8001 1.7478-0.83438c1.6122-0.76967 4.1542-1.3606 5.5776-1.2967 0.41916 0.01883 1.2802 1.0865 3.2252 3.9991 2.2341 3.3457 2.577 4.0099 2.1705 4.2043-2.7819 1.33-7.9215 2.9015-9.2888 2.8401-0.17693-0.0079-0.41494-0.30648-0.5288-0.66341z" fill="#0caf00"/>
  </g>
  <g>
   <path d="m65.447 95.755c-1.1101 0.69216-3.1039 1.7233-4.4307 2.2914-2.1753 0.93147-2.4208 0.98383-2.499 0.53311-0.04773-0.2749-0.32277-2.4593-0.6112-4.8541l-0.52441-4.3543 1.1129-0.96335c0.84975-0.73546 1.6071-1.1648 3.2022-1.8152 1.1491-0.46854 2.3125-0.86645 2.5854-0.88425 0.38926-0.02538 0.78756 0.66417 1.8491 3.2013 1.8027 4.3085 2.0407 5.0771 1.6579 5.3533-0.1781 0.12849-1.2321 0.79994-2.3422 1.4921z" fill="#0cad00"/>
   <path d="m68.267 81.495c-0.9607 0.45264-2.2494 1.0242-2.8639 1.2702-1.065 0.42639-1.1342 0.41068-1.4838-0.33692-0.45781-0.97903-0.47057-1.949-0.03271-2.488 0.32176-0.3961 4.0817-2.4931 4.6782-2.6092 0.24834-0.04831 1.6213 2.9151 1.495 3.2269-0.02536 0.06265-0.83213 0.48424-1.7928 0.93688z" fill="#050505"/>
   <path d="m78.481 71.746c-1.823-1.3014-1.8167-1.2198-0.23494-3.069 1.9805-2.3154 2.505-2.6873 3.4125-2.4199 1.1446 0.33729 1.9828 1.0599 1.7446 1.5041-0.27019 0.50402-3.247 4.3975-3.5403 4.6305-0.1243 0.09877-0.74615-0.19177-1.3818-0.64562z" fill="#050505"/>
  </g>
 </g>
</svg>
