<?xml version="1.0" encoding="UTF-8" standalone="no"?>
<!-- Created with Inkscape (http://www.inkscape.org/) -->

<svg
   width="140mm"
   height="140mm"
   viewBox="0 0 140 140"
   version="1.1"
   id="svg1"
   sodipodi:docname="Heckenschere.svg"
   inkscape:export-filename="../images/Heckenschere.png"
   inkscape:export-xdpi="96"
   inkscape:export-ydpi="96"
   inkscape:version="1.4 (e7c3feb1, 2024-10-09)"
   xmlns:inkscape="http://www.inkscape.org/namespaces/inkscape"
   xmlns:sodipodi="http://sodipodi.sourceforge.net/DTD/sodipodi-0.dtd"
   xmlns="http://www.w3.org/2000/svg"
   xmlns:svg="http://www.w3.org/2000/svg">
  <sodipodi:namedview
     id="namedview1"
     pagecolor="#ffffff"
     bordercolor="#000000"
     borderopacity="0.25"
     inkscape:showpageshadow="2"
     inkscape:pageopacity="0.0"
     inkscape:pagecheckerboard="0"
     inkscape:deskcolor="#d1d1d1"
     inkscape:document-units="mm"
     showgrid="true"
     inkscape:zoom="1.706147"
     inkscape:cx="282.21484"
     inkscape:cy="243.23813"
     inkscape:window-width="1920"
     inkscape:window-height="1027"
     inkscape:window-x="0"
     inkscape:window-y="25"
     inkscape:window-maximized="1"
     inkscape:current-layer="svg1">
    <inkscape:grid
       id="grid1"
       units="mm"
       originx="0"
       originy="0"
       spacingx="1"
       spacingy="1"
       empcolor="#0099e5"
       empopacity="0.30196078"
       color="#0099e5"
       opacity="0.14901961"
       empspacing="5"
       enabled="true"
       visible="true" />
  </sodipodi:namedview>
  <defs
     id="defs1" />
  <g
     id="layer1"
     transform="translate(-32.372981,-71.832321)">
    <g
       id="g72"
       transform="matrix(0.07666606,0.0034445,0.00198171,-0.04410806,-21.750757,286.07813)"
       style="fill:#000000;stroke:none">
      <path
         d="M 278,7166 C 195,7135 155,7091 90,6955 28,6826 6,6734 6,6600 c 0,-142 22,-207 88,-268 80,-74 171,-107 482,-177 254,-58 268,-62 2814,-905 696,-230 1299,-426 1340,-434 41,-8 253,-53 471,-100 218,-48 403,-86 412,-86 8,0 17,6 20,13 2,6 8,8 13,4 5,-4 -27,-111 -70,-238 -43,-126 -76,-232 -73,-236 5,-4 258,-60 452,-98 l 30,-6 34,138 c 19,76 36,144 39,150 2,8 27,-4 69,-34 54,-38 68,-44 82,-35 46,34 62,28 107,-44 47,-73 100,-130 184,-197 46,-37 74,-66 72,-76 -9,-49 -59,-204 -93,-293 -48,-122 -96,-213 -152,-287 -40,-52 -198,-186 -219,-186 -6,0 -30,72 -54,160 -23,88 -46,159 -50,159 -50,-8 -470,-97 -474,-101 -4,-4 18,-74 109,-336 l 48,-139 -31,-19 c -17,-10 -34,-19 -37,-19 -4,0 -18,18 -32,40 l -27,39 -132,-45 c -73,-25 -284,-97 -468,-159 -289,-98 -410,-146 -880,-350 C 2805,1881 2052,1556 1580,1355 1119,1159 1072,1140 881,1083 414,944 258,865 195,735 170,685 168,672 174,611 192,417 305,182 428,83 c 156,-125 242,-114 617,77 292,149 362,179 1365,590 124,51 299,123 390,160 91,38 469,192 840,343 1524,621 1333,537 1825,803 242,130 443,240 448,244 4,3 -5,39 -19,78 -15,40 -25,74 -23,76 2,2 63,27 134,56 260,106 510,235 645,334 30,22 121,104 201,182 212,204 299,258 546,338 l 113,36 132,-29 c 1233,-274 2428,-515 2883,-581 407,-59 1258,-50 1915,21 272,29 360,53 360,99 0,76 -480,262 -1239,480 -188,54 -2294,577 -2339,581 -10,0 119,46 388,137 129,44 316,108 415,142 175,60 358,123 790,270 432,147 1385,480 1515,530 266,100 374,165 368,219 -4,31 -33,47 -173,93 l -100,33 -275,-1 c -285,0 -417,-8 -830,-49 -516,-52 -944,-118 -1222,-189 -320,-82 -1348,-385 -2342,-690 -172,-53 -296,-86 -323,-86 -67,0 -232,36 -339,75 -188,67 -305,153 -406,297 -94,134 -383,310 -798,487 l -95,40 v 51 50 l -462,185 -462,184 -978,301 c -538,166 -1108,342 -1268,391 -159,50 -420,131 -580,181 -657,204 -862,272 -990,330 -210,94 -390,167 -480,193 -110,32 -243,42 -297,21 z m 267,-121 c 86,-24 232,-81 360,-140 165,-77 267,-115 495,-188 428,-137 1224,-384 2485,-772 512,-157 936,-287 943,-290 10,-4 9,-13 -4,-42 -100,-227 -120,-297 -150,-533 -9,-74 -18,-136 -19,-138 -2,-2 -716,233 -1586,522 -2238,742 -2218,735 -2514,801 -281,62 -391,110 -421,182 -43,101 -39,220 12,372 30,91 101,218 129,234 58,31 138,29 270,-8 z m 4770,-1565 400,-179 -1,-103 c -1,-57 -6,-128 -13,-158 -11,-54 -104,-253 -139,-298 l -17,-22 -230,49 c -127,28 -304,66 -395,85 -91,20 -174,38 -186,41 -16,3 -20,11 -17,32 27,228 57,393 84,468 24,68 108,265 113,265 1,0 181,-81 401,-180 z m 7214,-162 c 62,-20 118,-41 125,-48 24,-25 -95,-89 -336,-181 -151,-57 -1032,-365 -1568,-547 -113,-39 -286,-98 -385,-132 -345,-118 -896,-306 -1352,-461 -161,-54 -427,-144 -590,-200 -164,-56 -507,-171 -763,-256 -277,-92 -490,-168 -526,-188 -98,-55 -179,-120 -329,-265 -77,-75 -162,-152 -190,-171 -79,-57 -234,-145 -352,-200 -118,-56 -410,-179 -423,-179 -4,0 -15,30 -24,66 -21,82 -53,147 -122,245 l -53,77 29,12 c 25,10 34,10 55,-4 64,-42 277,5 341,76 40,44 57,88 52,140 l -5,49 77,59 c 146,111 207,187 286,355 48,104 110,283 144,422 22,88 25,93 54,102 17,5 331,101 697,215 1578,487 2637,797 2924,856 325,67 939,144 1440,180 231,17 256,17 475,15 205,-2 205,-2 319,-37 z M 5925,5179 c 281,-123 561,-282 664,-374 22,-21 65,-72 94,-114 30,-42 76,-94 102,-115 111,-92 280,-167 470,-211 55,-13 93,-25 85,-28 -8,-3 -172,-54 -365,-113 -192,-59 -355,-111 -361,-116 -7,-5 -15,-24 -18,-44 l -7,-35 -32,23 c -66,47 -168,152 -197,204 -49,84 -98,112 -151,84 -16,-9 -30,-4 -78,30 -58,41 -59,42 -49,73 24,79 -4,166 -70,214 -81,60 -276,89 -321,49 -12,-11 -24,-16 -27,-13 -4,4 16,77 45,164 52,161 71,250 71,337 0,34 4,47 13,43 6,-2 66,-28 132,-58 z m -61,-529 c 42,-11 90,-29 107,-41 32,-23 59,-67 59,-97 0,-17 -88,-363 -93,-368 -3,-3 -351,69 -356,73 -6,4 129,404 146,431 17,27 38,28 137,2 z m 3577,-774 c 167,-41 455,-111 639,-156 1287,-313 1655,-413 2161,-586 283,-97 509,-196 509,-224 0,-23 -267,-60 -610,-85 -576,-41 -1226,-43 -1528,-5 -352,45 -1235,217 -2356,460 -357,77 -652,140 -654,140 -20,0 67,31 554,195 459,156 975,332 980,334 1,1 138,-32 305,-73 z M 5979,3413 c 5,-21 26,-101 46,-178 42,-161 41,-189 -10,-234 -41,-36 -158,-73 -217,-69 l -41,3 -75,218 c -41,119 -72,220 -69,223 7,7 300,71 334,73 18,1 24,-7 32,-36 z m -330,-653 c 75,-108 120,-229 146,-395 l 6,-40 -278,-150 c -152,-83 -321,-174 -375,-203 l -98,-53 -94,143 c -115,174 -153,250 -199,393 -58,184 -58,171 10,191 32,9 222,65 423,125 l 365,107 28,-31 c 15,-18 45,-57 66,-87 z m -979,-232 c 48,-183 95,-285 221,-481 86,-133 88,-138 66,-146 -12,-5 -157,-64 -322,-131 -165,-67 -408,-166 -540,-220 C 3339,1242 3211,1190 2675,970 2571,927 2386,852 2265,802 1410,452 1265,389 1023,264 781,139 704,108 630,107 c -43,-1 -64,4 -96,25 -120,77 -220,257 -253,455 -11,61 -10,75 3,101 51,99 226,181 646,302 189,54 367,128 1975,823 245,106 1458,632 1630,708 61,26 113,48 117,48 4,1 12,-18 18,-41 z"
         id="path1"
         transform="matrix(0,0.2409726,-0.18913763,0,2246.9081,1851.493)" />
      <path
         d="m 7426,4161 -108,-6 -59,-76 -59,-76 7,-93 6,-93 59,-68 60,-69 h 110 110 l 59,51 59,51 v 121 121 l -56,73 c -31,40 -61,72 -68,71 -6,-1 -60,-4 -120,-7 z m 162,-96 42,-55 v -102 -102 l -42,-43 -42,-43 h -97 -97 l -50,58 c -48,56 -49,59 -54,135 l -5,78 50,65 49,64 h 102 101 z"
         id="path2"
         transform="matrix(0,0.2409726,-0.18913763,0,2246.9081,1851.493)" />
      <path
         style="fill:#145d0f;fill-opacity:1;fill-rule:nonzero;stroke-width:0.593749"
         d="m 281.18449,1107.7879 c -1.64721,-2.5183 -2.80343,-5.9655 -5.7029,-17.0028 -2.79579,-10.6426 -10.47334,-34.0256 -30.75825,-93.6781 l -9.52187,-28.00127 3.34642,-1.35821 c 1.84052,-0.74701 5.44432,-2.93903 8.00844,-4.87115 2.56411,-1.93212 4.73278,-3.41565 4.81926,-3.29674 0.0865,0.11892 1.25528,3.68964 2.59732,7.93495 14.56117,46.06152 34.86478,108.32232 37.93462,116.32602 2.11901,5.5247 4.06653,11.1893 4.32784,12.5881 0.87522,4.6848 -1.94648,8.59 -8.28382,11.4647 -3.5411,1.6063 -5.66908,1.5731 -6.76706,-0.1055 z"
         id="path53"
         transform="matrix(7.5,0,0,-7.5,0,10240)" />
      <path
         style="fill:#000100;fill-opacity:1;fill-rule:nonzero;stroke-width:0.593749"
         d="m 130.88495,1114.5046 c -2.72854,-0.6531 -7.97732,-3.6748 -8.6872,-5.0012 -1.23211,-2.3022 -0.13069,-8.7226 3.27365,-19.0827 3.67654,-11.1885 6.97272,-24.1308 21.47288,-84.3124 5.42905,-22.5328 9.97819,-41.29413 10.1092,-41.69185 0.16597,-0.50383 1.40812,-0.17566 4.09592,1.08211 2.12174,0.99288 6.01198,2.22965 8.64499,2.74838 3.83517,0.75557 4.73459,1.1308 4.52234,1.88664 -0.73091,2.60297 -27.30039,105.44372 -29.15934,112.86522 -1.18607,4.7352 -2.90835,12.49 -3.82729,17.2328 -2.09983,10.8379 -2.89929,12.8245 -5.61793,13.9604 -2.26801,0.9477 -2.19391,0.9429 -4.82722,0.3126 z"
         id="path54"
         transform="matrix(7.5,0,0,-7.5,0,10240)" />
      <path
         style="fill:#000100;fill-opacity:1;fill-rule:nonzero;stroke-width:4.45313"
         d="m 1704.1827,3241.1422 c 3.0832,29.8691 -8.113,71.0305 -21.958,80.7279 -5.4084,3.7881 -14.4218,6.8873 -20.0305,6.8873 -7.4433,0 -14.2665,6.3618 -25.2663,23.5574 -27.2337,42.5722 -54.4678,62.1879 -124.7495,89.8505 l -35.2803,13.8864 -37.0849,153.4425 c -94.6618,391.6728 -156.7519,663.057 -168.2707,735.4887 -7.6723,48.2403 -22.5021,192.3338 -29.0076,281.8591 -9.0137,124.0154 -4.7529,251.2621 8.9224,266.4892 1.8546,2.0653 7.7785,-7.9542 13.1644,-22.2656 17.4181,-46.2803 116.8979,-410.7005 280.3873,-1027.1276 36.5673,-137.8761 70.6368,-261.6009 75.7091,-274.944 5.0723,-13.3431 24.4675,-45.3012 43.1004,-71.018 18.6323,-25.7167 42.5097,-64.7929 53.0621,-86.8358 16.739,-34.9689 55.4611,-139.2275 55.4611,-149.3292 0,-1.9871 -6.7219,-5.8313 -14.9375,-8.5427 -8.2164,-2.7116 -23.0629,-11.8845 -32.9933,-20.3844 -9.9305,-8.5 -19.0942,-15.4545 -20.365,-15.4545 -1.2707,0 -1.2089,10.6708 0.1369,23.7128 z m -164.5164,360.6823 c 13.3576,12.6256 14.4727,15.8476 14.4727,41.8139 0,21.6242 -2.3185,31.7134 -10.0191,43.6026 -9.4449,14.5808 -11.4391,15.4714 -34.7517,15.5234 -22.3462,0.052 -26.1574,-1.4151 -39.5057,-15.1873 -14.2311,-14.6834 -14.7055,-16.3155 -12.9106,-44.4996 1.6435,-25.8144 3.5896,-31.0383 16.5366,-44.3959 13.18,-13.5989 16.5567,-14.9049 33.1887,-12.8379 12.4522,1.5475 23.256,6.781 32.9891,15.9808 z"
         id="path55" />
      <path
         style="fill:#000100;fill-opacity:1;fill-rule:nonzero;stroke-width:0.593749"
         d="m 206.57129,848.23113 -6.26042,-23.39293 2.87277,-15.05234 c 10.84692,-56.83416 15.74952,-79.30712 20.45611,-93.76844 1.66335,-5.11074 2.28475,-6.40833 2.62648,-5.48453 1.29102,3.48996 2.02835,19.20971 2.02778,43.23192 l -6.1e-4,25.53122 -1.91079,12.76562 c -3.20902,21.43896 -12.866,79.56241 -13.21897,79.56241 -0.18256,0 -3.14912,-10.52682 -6.59235,-23.39293 z"
         id="path56"
         transform="matrix(7.5,0,0,-7.5,0,10240)" />
      <path
         style="fill:#000100;fill-opacity:1;fill-rule:nonzero;stroke-width:0.593749"
         d="m 176.04669,934.25341 c -1.95938,-0.77654 -4.41509,-1.42568 -5.45715,-1.44253 -1.04205,-0.0168 -2.05209,-0.28539 -2.24453,-0.59677 -0.45494,-0.73611 4.50959,-13.81368 7.5614,-19.91822 1.33419,-2.66877 3.81316,-6.30596 5.65777,-8.30119 3.82126,-4.13326 5.63757,-7.78594 7.37877,-14.83902 l 1.25469,-5.08238 2.64014,10.84567 c 1.45311,5.96934 3.03147,11.1575 3.51051,11.5392 1.16254,0.92634 0.41612,2.27646 -3.7848,6.84602 -2.69995,2.93687 -3.19603,3.804 -2.88506,5.04302 0.55666,2.21789 -1.05365,4.3393 -3.29385,4.3393 -0.99363,0 -2.29128,0.25939 -2.88366,0.57642 -1.58174,0.84652 -3.10499,5.1678 -3.19788,9.072 -0.0447,1.87773 -0.21907,3.39523 -0.38754,3.37222 -0.16848,-0.023 -1.90944,-0.6772 -3.86881,-1.45374 z"
         id="path57"
         transform="matrix(7.5,0,0,-7.5,0,10240)" />
      <path
         style="fill:#0caf00;fill-opacity:1;fill-rule:nonzero;stroke-width:4.45313"
         d="m 2109.2705,1936.6862 c -9.1092,13.9028 -20.0648,47.2575 -43.3037,131.838 -13.5462,49.302 -276.5702,845.2734 -296.7299,897.9711 -1.0792,2.8212 5.5262,7.5905 14.71,10.6215 9.1683,3.0257 35.4318,18.2224 58.3638,33.7706 26.8294,18.1899 42.4161,26.311 43.7167,22.7769 1.1109,-3.0209 37.2774,-115.7072 80.3686,-250.4141 87.1909,-272.5657 165.7837,-512.1585 219.9333,-670.4737 40.4592,-118.2892 40.9606,-123.7688 13.7969,-150.7095 -33.5809,-33.3053 -77.6052,-45.6037 -90.8557,-25.3808 z"
         id="path58" />
      <path
         style="fill:#0caf00;fill-opacity:1;fill-rule:nonzero;stroke-width:0.593749"
         d="m 127.93285,1112.7717 c -4.95581,-2.3445 -5.62048,-3.1394 -5.62048,-6.7218 0,-3.3973 0.71805,-6.3928 4.7428,-19.7854 3.59044,-11.9475 6.27181,-22.5538 19.57605,-77.4343 5.89119,-24.30137 10.78476,-44.25781 10.8746,-44.34765 0.0898,-0.0898 1.35923,0.37534 2.82086,1.03373 1.46164,0.65839 5.0299,1.83489 7.92947,2.61443 2.89957,0.77955 5.38125,1.52667 5.51484,1.66026 0.1336,0.13359 -5.9337,24.12369 -13.48288,53.31133 -13.7395,53.1215 -16.88264,65.6989 -19.84043,79.3925 -1.88246,8.7152 -2.41582,10.0152 -4.56519,11.1267 -2.36512,1.223 -3.91939,1.0569 -7.94964,-0.8498 z"
         id="path59"
         transform="matrix(7.5,0,0,-7.5,0,10240)" />
      <path
         style="fill:#0caf00;fill-opacity:1;fill-rule:nonzero;stroke-width:4.45313"
         d="m 1747.7091,3004.793 c -1.691,7.9599 -11.972,52.5468 -22.8472,99.0819 l -19.7713,84.6093 22.263,20.6553 c 20.5366,19.0534 53.2805,35.0087 71.8466,35.0087 5.4673,0 17.2996,-23.2815 44.3218,-87.2059 31.0393,-73.4276 35.8914,-88.1087 30.7128,-92.9203 -35.4344,-32.9212 -101.4192,-73.7017 -119.2542,-73.7017 -2.3078,0 -5.5806,6.5127 -7.2715,14.4727 z"
         id="path60" />
      <path
         style="fill:#0cad00;fill-opacity:1;fill-rule:nonzero;stroke-width:0.593749"
         d="m 170.15957,965.69689 c -2.25823,-0.44851 -6.08493,-1.75533 -8.50378,-2.90403 -3.96594,-1.88342 -4.35644,-2.22064 -3.97584,-3.43341 0.23213,-0.73967 2.21849,-6.42141 4.41414,-12.6261 l 3.99209,-11.28123 2.55511,-0.18738 c 1.95078,-0.14306 3.44509,0.26435 6.31796,1.72254 2.06956,1.05045 4.0823,2.29484 4.47275,2.7653 0.55699,0.67114 0.35367,3.04979 -0.94395,11.04307 -2.20354,13.57374 -2.71035,15.83848 -3.52963,15.77252 -0.38114,-0.0307 -2.54063,-0.42276 -4.79885,-0.87128 z"
         id="path61"
         transform="matrix(7.5,0,0,-7.5,0,10240)" />
      <path
         style="fill:#050505;fill-opacity:1;fill-rule:nonzero;stroke-width:0.593749"
         d="m 189.40605,937.27772 c -1.7961,-0.73419 -4.16702,-1.80324 -5.26872,-2.37565 -1.90964,-0.99219 -1.98684,-1.1594 -1.65454,-3.5838 0.43518,-3.17493 1.466,-5.49241 2.64413,-5.9445 0.86577,-0.33223 8.24708,1.77157 9.18392,2.61758 0.39005,0.35223 -0.94461,9.93821 -1.45336,10.43854 -0.1022,0.1005 -1.65534,-0.41797 -3.45143,-1.15217 z"
         id="path62"
         transform="matrix(7.5,0,0,-7.5,0,10240)" />
      <path
         style="fill:#050505;fill-opacity:1;fill-rule:nonzero;stroke-width:4.45313"
         d="m 1603.7764,3239.4395 c -8.0526,48.76 -8.6502,47.2253 22.477,57.7373 38.9732,13.1614 47.3387,12.3688 54.4307,-5.1576 8.9444,-22.1056 11.6399,-46.7286 5.6104,-51.2516 -6.8418,-5.1322 -68.7707,-32.2444 -73.6517,-32.2444 -2.0688,0 -6.0587,13.9123 -8.8664,30.9163 z"
         id="path63" />
    </g>
  </g>
</svg>
