<?xml version="1.0" encoding="UTF-8" standalone="no"?>
<svg
   version="1.0"
   width="800pt"
   height="580pt"
   viewBox="0 0 800 580"
   preserveAspectRatio="xMidYMid"
   id="svg154"
   xml:space="preserve"
   xmlns="http://www.w3.org/2000/svg"
   xmlns:svg="http://www.w3.org/2000/svg"><defs
     id="defs154"><linearGradient
       id="swatch450"><stop
         style="stop-color:#3e318b;stop-opacity:0.79136693;"
         offset="0"
         id="stop451" /></linearGradient></defs><g
     id="g1"
     transform="translate(-105.46668,-132.70164)"><g
       id="g7"
       transform="matrix(0.1,0,0,-0.1,-17.704932,1162.7625)"
       style="fill:#000000;stroke:none"><path
         d="M 8051.524,6736.2116 C 0,10240 0,10240 8051.524,6736.2116 Z"
         id="path175"
         style="fill:#198641;fill-opacity:1" /><path
         d="m 7196,6806 c 296,-45 410,-82 706,-229 125,-61 227,-114 228,-117 0,-3 -143,-3 -317,1 -253,4 -350,10 -473,27 -286,41 -690,46 -995,12 -49,-5 -135,-14 -190,-20 -145,-16 -658,-22 -1133,-14 -458,7 -486,13 -267,53 66,12 188,37 270,56 83,19 202,44 265,55 63,11 153,29 200,40 121,28 649,116 815,136 339,41 624,41 891,0 z"
         id="path174"
         style="fill:#188c00;fill-opacity:1" /><path
         d="m 3116.5929,6739.5327 c 188.0236,-91.4903 50.4758,-32.1206 337.0972,-143.2534 170.4189,-66.0773 226.9665,-88.9725 274.9665,-113.9725 -21.4231,-67.9348 -553.5914,120.5001 -621.5914,140.5001 -75,22 -116.449,39.1931 -148.0652,68.1931 -3,14 -29.4674,74.8721 -33.4674,126.8721 l -5.4256,143.8069 32.6593,-58.85 c 20.4152,-66.8972 101.2845,-103.5951 163.8266,-163.2963 z"
         id="path173"
         style="font-variation-settings:normal;opacity:1;vector-effect:none;fill:#178a00;fill-opacity:1;stroke-width:12.2139;stroke-linecap:butt;stroke-linejoin:miter;stroke-miterlimit:4;stroke-dasharray:none;stroke-dashoffset:0;stroke-opacity:1;-inkscape-stroke:none;stop-color:#000000;stop-opacity:1" /><path
         d="m 3173,7226 c 203,-101 302,-135 509,-175 442,-86 871,-63 1568,83 146,30 363,76 484,101 504,105 878,147 1126,127 356,-29 657,-119 902,-270 89,-55 371.9532,-297.5597 408.9532,-337.5597 l -130.8339,9.9459 C 7903.7922,6834.1268 7494.6426,6967.5528 7345,6999 c -196,40 -246,43 -560,38 -170,-3 -327,-8 -347,-11 -21,-3 -53,-8 -70,-10 -18,-2 -87,-13 -153,-24 -464.7714,-56.5148 -1416.0049,-306 -2065,-306 -235,-1 -254,1 -475,37 l -230,37 -201,99 c -110,55 -209,110 -220,122 -10,11 -36,30 -56,40 -43,22 -58,60 -58,154 0,33 -5,91 -10,130 -5,38 -6,73 -4,77 3,5 28,-9 55,-31 28,-22 128,-78 222,-125 z"
         id="path169"
         style="fill:#188c00;fill-opacity:1" /><path
         d="m 8436,7580 c 59,-29 101,-72 115,-120 19,-61 -7,-135 -67,-190 -80,-73 -155,-89 -229,-47 -52,29 -75,75 -75,151 0,105 54,181 152,211 57,18 55,18 104,-5 z"
         id="path167"
         style="fill:#178a00;fill-opacity:1" /><path
         d="m 3251,7805 c 61,-32 86,-115 55,-189 -20,-49 -60,-76 -114,-76 -39,0 -50,5 -88,44 -36,36 -44,50 -44,81 0,41 22,95 49,119 10,9 38,20 62,25 24,5 45,9 47,10 2,1 16,-6 33,-14 z"
         id="path166"
         style="fill:#f6d732;fill-opacity:1" /><path
         d="m 1936,8030 c 89,-84 83,-205 -14,-274 -55,-39 -112,-40 -176,-2 -79,46 -99,138 -49,223 38,66 74,85 150,81 49,-3 68,-9 89,-28 z"
         id="path163"
         style="fill:#ffd969;fill-opacity:1" /><path
         d="m 2214,9288 c 3,-13 6,-48 6,-78 0,-30 7,-109 16,-176 8,-67 14,-137 12,-155 -3,-32 -5,-33 -118,-71 -63,-21 -122,-38 -131,-38 -32,0 -31,110 1,230 20,75 86,194 140,253 29,32 56,57 60,57 4,0 10,-10 14,-22 z"
         id="path161"
         style="fill:#050514;fill-opacity:1" /><path
         id="path160"
         style="fill:#010114;fill-opacity:1"
         d="m 2729.0016,9390.9985 7.0019,-142.998 c 10,-194.9996 9.002,-192.9942 67.002,-188.9942 43.9998,2 46.9922,0.9981 46.9922,-22.0019 0,-36 -41.0002,-89.001 -90,-116.001 -24,-14 -92.9991,-45.9971 -153.9991,-71.9971 -139.9996,-58.9998 -480.9943,-202.0011 -563.9941,-236.0009 -34,-14 -61.0039,-31.002 -59.0039,-37.002 2,-6 49.0041,-41.0031 104.0039,-78.0029 65.9998,-43 116.9932,-86.9953 147.9932,-124.9951 51.9998,-63 128.0011,-213.01 146.0009,-290.0098 9,-34 12.001,-211.9969 11.001,-600.9961 l -0.9961,-554.0039 -30,-46.9922 c -41.9998,-65.9998 -61.0107,-124.001 -61.0107,-191.001 0,-47.9998 7.0078,-72.006 43.0078,-141.0058 l 41.9971,-83.9942 157.998,-3.0029 c 86.9998,-1 165.0049,2.002 175.0049,7.002 10,4.9998 35.0049,42.006 55.0049,81.0058 31,61 36.9873,81.9924 36.9873,136.9922 0,70.9998 -10.9904,100.0041 -69.9902,179.0039 -25,34 -35.0038,54.9961 -29.004,60.9961 7,7 6.0038,199.0008 -0.996,555 -12,585.9988 -9.001,650.9984 33.999,772.998 38.9998,113.9998 51.0002,137.0102 165,320.0098 130.9996,209.9996 147.997,259.9924 131.997,376.9922 -5.9998,42 -19.9962,99.9943 -30.996,128.9941 -30,82 -112.9973,204.0041 -161.9971,239.0039 -24,18 -60.0059,41.0059 -81.0059,51.0059 z m -92.8565,-694.9804 c 1.5528,0.1132 2.8526,0.1103 3.8526,-0.015 17,-1 120,-197.007 120,-227.0068 0,-11 -7.9922,-21.9903 -16.9922,-24.9903 -35,-11 -189.009,-77.005 -234.0088,-100.0048 l -45.9961,-22.9981 -18.999,41.9971 c -11,23 -42.0088,78.9951 -69.0088,124.9951 -56,96.9998 -56.99,96.0117 50.0098,132.0117 38.9998,13 79,27.999 90,33.999 10.9998,6 39.9951,17.9971 64.9951,26.9971 21.8748,7.875 45.2783,14.2217 56.1474,15.0147 z m -41.9238,-87.3194 c -2.9531,-0.3281 -4.2187,-6.6914 -4.2187,-18.6914 0,-29 23.9931,-82.0088 42.9931,-99.0088 25,-20 22.0018,2.002 -7.998,67.002 -16.25,34.9998 -25.8545,51.2451 -30.7764,50.6982 z m -70.5469,-32.1533 c -3.0454,-0.356 -3.6767,-5.417 -3.6767,-15.542 0,-27 36.9951,-101.001 49.9951,-101.001 15,0 12.0008,36.9942 -3.999,68.9942 -8,15 -22,33.0049 -30,40.0049 -6.125,5.2498 -9.9507,7.8208 -12.3194,7.5439 z m -72.3486,-24.7559 c -6.8313,0.1357 -9.8008,-8.878 -5.332,-28.7841 6,-28 59.0127,-91.002 68.0127,-82.002 3,3 -6.0137,27.9971 -19.0137,56.9971 -15.4375,33.8436 -33.6829,53.5907 -43.667,53.789 z m 89.6777,-1721.792 c 122.9999,0 200.9951,-125.004 139.9951,-224.0039 -50.9999,-80.9999 -149.9951,-102.996 -214.9951,-45.9961 -18,17 -41.0097,48.0089 -50.0097,69.0088 -14,35 -13.9961,44.9893 -0.9961,88.9893 10,33 26.9951,61.0059 49.9951,81.0059 27,23.9999 45.0108,30.996 76.0107,30.996 z" /><path
         id="path159"
         style="fill:#ee6120;fill-opacity:1"
         d="m 5024.0016,9438.0054 -118.0078,-123.9991 c -65,-68.9996 -203.9946,-204.0072 -308.9942,-302.0068 -105.9996,-96.9996 -299.9978,-282.9988 -431.997,-412.998 -131.9996,-128.9996 -271.9975,-264.0004 -311.9971,-300 l -71.001,-63.9991 0.9961,-499.9951 c 1,-324.9988 4.9971,-500.0058 11.9971,-501.0058 6,0 30.0088,-3.9981 54.0088,-7.9981 32.9996,-6 45.9873,-5.0049 51.9873,4.9951 7,11 9.0088,9.9971 9.0088,-3.0029 0,-14 7.998,-17.9883 37.998,-17.9883 27,0 33.0016,2.9906 22.002,9.9902 -11,7 -11.0069,10.0049 -2.0069,10.0049 7,0 10.9981,3.9981 7.9981,7.9981 -6,10 123.0117,35.997 132.0117,26.997 3,-3 -1.0127,-4.9951 -8.0127,-4.9951 -9,0 -6.9938,-7.0058 6.0058,-21.0058 17,-19 26.0079,-21 88.0079,-15 37.9996,4 102.9941,15.0013 143.9941,26.0009 42,11 87.001,20.0098 101.001,20.0098 82.9996,0 347.9945,52.9994 473.9941,93.999 74.9996,25 186.0098,53.9952 245.0098,64.9952 93.9996,16.9996 278.9877,78.0013 351.9873,116.0009 14,8 77.0098,37.9942 140.0098,68.9942 163.9992,78.9996 278.9964,144.0072 345.996,197.0068 33,25 74.0069,54.0029 92.0069,63.0029 18,9 40.9912,30.9922 50.9912,46.9922 10,17 28.0049,37 40.0049,45 11,8 20.9912,22 20.9912,30 0,8 7,14.0039 15,14.0039 10,0 15,10 15,30 0,33 -13.9893,38.9932 -28.9893,12.9932 -10,-17 -10.0009,-16.9961 -11.0009,-0.9961 0,9 -7.0069,21.001 -17.0069,26.001 -21,12 -24.0019,51.0068 -7.0019,77.0068 24.9996,35 16.0015,51.9906 -52.9981,99.9902 -37.9996,26 -77.9961,59.9965 -90.9961,75.9961 -13,16 -29.0019,29.0039 -37.0019,29.0039 -7,0 -27.9922,16.9981 -46.9922,37.9981 -19,20 -58.001,58.0049 -86.001,85.0049 -64.9996,59.9996 -39.0035,63.0025 30.9961,3.0029 29,-24 62.9922,-49.001 76.9922,-56.001 28,-15 106.0078,-100.0019 103.0078,-112.0019 -2,-4 1.9984,-7.9981 7.998,-7.9981 6,0 38.9971,-25.0049 71.9971,-55.0049 56,-49.9996 97.002,-68.996 97.002,-45.996 0,4.9996 11.0049,12 25.0049,15 13.9996,3.9996 24.9902,10 24.9902,15 0,16.9996 -529.991,522.9988 -729.9902,697.998 -179.9996,156.9992 -273.004,242.9955 -329.004,304.9951 -27.9996,31 -85.9941,88.0059 -128.9941,126.0059 z M 4781.0133,8477.229 c 86.1976,0.5586 201.6094,-6.9141 213.9844,-17.2266 12,-10 15,-36.9994 15,-123.999 0,-60.9996 -2.9912,-135.0078 -5.9912,-163.0078 l -7.002,-52.9981 h -178.0078 c -207.9992,0 -184.0039,-17.9982 -194.0039,146.001 -6,101.9996 4.0117,176.0049 27.0117,190.0049 6,4 24.9971,11 41.9971,15 14.6875,4.0625 47.8308,5.9717 87.0117,6.2256 z m 541.4795,-0.9815 c 6.4277,-0.037 12.626,-0.124 18.501,-0.249 128.9994,-1 129.0088,-0.9986 129.0088,-187.998 0,-144.9997 -1.002,-149.002 -22.002,-157.002 -13,-4 -93.0042,-11.0039 -179.0039,-14.0039 -154.9997,-6 -156.9932,-5.9892 -162.9932,16.0108 -12,43.9997 -6.998,301.9951 7.002,319.9951 8,11 31.9922,16.9951 76.9922,19.9951 31.4997,1.75 87.501,3.5117 132.4951,3.2519 z m -508.2422,-474.4921 c 87.4998,0.25 176.2422,-5.2579 185.7422,-16.7579 17,-20.9998 10.0019,-319.0019 -7.9981,-337.0019 -9,-9 -57.0011,-13.9961 -146.0009,-15.9961 -147.9998,-4 -188.001,5.9943 -206.001,53.9941 -11,28 -13.999,273.0079 -3.999,298.0079 4.5,11.4998 90.757,17.5039 178.2568,17.7539 z m 305.7422,-1.7579 h 160.0049 c 91.9999,0 169.9961,-3.9902 180.9961,-9.9902 16.9999,-10 18.999,-22.005 18.999,-145.0049 0,-72.9999 -3.9903,-145.0049 -9.9902,-160.0049 -17,-43.9999 -58.0022,-52.9921 -217.002,-46.9921 -133.9999,4 -141.9971,6.001 -146.9971,26.0009 -10,36 -7.0009,282.9903 3.9991,309.9903 z" /><path
         d="m 7255,9428 c 57,-29 84,-56 111,-113 76,-161 -40,-336 -220,-334 -149,1 -259,98 -259,229 -1,46 6,67 38,124 42,75 62,89 165,112 65,15 110,10 165,-18 z"
         id="path158"
         style="fill:#ffe700;fill-opacity:1" /><path
         d="m 5250,9465 c 7,-8 17,-15 23,-15 20,0 96,-65 92,-78 -3,-7 0,-10 5,-7 6,4 36,-14 68,-39 155,-124 186,-148 215,-163 18,-9 55,-38 82,-65 50,-49 153,-108 186,-108 40,0 52,43 57,200 3,97 9,150 16,153 6,2 78,2 160,-1 l 148,-5 -6,-381 c -6,-376 -8,-436 -14,-436 -2,0 -67,59 -145,132 -78,72 -203,183 -277,247 -74,64 -146,126 -160,137 -14,12 -79,69 -146,125 -161,138 -342,302 -343,312 -2,13 26,7 39,-8 z"
         id="path157"
         style="fill-rule:nonzero" /><path
         d="m 3603,9459 c 26,-17 58,-44 72,-60 26,-31 55,-115 55,-158 0,-70 -94,-180 -172,-201 -77,-21 -200,21 -253,87 -25,32 -30,49 -33,105 -4,56 -1,73 17,100 11,18 21,29 21,23 0,-15 40,53 40,68 0,18 40,54 65,60 11,3 47,5 81,6 52,1 67,-3 107,-30 z"
         id="path156"
         style="fill:#0baa00;fill-opacity:1" /><path
         d="m 5078,9615 c 41,-18 82,-52 82,-70 0,-6 9,-19 21,-28 11,-10 18,-21 15,-24 -3,-4 -19,5 -34,18 -15,14 -53,45 -85,68 l -57,43 -57,-46 c -31,-26 -140,-127 -242,-224 -359,-343 -418,-398 -590,-557 -95,-88 -176,-165 -180,-172 -14,-25 -300,-309 -328,-325 -18,-10 -34,-14 -43,-8 -11,7 -9,16 12,47 39,57 774,793 843,843 101,74 230,187 338,295 117,117 143,136 201,146 63,10 64,10 104,-6 z"
         id="path155" /><path
         d="m 5125,9968 c 323,-297 535,-472 551,-455 10,10 23,87 24,137 v 45 l 457,-3 458,-3 6,-237 c 4,-130 7,-363 8,-517 l 1,-281 133,-125 c 151,-144 178,-163 207,-154 19,6 20,2 20,-78 0,-100 20,-212 49,-280 23,-53 27,-87 10,-87 -5,0 -40,4 -77,9 -37,5 -121,12 -187,15 l -120,6 v -173 c 0,-94 -3,-184 -7,-199 -8,-25 -12,-27 -79,-30 -52,-2 -73,1 -76,10 -10,24 3,522 13,532 6,6 66,7 172,2 l 162,-7 v 55 c -1,74 -15,101 -81,152 -64,49 -217,186 -266,237 l -33,35 v 473 473 h -284 c -156,0 -298,3 -315,6 l -31,7 -1,-129 c 0,-127 -9,-218 -23,-231 -3,-4 -40,28 -82,70 -41,42 -108,101 -147,131 -40,30 -130,103 -201,163 -71,59 -154,129 -185,154 -31,26 -85,74 -120,108 -35,33 -67,61 -71,61 -16,0 -234,-191 -450,-395 -124,-116 -423,-407 -665,-646 -243,-239 -491,-478 -552,-532 -116,-102 -143,-133 -143,-165 0,-17 5,-18 58,-10 31,4 121,7 200,6 135,-1 143,-3 148,-22 2,-12 3,-203 2,-426 -3,-353 -5,-405 -18,-403 -45,7 -115,24 -121,31 -4,4 -9,152 -11,330 -2,222 -6,321 -14,318 -13,-5 -437,11 -514,20 -51,6 -59,10 -65,31 -3,13 -1,41 5,63 8,31 20,45 63,71 28,17 126,104 217,193 91,88 273,264 405,391 132,126 357,344 500,485 395,389 918,870 944,870 9,0 66,-46 126,-102 z"
         id="path154" /><g
         id="g72"
         transform="matrix(-0.8117275,0.69165309,-0.39792667,-0.46700871,10279.682,8726.2773)"><path
           d="M 278,7166 C 195,7135 155,7091 90,6955 28,6826 6,6734 6,6600 c 0,-142 22,-207 88,-268 80,-74 171,-107 482,-177 254,-58 268,-62 2814,-905 696,-230 1299,-426 1340,-434 41,-8 253,-53 471,-100 218,-48 403,-86 412,-86 8,0 17,6 20,13 2,6 8,8 13,4 5,-4 -27,-111 -70,-238 -43,-126 -76,-232 -73,-236 5,-4 258,-60 452,-98 l 30,-6 34,138 c 19,76 36,144 39,150 2,8 27,-4 69,-34 54,-38 68,-44 82,-35 46,34 62,28 107,-44 47,-73 100,-130 184,-197 46,-37 74,-66 72,-76 -9,-49 -59,-204 -93,-293 -48,-122 -96,-213 -152,-287 -40,-52 -198,-186 -219,-186 -6,0 -30,72 -54,160 -23,88 -46,159 -50,159 -50,-8 -470,-97 -474,-101 -4,-4 18,-74 109,-336 l 48,-139 -31,-19 c -17,-10 -34,-19 -37,-19 -4,0 -18,18 -32,40 l -27,39 -132,-45 c -73,-25 -284,-97 -468,-159 -289,-98 -410,-146 -880,-350 C 2805,1881 2052,1556 1580,1355 1119,1159 1072,1140 881,1083 414,944 258,865 195,735 170,685 168,672 174,611 192,417 305,182 428,83 c 156,-125 242,-114 617,77 292,149 362,179 1365,590 124,51 299,123 390,160 91,38 469,192 840,343 1524,621 1333,537 1825,803 242,130 443,240 448,244 4,3 -5,39 -19,78 -15,40 -25,74 -23,76 2,2 63,27 134,56 260,106 510,235 645,334 30,22 121,104 201,182 212,204 299,258 546,338 l 113,36 132,-29 c 1233,-274 2428,-515 2883,-581 407,-59 1258,-50 1915,21 272,29 360,53 360,99 0,76 -480,262 -1239,480 -188,54 -2294,577 -2339,581 -10,0 119,46 388,137 129,44 316,108 415,142 175,60 358,123 790,270 432,147 1385,480 1515,530 266,100 374,165 368,219 -4,31 -33,47 -173,93 l -100,33 -275,-1 c -285,0 -417,-8 -830,-49 -516,-52 -944,-118 -1222,-189 -320,-82 -1348,-385 -2342,-690 -172,-53 -296,-86 -323,-86 -67,0 -232,36 -339,75 -188,67 -305,153 -406,297 -94,134 -383,310 -798,487 l -95,40 v 51 50 l -462,185 -462,184 -978,301 c -538,166 -1108,342 -1268,391 -159,50 -420,131 -580,181 -657,204 -862,272 -990,330 -210,94 -390,167 -480,193 -110,32 -243,42 -297,21 z m 267,-121 c 86,-24 232,-81 360,-140 165,-77 267,-115 495,-188 428,-137 1224,-384 2485,-772 512,-157 936,-287 943,-290 10,-4 9,-13 -4,-42 -100,-227 -120,-297 -150,-533 -9,-74 -18,-136 -19,-138 -2,-2 -716,233 -1586,522 -2238,742 -2218,735 -2514,801 -281,62 -391,110 -421,182 -43,101 -39,220 12,372 30,91 101,218 129,234 58,31 138,29 270,-8 z m 4770,-1565 400,-179 -1,-103 c -1,-57 -6,-128 -13,-158 -11,-54 -104,-253 -139,-298 l -17,-22 -230,49 c -127,28 -304,66 -395,85 -91,20 -174,38 -186,41 -16,3 -20,11 -17,32 27,228 57,393 84,468 24,68 108,265 113,265 1,0 181,-81 401,-180 z m 7214,-162 c 62,-20 118,-41 125,-48 24,-25 -95,-89 -336,-181 -151,-57 -1032,-365 -1568,-547 -113,-39 -286,-98 -385,-132 -345,-118 -896,-306 -1352,-461 -161,-54 -427,-144 -590,-200 -164,-56 -507,-171 -763,-256 -277,-92 -490,-168 -526,-188 -98,-55 -179,-120 -329,-265 -77,-75 -162,-152 -190,-171 -79,-57 -234,-145 -352,-200 -118,-56 -410,-179 -423,-179 -4,0 -15,30 -24,66 -21,82 -53,147 -122,245 l -53,77 29,12 c 25,10 34,10 55,-4 64,-42 277,5 341,76 40,44 57,88 52,140 l -5,49 77,59 c 146,111 207,187 286,355 48,104 110,283 144,422 22,88 25,93 54,102 17,5 331,101 697,215 1578,487 2637,797 2924,856 325,67 939,144 1440,180 231,17 256,17 475,15 205,-2 205,-2 319,-37 z M 5925,5179 c 281,-123 561,-282 664,-374 22,-21 65,-72 94,-114 30,-42 76,-94 102,-115 111,-92 280,-167 470,-211 55,-13 93,-25 85,-28 -8,-3 -172,-54 -365,-113 -192,-59 -355,-111 -361,-116 -7,-5 -15,-24 -18,-44 l -7,-35 -32,23 c -66,47 -168,152 -197,204 -49,84 -98,112 -151,84 -16,-9 -30,-4 -78,30 -58,41 -59,42 -49,73 24,79 -4,166 -70,214 -81,60 -276,89 -321,49 -12,-11 -24,-16 -27,-13 -4,4 16,77 45,164 52,161 71,250 71,337 0,34 4,47 13,43 6,-2 66,-28 132,-58 z m -61,-529 c 42,-11 90,-29 107,-41 32,-23 59,-67 59,-97 0,-17 -88,-363 -93,-368 -3,-3 -351,69 -356,73 -6,4 129,404 146,431 17,27 38,28 137,2 z m 3577,-774 c 167,-41 455,-111 639,-156 1287,-313 1655,-413 2161,-586 283,-97 509,-196 509,-224 0,-23 -267,-60 -610,-85 -576,-41 -1226,-43 -1528,-5 -352,45 -1235,217 -2356,460 -357,77 -652,140 -654,140 -20,0 67,31 554,195 459,156 975,332 980,334 1,1 138,-32 305,-73 z M 5979,3413 c 5,-21 26,-101 46,-178 42,-161 41,-189 -10,-234 -41,-36 -158,-73 -217,-69 l -41,3 -75,218 c -41,119 -72,220 -69,223 7,7 300,71 334,73 18,1 24,-7 32,-36 z m -330,-653 c 75,-108 120,-229 146,-395 l 6,-40 -278,-150 c -152,-83 -321,-174 -375,-203 l -98,-53 -94,143 c -115,174 -153,250 -199,393 -58,184 -58,171 10,191 32,9 222,65 423,125 l 365,107 28,-31 c 15,-18 45,-57 66,-87 z m -979,-232 c 48,-183 95,-285 221,-481 86,-133 88,-138 66,-146 -12,-5 -157,-64 -322,-131 -165,-67 -408,-166 -540,-220 C 3339,1242 3211,1190 2675,970 2571,927 2386,852 2265,802 1410,452 1265,389 1023,264 781,139 704,108 630,107 c -43,-1 -64,4 -96,25 -120,77 -220,257 -253,455 -11,61 -10,75 3,101 51,99 226,181 646,302 189,54 367,128 1975,823 245,106 1458,632 1630,708 61,26 113,48 117,48 4,1 12,-18 18,-41 z"
           id="path1"
           transform="matrix(0,0.2409726,-0.18913763,0,2246.9081,1851.493)" /><path
           d="m 7426,4161 -108,-6 -59,-76 -59,-76 7,-93 6,-93 59,-68 60,-69 h 110 110 l 59,51 59,51 v 121 121 l -56,73 c -31,40 -61,72 -68,71 -6,-1 -60,-4 -120,-7 z m 162,-96 42,-55 v -102 -102 l -42,-43 -42,-43 h -97 -97 l -50,58 c -48,56 -49,59 -54,135 l -5,78 50,65 49,64 h 102 101 z"
           id="path2"
           transform="matrix(0,0.2409726,-0.18913763,0,2246.9081,1851.493)" /><path
           style="fill:#145d0f;fill-opacity:1;fill-rule:nonzero;stroke-width:0.593749"
           d="m 281.18449,1107.7879 c -1.64721,-2.5183 -2.80343,-5.9655 -5.7029,-17.0028 -2.79579,-10.6426 -10.47334,-34.0256 -30.75825,-93.6781 l -9.52187,-28.00127 3.34642,-1.35821 c 1.84052,-0.74701 5.44432,-2.93903 8.00844,-4.87115 2.56411,-1.93212 4.73278,-3.41565 4.81926,-3.29674 0.0865,0.11892 1.25528,3.68964 2.59732,7.93495 14.56117,46.06152 34.86478,108.32232 37.93462,116.32602 2.11901,5.5247 4.06653,11.1893 4.32784,12.5881 0.87522,4.6848 -1.94648,8.59 -8.28382,11.4647 -3.5411,1.6063 -5.66908,1.5731 -6.76706,-0.1055 z"
           id="path53"
           transform="matrix(7.5,0,0,-7.5,0,10240)" /><path
           style="fill:#000100;fill-opacity:1;fill-rule:nonzero;stroke-width:0.593749"
           d="m 130.88495,1114.5046 c -2.72854,-0.6531 -7.97732,-3.6748 -8.6872,-5.0012 -1.23211,-2.3022 -0.13069,-8.7226 3.27365,-19.0827 3.67654,-11.1885 6.97272,-24.1308 21.47288,-84.3124 5.42905,-22.5328 9.97819,-41.29413 10.1092,-41.69185 0.16597,-0.50383 1.40812,-0.17566 4.09592,1.08211 2.12174,0.99288 6.01198,2.22965 8.64499,2.74838 3.83517,0.75557 4.73459,1.1308 4.52234,1.88664 -0.73091,2.60297 -27.30039,105.44372 -29.15934,112.86522 -1.18607,4.7352 -2.90835,12.49 -3.82729,17.2328 -2.09983,10.8379 -2.89929,12.8245 -5.61793,13.9604 -2.26801,0.9477 -2.19391,0.9429 -4.82722,0.3126 z"
           id="path54"
           transform="matrix(7.5,0,0,-7.5,0,10240)" /><path
           style="fill:#000100;fill-opacity:1;fill-rule:nonzero;stroke-width:4.45313"
           d="m 1704.1827,3241.1422 c 3.0832,29.8691 -8.113,71.0305 -21.958,80.7279 -5.4084,3.7881 -14.4218,6.8873 -20.0305,6.8873 -7.4433,0 -14.2665,6.3618 -25.2663,23.5574 -27.2337,42.5722 -54.4678,62.1879 -124.7495,89.8505 l -35.2803,13.8864 -37.0849,153.4425 c -94.6618,391.6728 -156.7519,663.057 -168.2707,735.4887 -7.6723,48.2403 -22.5021,192.3338 -29.0076,281.8591 -9.0137,124.0154 -4.7529,251.2621 8.9224,266.4892 1.8546,2.0653 7.7785,-7.9542 13.1644,-22.2656 17.4181,-46.2803 116.8979,-410.7005 280.3873,-1027.1276 36.5673,-137.8761 70.6368,-261.6009 75.7091,-274.944 5.0723,-13.3431 24.4675,-45.3012 43.1004,-71.018 18.6323,-25.7167 42.5097,-64.7929 53.0621,-86.8358 16.739,-34.9689 55.4611,-139.2275 55.4611,-149.3292 0,-1.9871 -6.7219,-5.8313 -14.9375,-8.5427 -8.2164,-2.7116 -23.0629,-11.8845 -32.9933,-20.3844 -9.9305,-8.5 -19.0942,-15.4545 -20.365,-15.4545 -1.2707,0 -1.2089,10.6708 0.1369,23.7128 z m -164.5164,360.6823 c 13.3576,12.6256 14.4727,15.8476 14.4727,41.8139 0,21.6242 -2.3185,31.7134 -10.0191,43.6026 -9.4449,14.5808 -11.4391,15.4714 -34.7517,15.5234 -22.3462,0.052 -26.1574,-1.4151 -39.5057,-15.1873 -14.2311,-14.6834 -14.7055,-16.3155 -12.9106,-44.4996 1.6435,-25.8144 3.5896,-31.0383 16.5366,-44.3959 13.18,-13.5989 16.5567,-14.9049 33.1887,-12.8379 12.4522,1.5475 23.256,6.781 32.9891,15.9808 z"
           id="path55" /><path
           style="fill:#000100;fill-opacity:1;fill-rule:nonzero;stroke-width:0.593749"
           d="m 206.57129,848.23113 -6.26042,-23.39293 2.87277,-15.05234 c 10.84692,-56.83416 15.74952,-79.30712 20.45611,-93.76844 1.66335,-5.11074 2.28475,-6.40833 2.62648,-5.48453 1.29102,3.48996 2.02835,19.20971 2.02778,43.23192 l -6.1e-4,25.53122 -1.91079,12.76562 c -3.20902,21.43896 -12.866,79.56241 -13.21897,79.56241 -0.18256,0 -3.14912,-10.52682 -6.59235,-23.39293 z"
           id="path56"
           transform="matrix(7.5,0,0,-7.5,0,10240)" /><path
           style="fill:#000100;fill-opacity:1;fill-rule:nonzero;stroke-width:0.593749"
           d="m 176.04669,934.25341 c -1.95938,-0.77654 -4.41509,-1.42568 -5.45715,-1.44253 -1.04205,-0.0168 -2.05209,-0.28539 -2.24453,-0.59677 -0.45494,-0.73611 4.50959,-13.81368 7.5614,-19.91822 1.33419,-2.66877 3.81316,-6.30596 5.65777,-8.30119 3.82126,-4.13326 5.63757,-7.78594 7.37877,-14.83902 l 1.25469,-5.08238 2.64014,10.84567 c 1.45311,5.96934 3.03147,11.1575 3.51051,11.5392 1.16254,0.92634 0.41612,2.27646 -3.7848,6.84602 -2.69995,2.93687 -3.19603,3.804 -2.88506,5.04302 0.55666,2.21789 -1.05365,4.3393 -3.29385,4.3393 -0.99363,0 -2.29128,0.25939 -2.88366,0.57642 -1.58174,0.84652 -3.10499,5.1678 -3.19788,9.072 -0.0447,1.87773 -0.21907,3.39523 -0.38754,3.37222 -0.16848,-0.023 -1.90944,-0.6772 -3.86881,-1.45374 z"
           id="path57"
           transform="matrix(7.5,0,0,-7.5,0,10240)" /><path
           style="fill:#0caf00;fill-opacity:1;fill-rule:nonzero;stroke-width:4.45313"
           d="m 2109.2705,1936.6862 c -9.1092,13.9028 -20.0648,47.2575 -43.3037,131.838 -13.5462,49.302 -276.5702,845.2734 -296.7299,897.9711 -1.0792,2.8212 5.5262,7.5905 14.71,10.6215 9.1683,3.0257 35.4318,18.2224 58.3638,33.7706 26.8294,18.1899 42.4161,26.311 43.7167,22.7769 1.1109,-3.0209 37.2774,-115.7072 80.3686,-250.4141 87.1909,-272.5657 165.7837,-512.1585 219.9333,-670.4737 40.4592,-118.2892 40.9606,-123.7688 13.7969,-150.7095 -33.5809,-33.3053 -77.6052,-45.6037 -90.8557,-25.3808 z"
           id="path58" /><path
           style="fill:#0caf00;fill-opacity:1;fill-rule:nonzero;stroke-width:0.593749"
           d="m 127.93285,1112.7717 c -4.95581,-2.3445 -5.62048,-3.1394 -5.62048,-6.7218 0,-3.3973 0.71805,-6.3928 4.7428,-19.7854 3.59044,-11.9475 6.27181,-22.5538 19.57605,-77.4343 5.89119,-24.30137 10.78476,-44.25781 10.8746,-44.34765 0.0898,-0.0898 1.35923,0.37534 2.82086,1.03373 1.46164,0.65839 5.0299,1.83489 7.92947,2.61443 2.89957,0.77955 5.38125,1.52667 5.51484,1.66026 0.1336,0.13359 -5.9337,24.12369 -13.48288,53.31133 -13.7395,53.1215 -16.88264,65.6989 -19.84043,79.3925 -1.88246,8.7152 -2.41582,10.0152 -4.56519,11.1267 -2.36512,1.223 -3.91939,1.0569 -7.94964,-0.8498 z"
           id="path59"
           transform="matrix(7.5,0,0,-7.5,0,10240)" /><path
           style="fill:#0caf00;fill-opacity:1;fill-rule:nonzero;stroke-width:4.45313"
           d="m 1747.7091,3004.793 c -1.691,7.9599 -11.972,52.5468 -22.8472,99.0819 l -19.7713,84.6093 22.263,20.6553 c 20.5366,19.0534 53.2805,35.0087 71.8466,35.0087 5.4673,0 17.2996,-23.2815 44.3218,-87.2059 31.0393,-73.4276 35.8914,-88.1087 30.7128,-92.9203 -35.4344,-32.9212 -101.4192,-73.7017 -119.2542,-73.7017 -2.3078,0 -5.5806,6.5127 -7.2715,14.4727 z"
           id="path60" /><path
           style="fill:#0cad00;fill-opacity:1;fill-rule:nonzero;stroke-width:0.593749"
           d="m 170.15957,965.69689 c -2.25823,-0.44851 -6.08493,-1.75533 -8.50378,-2.90403 -3.96594,-1.88342 -4.35644,-2.22064 -3.97584,-3.43341 0.23213,-0.73967 2.21849,-6.42141 4.41414,-12.6261 l 3.99209,-11.28123 2.55511,-0.18738 c 1.95078,-0.14306 3.44509,0.26435 6.31796,1.72254 2.06956,1.05045 4.0823,2.29484 4.47275,2.7653 0.55699,0.67114 0.35367,3.04979 -0.94395,11.04307 -2.20354,13.57374 -2.71035,15.83848 -3.52963,15.77252 -0.38114,-0.0307 -2.54063,-0.42276 -4.79885,-0.87128 z"
           id="path61"
           transform="matrix(7.5,0,0,-7.5,0,10240)" /><path
           style="fill:#050505;fill-opacity:1;fill-rule:nonzero;stroke-width:0.593749"
           d="m 189.40605,937.27772 c -1.7961,-0.73419 -4.16702,-1.80324 -5.26872,-2.37565 -1.90964,-0.99219 -1.98684,-1.1594 -1.65454,-3.5838 0.43518,-3.17493 1.466,-5.49241 2.64413,-5.9445 0.86577,-0.33223 8.24708,1.77157 9.18392,2.61758 0.39005,0.35223 -0.94461,9.93821 -1.45336,10.43854 -0.1022,0.1005 -1.65534,-0.41797 -3.45143,-1.15217 z"
           id="path62"
           transform="matrix(7.5,0,0,-7.5,0,10240)" /><path
           style="fill:#050505;fill-opacity:1;fill-rule:nonzero;stroke-width:4.45313"
           d="m 1603.7764,3239.4395 c -8.0526,48.76 -8.6502,47.2253 22.477,57.7373 38.9732,13.1614 47.3387,12.3688 54.4307,-5.1576 8.9444,-22.1056 11.6399,-46.7286 5.6104,-51.2516 -6.8418,-5.1322 -68.7707,-32.2444 -73.6517,-32.2444 -2.0688,0 -6.0587,13.9123 -8.8664,30.9163 z"
           id="path63" /></g></g><g
       id="g2"
       transform="translate(-54.696974,-19.251037)"><path
         style="fill:#000000;stroke-width:1.22149"
         d="m 222.0367,706.09178 c -3.61622,-0.56156 -4.14541,-1.68407 -5.1606,-10.94666 -0.76528,-6.98238 -1.27756,-9.05907 -2.31054,-9.36625 -1.80301,-0.53619 -7.09944,2.15907 -7.78343,3.96086 -0.30441,0.80189 0.14474,4.25477 0.9981,7.67305 1.47473,5.90727 1.46226,6.31377 -0.25183,8.20759 -1.38324,1.52826 -3.25567,2.15167 -8.03655,2.67566 -7.15726,0.78444 -9.6291,-0.23624 -11.54782,-4.76838 -2.38711,-5.63846 -5.97241,-21.77541 -7.08701,-31.89747 -1.44516,-13.12135 -1.04626,-19.93283 1.33385,-22.79474 2.04591,-2.46006 10.42229,-5.7524 14.48254,-5.69235 l 2.62497,0.0388 1.1712,10.68597 c 1.35275,12.34246 2.40093,14.22152 7.00818,12.56342 3.90098,-1.40393 4.38826,-3.85983 2.66615,-13.43703 -1.41417,-7.86447 -1.39896,-8.36084 0.30619,-9.9946 3.57631,-3.4266 14.52281,-2.47505 18.35906,1.59589 2.56155,2.71825 5.88035,18.79785 7.33927,35.55867 1.89444,21.76421 0.83973,25.12395 -8.12033,25.86722 -2.31029,0.19174 -5.00644,0.22329 -5.9914,0.0703 z m 23.36866,-3.46625 c -1.44846,-1.27592 -1.75364,-2.66153 -2.03252,-9.2281 -0.55119,-12.9786 3.63067,-36.73761 7.23407,-41.10014 1.58158,-1.91479 12.12319,-5.24872 14.42836,-4.56319 5.30784,1.57848 17.37001,26.41049 20.54405,42.29337 1.45217,7.26665 1.10293,7.71222 -6.7338,8.59156 -7.5498,0.84718 -9.70551,-0.43507 -10.33132,-6.14489 -0.43801,-3.99639 -0.60138,-4.22173 -2.88003,-3.97198 -4.17925,0.45805 -6.01895,3.08561 -5.49669,7.85069 0.43813,3.99744 0.32989,4.23038 -2.31463,4.98137 -9.36274,2.65881 -10.70644,2.79853 -12.41749,1.29136 z m 19.9704,-25.69951 c 0.78209,-1.00127 -2.87275,-7.59336 -4.3956,-7.92816 -1.16476,-0.25607 -2.42176,4.91674 -2.04037,8.39658 0.23155,2.11262 0.49729,2.23224 3.00905,1.35448 1.5153,-0.52953 3.05741,-1.34981 3.42692,-1.8229 z m 114.08401,11.9195 c -3.12297,-0.47227 -6.11493,-3.59244 -6.45951,-6.73639 -0.5326,-4.85938 -0.43139,-27.12329 0.15718,-34.57927 0.30251,-3.8323 1.01127,-7.60001 1.57503,-8.3727 0.56375,-0.77268 3.58689,-2.16623 6.71809,-3.09677 7.74072,-2.30044 7.67561,-2.35948 16.79768,15.23035 l 1.89407,3.65227 1.02658,-8.31473 c 1.60244,-12.97903 1.83547,-13.31224 9.57156,-13.68664 4.8005,-0.23231 7.80541,1.08604 9.57098,4.19911 4.05175,7.14413 10.72328,30.756 10.36528,36.68475 -0.29894,4.95071 -3.24219,7.85444 -9.09096,8.96899 -3.02313,0.57608 -5.32436,0.58255 -5.73165,0.0145 -0.37421,-0.52144 -0.58895,-3.6943 -0.4772,-7.05078 0.2171,-6.52008 -1.67857,-16.35178 -3.45436,-17.91609 -1.37738,-1.2133 -2.15661,3.97502 -2.23351,14.87143 -0.0753,10.66714 -1.39026,12.16582 -9.35618,10.66313 -3.1559,-0.59532 -3.28343,-0.77461 -4.93136,-6.93263 -2.48704,-9.29368 -4.16388,-13.28781 -5.51632,-13.13958 -1.75368,0.19221 -1.54744,9.0467 0.38112,16.36268 1.41285,5.35964 1.44575,6.25956 0.2724,7.44864 -1.29717,1.31455 -7.46077,2.27686 -11.07892,1.72973 z m -77.04658,6.11656 c -7.08628,-2.89655 -12.19466,-10.9326 -14.57805,-22.93281 -1.55488,-7.82868 -1.31812,-18.16792 0.47868,-20.90497 0.71015,-1.08176 3.89762,-3.16414 7.08326,-4.6275 8.34542,-3.83361 8.5776,-3.52612 8.91137,11.802 0.21456,9.85327 0.57152,12.83899 2.03923,17.0564 1.41418,4.06361 2.13597,5.07321 3.51861,4.92167 1.2983,-0.14229 1.93429,-1.3133 2.5076,-4.61719 0.65063,-3.74951 0.42885,-5.93906 -1.44999,-14.3156 -3.29211,-14.67739 -3.27773,-14.23249 -0.53209,-16.46727 1.33562,-1.08711 4.0306,-2.44198 5.98885,-3.01085 3.07943,-0.89454 3.88968,-0.74425 5.99751,1.11249 3.63751,3.20419 5.32886,8.79778 5.99625,19.83042 0.69807,11.5399 -0.44449,18.47121 -3.99015,24.2062 -4.93134,7.97629 -13.93351,11.23241 -21.97108,7.94701 z m 43.77462,-4.22083 c -4.83329,-1.37082 -10.28676,-5.38635 -11.72536,-8.63365 -1.5797,-3.5658 -0.24702,-8.25867 3.16083,-11.13051 l 2.66428,-2.24525 3.98622,4.02176 c 4.31108,4.34952 7.3019,4.67743 7.38112,0.80927 0.0347,-1.69474 -0.88499,-2.50917 -4.5943,-4.06838 -12.30128,-5.1709 -16.39324,-12.91223 -12.16417,-23.01269 3.97873,-9.50258 20.36643,-11.70854 27.54811,-3.70829 2.9009,3.23153 3.01983,6.4352 0.37356,10.06222 -2.81721,3.86132 -6.17931,4.38446 -8.87544,1.38102 -2.33812,-2.60461 -5.41414,-2.64861 -5.13189,-0.0734 0.12527,1.14299 1.88769,2.51256 5.05117,3.9253 10.77455,4.81162 13.88149,8.17928 14.72924,15.96521 0.9684,8.89069 -4.03864,15.17614 -13.39218,16.81263 -3.34659,0.58551 -6.71435,0.54618 -9.01119,-0.10526 z m 92.7144,-10.37362 c -3.10426,-2.23326 -6.32291,-18.79246 -6.6913,-34.42514 -0.36614,-15.53762 -0.35603,-15.55186 12.40238,-17.43669 13.53551,-1.99965 17.13192,-0.32004 17.42632,8.13862 l 0.13158,3.7804 -7.62044,1.11469 c -5.89546,0.86234 -7.70025,1.45935 -7.97299,2.63737 -0.64825,2.79973 1.98054,3.89871 6.32858,2.64568 5.40935,-1.55887 6.80584,-0.72601 7.36699,4.39394 0.72114,6.57959 0.32566,7.23058 -4.74014,7.80255 -5.20558,0.58774 -6.84647,1.70193 -6.10836,4.14771 0.44024,1.45876 1.24521,1.64911 4.75264,1.12385 2.32245,-0.3478 5.85465,-1.53604 7.84934,-2.6405 5.32257,-2.94711 6.17538,-2.33705 6.97868,4.99224 0.5901,5.38402 0.44142,6.42005 -1.12288,7.82401 -5.42099,4.86532 -24.90537,8.83292 -28.9804,5.90127 z m 37.43938,-3.27419 c -1.07628,-0.63118 -1.82147,-4.00836 -3.38925,-15.35967 -3.46309,-25.07419 -3.66174,-28.14164 -2.02216,-31.22515 1.7143,-3.22405 7.28615,-6.00786 12.36203,-6.1763 l 3.50798,-0.11642 0.51163,8.62865 c 0.76353,12.87713 2.86083,30.98561 4.10784,35.4679 0.99462,3.57507 0.90755,4.12659 -0.90929,5.75937 -2.34539,2.10778 -12.15858,4.20054 -14.16878,3.02162 z m 32.00403,-3.92163 c -7.65304,-2.20177 -12.94703,-6.64283 -13.45617,-11.28821 -0.28196,-2.5726 1.92648,-7.02399 4.54273,-9.15641 2.71347,-2.21167 2.26429,-2.4508 7.4735,3.97871 2.06356,2.54696 5.70786,2.6837 6.27473,0.23542 0.51884,-2.24085 0.10778,-2.59925 -7.24416,-6.31655 -7.71744,-3.90209 -10.41682,-7.15822 -11.10511,-13.39558 -0.60009,-5.43848 1.50059,-10.275 5.99224,-13.79595 6.6603,-5.22093 19.1552,-3.98647 23.63752,2.33529 2.63806,3.72068 2.62996,4.4863 -0.0928,8.77082 -2.8429,4.47357 -6.02385,5.16126 -9.36887,2.02539 -2.55686,-2.397 -5.56659,-2.60489 -5.32138,-0.36754 0.0871,0.79434 1.52047,2.12766 3.18534,2.96289 1.66488,0.83525 5.23855,2.69539 7.94149,4.13364 14.626,7.78265 11.91052,26.78542 -4.27057,29.88522 -2.89832,0.55523 -6.24394,0.55231 -8.1885,-0.007 z m 72.58822,-7.65767 c -1.32506,-0.41955 -2.37222,-1.8329 -3.099,-4.18278 -1.69531,-5.48131 -5.0862,-39.34261 -4.25275,-42.4677 0.94896,-3.55817 4.8857,-5.16496 15.52937,-6.33831 7.60075,-0.83808 8.68913,-0.73432 11.0541,1.05206 2.16755,1.63726 2.72308,2.79167 3.19795,6.64552 l 0.57467,4.66404 -7.77538,1.33468 c -7.10556,1.21971 -7.77894,1.51152 -7.81694,3.38759 -0.0537,2.65007 1.56807,3.07577 6.16514,1.6183 2.0413,-0.64719 4.25477,-1.01512 4.91883,-0.81764 1.75945,0.52323 2.89819,4.53113 2.43977,8.58698 -0.39295,3.47664 -0.47568,3.54566 -5.47645,4.56894 -3.60975,0.73865 -5.30078,1.55954 -5.85004,2.83982 -1.74338,4.06375 4.20393,3.87932 12.99372,-0.40294 3.90751,-1.90368 4.1757,-1.92007 5.5339,-0.33805 2.01643,2.34871 2.29831,11.5617 0.41141,13.44676 -3.73613,3.73252 -23.19694,8.09713 -28.54833,6.40273 z m 36.10923,-5.52074 c -1.01116,-1.72103 -2.13335,-7.03641 -3.31601,-15.70688 -1.84199,-13.50397 -1.91883,-23.77296 -0.21495,-28.722 2.18872,-6.3573 18.82933,-10.50877 26.87941,-6.70582 5.28264,2.49559 7.81393,5.5594 8.94577,10.82781 1.13648,5.29008 0.2148,10.50255 -2.65586,15.0198 l -2.21408,3.48406 1.95042,1.71806 c 1.07272,0.94496 2.7559,3.06416 3.74037,4.70939 0.98448,1.64519 2.66784,3.59939 3.74081,4.34266 1.17175,0.8117 1.80594,1.97725 1.588,2.91851 -0.58839,2.54127 -6.54514,6.19175 -10.87849,6.6667 l -3.96977,0.43509 -3.51075,-6.12876 c -2.60481,-4.54723 -3.95962,-6.07956 -5.25023,-5.9381 -1.55809,0.17077 -1.65417,0.73469 -0.92152,5.40833 0.98809,6.30321 -0.13916,7.68485 -7.5472,9.25028 -4.6524,0.98313 -4.89599,0.92271 -6.36592,-1.57913 z m 15.26063,-30.64515 c 2.92297,-3.61333 -0.21336,-9.16632 -3.7082,-6.56549 -1.99999,1.48837 -1.2869,8.70997 0.83706,8.47718 0.79946,-0.0876 2.09146,-0.94787 2.87113,-1.91168 z m 38.6826,25.99792 c -7.65304,-2.20176 -12.94703,-6.64282 -13.45617,-11.28821 -0.28196,-2.5726 1.92648,-7.02399 4.54273,-9.15641 2.71347,-2.21167 2.26429,-2.4508 7.4735,3.97872 2.06356,2.54696 5.70786,2.6837 6.27473,0.23541 0.51884,-2.24084 0.10778,-2.59925 -7.24416,-6.31654 -7.71745,-3.90209 -10.41682,-7.15822 -11.10511,-13.39558 -0.59909,-5.4386 1.50059,-10.275 5.99224,-13.79595 6.6603,-5.22093 19.1552,-3.98648 23.63752,2.33529 2.63806,3.72067 2.62996,4.48629 -0.0928,8.77081 -2.8429,4.47358 -6.02386,5.16126 -9.36887,2.02539 -2.55686,-2.39699 -5.56659,-2.60488 -5.32138,-0.36754 0.0871,0.79434 1.52047,2.12766 3.18534,2.96289 1.66487,0.83525 5.23855,2.69539 7.94149,4.13365 14.626,7.78265 11.91052,26.78541 -4.27057,29.88522 -2.89832,0.55522 -6.24395,0.55231 -8.1885,-0.007 z m 30.57625,-3.76647 c -3.10426,-2.23326 -6.3229,-18.79246 -6.69129,-34.42514 -0.36614,-15.53762 -0.35603,-15.55185 12.40237,-17.43669 13.53552,-1.99965 17.13193,-0.32004 17.42634,8.13862 l 0.13157,3.78041 -7.62045,1.11468 c -5.89545,0.86235 -7.70024,1.45935 -7.97299,2.63737 -0.64825,2.79973 1.98055,3.89871 6.32859,2.64569 5.40934,-1.55888 6.80583,-0.72601 7.36699,4.39394 0.72113,6.57959 0.32565,7.23058 -4.74015,7.80255 -5.20557,0.58774 -6.84645,1.70192 -6.10835,4.1477 0.44024,1.45876 1.24521,1.64912 4.75264,1.12385 2.32245,-0.3478 5.85465,-1.53603 7.84934,-2.6405 5.32257,-2.94711 6.17538,-2.33705 6.97868,4.99224 0.5901,5.38402 0.44141,6.42006 -1.12289,7.82401 -5.42099,4.86532 -24.90537,8.83292 -28.9804,5.90127 z m 37.46006,-3.73205 c -3.66734,-3.88071 -6.88745,-31.14092 -4.92209,-41.66853 0.89233,-4.77984 1.40528,-5.60432 5.08104,-8.16698 3.33636,-2.32603 5.36867,-2.9894 11.04717,-3.60603 12.57021,-1.36483 19.28322,3.27802 20.47612,14.16206 0.64987,5.92935 -1.43962,13.28078 -4.21303,14.82262 -1.23192,0.68485 -1.10119,1.0569 1.09928,3.12872 1.3736,1.29328 3.2797,3.65537 4.23578,5.24907 0.95608,1.59372 2.40779,3.21379 3.22604,3.60014 4.0437,1.90936 -0.71454,8.0178 -7.37352,9.46582 -5.02708,1.09316 -7.5151,-0.2018 -8.92289,-4.64419 -1.0634,-3.35563 -4.44702,-7.17759 -6.18569,-6.98703 -1.0699,0.11726 -1.15172,1.199 -0.42313,5.59493 0.89495,5.39972 0.87702,5.46788 -1.95815,7.45038 -3.40993,2.38439 -9.58864,3.26914 -11.16693,1.59902 z m 15.29897,-32.64088 c 2.0809,-4.54295 -1.20203,-8.36298 -4.48439,-5.21804 -1.62473,1.55671 -1.90704,6.20188 -0.45468,7.48123 1.39839,1.23182 3.85348,0.10683 4.93907,-2.26319 z m 38.76024,26.16357 c -7.41288,-3.86016 -18.83623,-32.18087 -16.07729,-39.85877 1.32342,-3.683 11.42753,-9.58496 15.00367,-8.76388 1.73414,0.39818 1.84302,0.95458 2.64207,13.5002 1.08584,17.04861 3.3566,22.41061 6.21119,14.66668 0.97829,-2.65387 0.9519,-5.45086 -0.14037,-14.88022 l -1.34512,-11.61203 4.13384,-2.45932 c 2.2736,-1.35262 5.55334,-2.87166 7.2883,-3.37564 6.08697,-1.76823 7.99385,4.17673 6.70532,20.90463 -0.88718,11.51742 -3.27268,21.91151 -5.92534,25.81797 -2.09147,3.08 -8.98325,6.88855 -13.31084,7.35588 -1.22898,0.13168 -3.56232,-0.45027 -5.18545,-1.29549 z m 35.50295,-2.88323 c -1.07627,-0.63117 -1.82147,-4.00836 -3.38925,-15.35966 -3.46309,-25.0742 -3.66174,-28.14165 -2.02216,-31.22515 1.7143,-3.22405 7.28615,-6.00786 12.36204,-6.17631 l 3.50797,-0.11641 0.51163,8.62864 c 0.76354,12.87714 2.86083,30.98561 4.10785,35.4679 0.99462,3.57507 0.90753,4.12659 -0.9093,5.75937 -2.34539,2.10779 -12.15857,4.20054 -14.16878,3.02162 z m 35.62001,-3.94605 c -9.66417,-2.08738 -15.90503,-9.21028 -17.87631,-20.40281 -1.46927,-8.3422 -0.22556,-14.78897 4.14711,-21.49659 9.64257,-14.79158 32.24429,-13.92633 33.92688,1.29883 0.5402,4.88291 -1.1397,8.12043 -5.45026,10.50719 -4.0661,2.25139 -5.50543,1.93433 -5.8589,-1.29071 -0.37774,-3.44653 -3.48969,-6.32171 -5.70283,-5.26892 -2.67017,1.27022 -3.91249,5.87748 -3.23979,12.01521 0.51057,4.65841 0.96309,5.69541 3.4358,7.87356 3.58305,3.15625 5.17952,2.96932 9.92075,-1.16157 2.09044,-1.82131 4.16495,-3.35139 4.61005,-3.40017 0.44509,-0.0488 2.33867,1.09137 4.20796,2.53368 4.64251,3.58206 4.96569,6.90841 1.09426,11.26252 -1.59202,1.79052 -4.57774,4.10344 -6.63493,5.13983 -3.89945,1.96447 -12.68579,3.23099 -16.5798,2.38992 z m 35.05253,-3.91554 c -1.32506,-0.41954 -2.37222,-1.8329 -3.09899,-4.18278 -1.69531,-5.48131 -5.0862,-39.3426 -4.25275,-42.4677 0.94895,-3.55817 4.88569,-5.16495 15.52937,-6.33831 7.60074,-0.83808 8.68913,-0.73432 11.05411,1.05206 2.16754,1.63726 2.72307,2.79168 3.19793,6.64552 l 0.57467,4.66404 -7.77538,1.33469 c -7.10557,1.2197 -7.77894,1.51152 -7.81695,3.38759 -0.0537,2.65006 1.56807,3.07577 6.16514,1.61829 2.0413,-0.64719 4.25477,-1.01512 4.91884,-0.81763 1.75944,0.52322 2.89819,4.53113 2.43976,8.58698 -0.39295,3.47663 -0.47568,3.54565 -5.47644,4.56894 -3.60976,0.73864 -5.30078,1.55953 -5.85004,2.83981 -1.74338,4.06375 4.20392,3.87932 12.99371,-0.40294 3.90751,-1.90367 4.17571,-1.92005 5.53391,-0.33805 2.01643,2.34871 2.2983,11.5617 0.41142,13.44677 -3.73615,3.73252 -23.19696,8.09712 -28.54834,6.40272 z m -351.42328,36.89331 c -1.34213,-1.18225 -1.6657,-2.53936 -1.73775,-7.28804 -0.19797,-13.05094 -0.9401,-22.2052 -1.89853,-23.41869 -0.84903,-1.07496 -1.73406,-1.00028 -5.82356,0.4914 -4.22388,1.54068 -5.01444,1.58983 -6.36974,0.39598 -1.33665,-1.17743 -1.50738,-2.23439 -1.25388,-7.76253 0.44088,-9.61452 1.2589,-10.41763 10.90751,-10.70865 5.09469,-0.15368 9.76742,-0.86521 13.03231,-1.98447 9.53093,-3.26741 10.32421,-3.37669 11.25719,-1.55078 4.03859,7.90378 2.94718,16.2702 -2.21074,16.94681 -0.78228,0.10264 -2.24201,1.09218 -3.24383,2.19903 -1.81797,2.00859 -1.81722,2.03214 0.38198,12.26147 1.21191,5.63697 2.59672,11.76607 3.07738,13.62023 0.8126,3.13461 0.67294,3.50545 -1.99017,5.28421 -3.85171,2.57264 -11.94214,3.43965 -14.12817,1.51396 z"
         id="path3" /><path
         d="m 936.27946,634.90925 c 1.82963,1.18753 5.66745,19.82458 3.26344,21.94342 l -0.80034,10.28284 -180.57747,21.26932 c -90.88045,9.55686 -207.41671,21.45758 -214.41287,20.42404 -6.69479,-1.53942 -15.1762,-18.15622 -16.45786,-22.69584 -3.0772,-7.60899 44.65432,-1.54823 212.86831,-20.43583 98.21215,-10.91095 194.19804,-32.43414 196.11679,-30.78795 z"
         id="path209"
         style="fill:#000000;stroke:none;stroke-width:0.42819" /><path
         style="fill:#000000;stroke-width:1.33221"
         d="m 293.33037,624.64318 c -12.16094,-3.372 -19.71248,-20.64141 -17.39244,-39.7743 1.7737,-14.62728 9.51937,-23.94036 20.95342,-25.19355 10.82795,-1.18676 19.74855,6.55812 18.09914,15.71371 -0.49721,2.75996 -6.78443,9.38678 -9.15193,9.64626 -1.2403,0.13594 -2.47395,-0.69737 -3.16283,-2.13647 -2.00392,-4.18617 -4.20296,-4.8026 -6.08906,-1.70685 -2.20339,3.6165 -1.54865,16.18603 1.15842,22.23904 2.14236,4.79029 5.86292,7.01424 7.66862,4.58387 1.75398,-2.36079 1.0468,-5.36306 -1.70212,-7.22635 -5.31006,-3.59926 -1.32528,-10.39533 7.35313,-12.54079 4.03279,-0.99698 4.94542,-0.84269 6.87176,1.16176 1.97283,2.05282 2.28623,3.23301 2.80133,10.54944 0.73381,10.42297 -1.37798,16.47215 -7.48698,21.44644 -4.82415,3.92809 -12.77204,5.21992 -19.92046,3.23779 z m 45.12201,-5.18488 c -4.59422,-2.17684 -6.51165,-4.36114 -9.57328,-10.90573 -3.10811,-6.64396 -5.05485,-17.48464 -4.64142,-25.8463 0.29856,-6.03807 0.61561,-6.87485 3.52116,-9.29316 1.75619,-1.4617 4.64241,-2.92845 6.41384,-3.25946 l 3.22077,-0.60187 1.31302,14.74426 c 1.36028,15.27486 2.77718,20.88261 5.20904,20.61608 2.32807,-0.25516 2.65963,-5.91559 0.94522,-16.137 -0.8818,-5.25736 -2.00476,-11.14396 -2.49544,-13.08131 -0.73739,-2.91131 -0.54895,-3.88595 1.08605,-5.61732 1.08804,-1.15215 3.61716,-2.37703 5.62027,-2.72194 3.08764,-0.53165 3.97959,-0.17091 5.85958,2.36991 1.9723,2.6656 2.37761,4.45757 3.66507,16.20433 1.34018,12.22783 1.31676,13.71433 -0.31601,20.04414 -3.02388,11.72279 -11.45121,17.45441 -19.82787,13.48537 z m 99.1839,-9.73407 c -0.99168,-0.69915 -1.9405,-5.93301 -4.00154,-22.07321 -2.26385,-17.72843 -2.53138,-21.61147 -1.651,-23.96288 1.23575,-3.30059 6.04539,-6.08475 10.40886,-6.02538 l 3.09223,0.0421 0.49437,8.53515 c 0.72033,12.43604 2.8158,30.61321 4.00831,34.77016 0.8722,3.04036 0.744,3.90841 -0.82209,5.56681 -2.24524,2.37758 -9.72476,4.41938 -11.52914,3.14729 z m -61.23483,4.95183 c -0.81215,-1.00848 -1.47137,-5.9055 -2.211,-16.4243 l -1.05384,-14.98741 -5.54718,0.9549 -5.54718,0.95489 -0.46801,-6.12895 c -0.80819,-10.58403 -0.17546,-11.27228 12.20794,-13.27916 5.85463,-0.94882 11.81917,-2.20676 13.25455,-2.79541 2.33175,-0.95631 2.76282,-0.72578 4.04643,2.16393 0.79018,1.77884 1.5284,5.2231 1.64051,7.6539 0.18659,4.04572 -0.13203,4.68249 -3.76583,7.52616 l -3.96966,3.1065 1.55305,9.18341 c 0.85416,5.05088 2.05077,11.4691 2.65912,14.2627 1.02664,4.71443 0.95072,5.19578 -1.05705,6.70101 -2.95221,2.21328 -10.29381,2.90595 -11.74185,1.10783 z m 34.45653,-3.91482 c -1.38618,-1.44239 -1.68741,-2.83442 -1.66005,-7.6713 0.0184,-3.25002 -0.38518,-9.72846 -0.8968,-14.39652 l -0.93023,-8.48736 -5.23023,0.57324 -5.23023,0.57324 -0.61376,-6.54649 c -0.93626,-9.98681 0.0545,-11.14348 10.52788,-12.29138 4.68349,-0.51332 10.46947,-1.76018 12.85773,-2.77078 4.88755,-2.06822 5.53211,-1.6356 7.23444,4.85578 1.63409,6.23112 0.8373,9.25148 -3.19517,12.11186 l -3.65777,2.5946 0.78992,7.20719 c 0.43445,3.96397 1.56117,10.07582 2.50381,13.58191 2.20497,8.20128 1.32969,9.93278 -5.75772,11.3901 -3.9465,0.8115 -5.41798,0.65338 -6.74184,-0.72409 z"
         id="path5" /><path
         style="fill:#000000;stroke-width:1.17595"
         d="m 488.68972,604.16391 c -6.80292,0.23562 -12.55129,-3.77766 -12.22076,-8.53205 0.16702,-2.40192 2.7977,-7.76363 4.04808,-8.25047 0.33591,-0.13078 1.69222,0.86842 3.01406,2.22047 2.8759,2.94164 4.98495,3.24087 6.07165,0.86144 1.07629,-2.35665 0.0131,-3.22123 -5.06462,-4.11849 -5.96553,-1.05413 -9.56265,-3.91605 -10.69851,-8.51182 -1.79577,-7.26578 1.9918,-14.57573 8.95755,-17.28797 9.10642,-3.54572 16.73372,2.27486 12.72465,9.71049 -2.03646,3.77705 -3.50077,4.26542 -6.92331,2.30895 -2.04392,-1.16837 -2.96232,-1.23732 -3.41046,-0.25608 -0.88286,1.9331 0.38587,2.84235 5.13749,3.68201 10.53891,1.86228 15.5902,10.20782 11.54265,19.07038 -2.41058,5.27823 -7.67174,8.91243 -13.17847,9.10314 z m -35.77913,-38.02929 c -2.31728,-3.10225 -0.69728,-18.74209 -2.58116,-24.40776 5.09797,2.09061 15.81522,10.73848 17.05536,12.50649 1.17859,1.68026 1.26555,10.21673 1.09127,15.88102 -0.0906,2.9427 -4.59339,28.48908 -4.26321,18.38645 0.0563,-1.72215 1.72315,-15.54533 -1.05985,-17.13151 -2.80197,-1.597 -8.76901,-5.60304 -10.24237,-5.2347 z"
         id="path6" /></g></g></svg>
